<svg width="65" height="58" viewBox="0 0 65 58" fill="none" xmlns="http://www.w3.org/2000/svg">
<path d="M61.7388 2.12327C60.0687 0.765289 57.7496 0.757374 55.5869 0.409477C55.5077 0.818649 55.393 1.21989 55.2307 1.60732C53.901 4.81943 50.2523 6.7487 46.7816 6.49371C45.8694 6.42452 44.9275 6.22486 44.0608 6.53322C41.2332 7.53737 42.4303 11.7536 41.7279 14.6633C40.2438 20.7792 30.4491 20.0537 26.7786 25.1733C25.8901 26.4087 25.4172 27.9288 24.4437 29.103C22.5975 31.3267 19.3425 31.8051 16.4833 31.3801C14.7895 31.133 12.9038 30.6705 11.4811 31.6193C8.56837 33.5821 10.4382 39.4805 7.15356 40.716C5.95445 41.1706 4.62673 40.6844 3.34253 40.5915C2.06823 40.5065 0.459515 41.2339 0.56043 42.5068C0.592089 42.9635 0.845391 43.3647 1.09273 43.7502C2.37693 45.7348 3.65121 47.7193 4.92749 49.7039C6.41945 49.611 7.66405 50.2278 8.90867 51.2319C10.3373 50.6152 9.12435 47.7569 10.5629 47.156C11.3188 46.8397 12.1538 47.5652 12.3853 48.3519C12.6109 49.1406 12.4704 49.9886 12.603 50.799C12.7336 51.6115 13.3054 52.4832 14.1246 52.4594C15.6403 52.4219 15.672 49.8344 17.0788 49.2868C18.1058 48.8935 19.1961 49.8897 19.4969 50.9393C19.8056 51.9969 19.6591 53.1394 19.9223 54.2048C20.3715 56.0194 22.1405 57.4248 24.0183 57.4644C25.8902 57.494 27.7066 56.1499 28.2231 54.3432C28.6248 52.924 28.5951 50.9315 30.0316 50.5678C31.1991 50.2752 32.1666 51.4494 32.8236 52.4594C33.4805 53.4636 34.5609 54.5824 35.6829 54.1436C36.8958 53.6652 36.7573 51.8111 35.9223 50.8148C35.0873 49.8107 33.8209 49.2098 33.1006 48.1206C32.3824 47.0315 32.7227 45.1022 34.0287 45.0469C34.739 45.0172 35.3188 45.5648 35.8372 46.051C37.1194 47.241 38.6965 48.2827 40.4437 48.259C42.1909 48.2432 43.9836 46.7607 43.76 45.0311C43.675 44.3689 43.3346 43.6494 43.6829 43.086C43.9381 42.6768 44.4486 42.5385 44.9037 42.3981C47.7788 41.5264 48.1588 39.0239 50.8399 38.0217C52.2626 37.488 53.8159 37.2568 55.0843 36.4384C57.2174 35.0567 58.0524 32.4001 58.7311 29.9529C59.9461 25.5667 61.1748 21.0579 60.7336 16.5313C60.6643 15.7367 60.5337 14.9341 60.7098 14.1612C60.88 13.3903 61.438 12.6333 62.2255 12.5087C62.7578 12.4317 63.2841 12.6491 63.8026 12.7637C63.9253 12.7954 64.0499 12.7716 64.1647 12.7874C64.0104 11.637 63.9965 10.4392 63.9965 9.28874C63.9965 6.69533 63.7472 3.76194 61.7388 2.12327Z" fill="#F7F7F7" stroke="#5E5959" stroke-width="0.7515" stroke-miterlimit="10" stroke-linecap="round" stroke-linejoin="round"/>
</svg>
