<svg width="65" height="59" viewBox="0 0 65 59" fill="none" xmlns="http://www.w3.org/2000/svg">
<path d="M61.7385 2.5344C60.0685 1.17642 57.7494 1.16851 55.5866 0.82061C55.5075 1.22978 55.3927 1.63102 55.2305 2.01846C53.9008 5.23056 50.252 7.15983 46.7813 6.90484C45.8691 6.83566 44.9273 6.63599 44.0606 6.94435C41.233 7.94851 42.4301 12.1648 41.7276 15.0745C40.2436 21.1903 30.4489 20.4648 26.7783 25.5844C25.8899 26.8199 25.417 28.3399 24.4435 29.5141C22.5973 31.7379 19.3423 32.2162 16.483 31.7912C14.7892 31.5442 12.9035 31.0816 11.4808 32.0304C8.56813 33.9933 10.438 39.8917 7.15331 41.1271C5.9542 41.5817 4.62648 41.0955 3.34229 41.0026C2.06799 40.9176 0.45927 41.645 0.560186 42.918C0.591845 43.3746 0.845147 43.7759 1.09249 44.1613C2.37668 46.1459 3.65096 48.1305 4.92724 50.1151C6.4192 50.0222 7.66381 50.6389 8.90843 51.6431C10.3371 51.0263 9.12411 48.168 10.5626 47.5671C11.3185 47.2508 12.1536 47.9763 12.3851 48.763C12.6107 49.5517 12.4702 50.3997 12.6027 51.2102C12.7333 52.0226 13.3052 52.8943 14.1244 52.8706C15.6401 52.833 15.6717 50.2455 17.0786 49.698C18.1056 49.3046 19.1959 50.3009 19.4966 51.3505C19.8053 52.408 19.6589 53.5505 19.9221 54.616C20.3712 56.4306 22.1402 57.836 24.018 57.8755C25.8899 57.9051 27.7064 56.561 28.2228 54.7544C28.6245 53.3351 28.5948 51.3426 30.0314 50.9789C31.1988 50.6863 32.1664 51.8605 32.8233 52.8706C33.4803 53.8747 34.5607 54.9935 35.6826 54.5547C36.8956 54.0763 36.7571 52.2222 35.9221 51.226C35.087 50.2218 33.8207 49.6209 33.1004 48.5317C32.3821 47.4426 32.7224 45.5134 34.0284 45.458C34.7388 45.4284 35.3185 45.9759 35.837 46.4622C37.1192 47.6521 38.6962 48.6938 40.4435 48.6701C42.1907 48.6543 43.9834 47.1718 43.7598 45.4422C43.6747 44.78 43.3344 44.0605 43.6826 43.4971C43.9379 43.088 44.4484 42.9496 44.9035 42.8093C47.7786 41.9376 48.1585 39.435 50.8397 38.4329C52.2624 37.8992 53.8157 37.6679 55.084 36.8496C57.2171 35.4679 58.0522 32.8112 58.7309 30.3641C59.9458 25.9778 61.1746 21.469 60.7333 16.9424C60.6641 16.1478 60.5335 15.3453 60.7096 14.5724C60.8798 13.8015 61.4378 13.0444 62.2253 12.9199C62.7576 12.8428 63.2839 13.0602 63.8023 13.1749C63.925 13.2065 64.0497 13.1828 64.1645 13.1986C64.0101 12.0481 63.9962 10.8503 63.9962 9.69987C63.9962 7.10646 63.7469 4.17307 61.7385 2.5344Z" fill="#FFC5C7" stroke="#5E5959" stroke-width="0.7515" stroke-miterlimit="10" stroke-linecap="round" stroke-linejoin="round"/>
</svg>
