<svg width="210" height="179" viewBox="0 0 210 179" fill="none" xmlns="http://www.w3.org/2000/svg">
<path d="M43.5272 0.696869C45.2804 1.04279 47.924 2.86527 47.0356 4.88148C46.0779 7.04397 43.549 5.98449 42.3974 4.56523C41.4852 3.43655 41.224 1.94611 42.7081 0.920217C42.9396 0.750222 43.2403 0.633615 43.5272 0.696869Z" fill="#FFC5C7" stroke="#5E5959" stroke-width="0.7515" stroke-miterlimit="10" stroke-linecap="round" stroke-linejoin="round"/>
<path d="M38.5724 115.143C38.3548 115.22 38.1391 115.39 37.9313 115.698C37.6444 116.123 37.7057 116.718 37.9847 117.151C38.2637 117.574 38.7188 117.868 39.1819 118.076C40.102 118.493 41.123 118.647 42.1203 118.788C43.1868 118.934 44.3463 119.056 45.2803 118.54C48.2266 116.896 45.7137 112.626 42.8386 113.668C42.1658 113.907 41.7404 114.548 41.1764 114.98C40.2346 115.706 39.3758 114.842 38.5724 115.143Z" fill="#FFC5C7" stroke="#5E5959" stroke-width="0.7515" stroke-miterlimit="10" stroke-linecap="round" stroke-linejoin="round"/>
<path d="M34.1204 118.44C37.2033 118.232 35.9586 123.953 33.4852 123.706C30.9742 123.443 32.0566 118.578 34.1204 118.44Z" fill="#FFC5C7" stroke="#5E5959" stroke-width="0.7515" stroke-miterlimit="10" stroke-linecap="round" stroke-linejoin="round"/>
<path d="M209.028 169.594C208.187 168.89 207.182 168.258 206.802 167.232C206.416 166.196 206.78 165.046 206.672 163.949C206.363 160.744 202.427 159.124 201.315 156.097C200.488 153.858 201.392 151.403 201.879 149.062C202.366 146.724 202.172 143.789 200.086 142.622C198.98 142.006 197.552 142.043 196.576 141.233C195.047 139.952 195.488 137.38 194.257 135.821C192.836 134.022 189.706 134.038 188.052 132.786C187.51 135.156 187.086 137.673 185.169 138.886C184.294 139.442 183.182 139.636 182.432 140.361C181.589 141.171 181.411 142.431 180.98 143.518C180.554 144.607 179.51 145.704 178.39 145.38C177.377 145.085 177.014 143.881 176.759 142.861C175.693 138.554 173.783 134.455 171.185 130.847C168.767 132.253 168.264 135.496 168.264 138.291C168.264 141.079 168.403 144.182 166.594 146.307C162.876 144.299 160.203 140.476 159.584 136.307C159.313 134.492 159.36 132.5 158.238 131.057C157.674 130.345 156.879 129.837 156.323 129.126C155.163 127.621 155.286 125.566 155.573 123.66C153.539 122.996 151.584 122.262 150.363 120.57C148.384 117.815 149.397 114.03 149.32 110.642C149.235 107.174 147.85 103.753 145.501 101.205C144.31 99.9003 142.85 98.7894 142.03 97.2278C140.43 94.1798 141.69 90.511 142.472 87.1606C143.831 81.3926 143.653 75.2768 141.977 69.6017C141.281 67.2396 140.315 64.8676 140.493 62.4046C140.677 59.9496 142.501 57.3779 144.967 57.4174C146.576 57.4333 147.943 58.5205 149.257 59.4554C153.014 62.1279 157.397 63.9109 161.94 64.6838C163.092 62.1734 164.26 59.6788 165.482 57.2079C166.456 55.2471 168.241 52.9541 170.312 53.6637C171.897 54.2132 172.762 56.3896 174.432 56.3283C175.978 56.267 176.674 54.3279 176.635 52.7841C176.542 49.1095 174.456 45.5337 171.294 43.6341C169.778 42.7307 167.97 42.114 167.012 40.6315C166.44 39.736 166.238 38.6074 165.504 37.8444C164.818 37.1407 163.804 36.8857 162.924 36.439C160.728 35.3182 159.6 33.1498 158.996 30.7007C158.796 30.8015 158.571 30.8706 158.315 30.8865C156.113 28.044 153.509 24.9722 149.922 24.6164C148.732 24.5018 147.432 24.6856 146.398 24.0768C145.084 23.296 144.727 21.5585 143.701 20.4318C141.389 17.8997 137.27 19.4593 134.147 20.8805C130.807 22.4006 127.307 23.5668 123.719 24.3693C121.78 24.8022 119.198 24.7943 116.918 25.2035C116.392 25.9902 115.743 26.6939 114.954 27.2335C112.551 28.894 109.467 29.0798 106.653 29.8823C103.847 30.6927 100.895 32.6932 100.825 35.6127C100.802 36.524 101.065 37.4273 100.98 38.3306C100.887 39.234 100.238 40.2065 99.3335 40.167C98.1047 40.1294 97.7109 38.5065 97.6872 37.279C97.5942 32.7327 97.6318 28.0677 96.0409 23.7981C94.448 19.5364 90.7992 15.6897 86.262 15.3517C84.4317 15.2114 82.2828 15.5276 81.0461 14.1697C80.5039 13.5826 80.1873 12.703 79.4295 12.4401C78.6182 12.1693 77.8148 12.7405 77.0649 13.1576C74.4747 14.5947 70.9268 14.0313 68.9105 11.8609C67.5571 10.41 66.7141 8.26334 64.8205 7.66835C63.3681 7.20581 61.6684 7.83835 60.3149 7.12674C59.0169 6.44084 58.5756 4.79623 57.5487 3.75255C55.4295 1.60785 51.3335 2.9263 50.1126 5.68378C48.8838 8.43333 49.9504 11.7443 51.8677 14.0768C52.4079 14.7409 53.0332 15.3735 53.3122 16.1839C53.5912 16.9963 53.3656 18.0617 52.586 18.4156C51.0782 19.0876 50.1047 16.856 49.4398 15.3517C48.3258 12.8334 45.6842 11.2501 42.9852 10.7184C40.2803 10.1847 37.4903 10.5484 34.7695 10.9734C33.6713 11.1513 32.5277 11.3509 31.6076 11.9775C30.6874 12.618 30.0542 13.8139 30.4342 14.8655C31.006 16.4863 33.2855 16.6326 34.5064 17.8443C36.0518 19.3743 35.6046 22.278 37.3201 23.6202C38.7507 24.741 40.9135 24.1539 42.538 24.9643C44.8096 26.0989 44.5702 30.1057 42.174 30.9635C41.054 31.3569 39.8252 31.1256 38.6419 31.1948C37.4586 31.2719 36.1072 31.8669 35.9053 33.0331C35.7906 33.6815 36.0676 34.3298 36.0142 34.9861C35.7965 37.6882 31.0357 37.4886 30.0859 40.0207C29.7535 40.9003 29.8762 42.1061 29.057 42.5528C28.7087 42.7386 28.2853 42.7228 27.9133 42.6003C25.889 41.9657 25.6951 39.0719 26.5994 37.1407C27.4957 35.2174 29.0807 33.551 29.328 31.434C29.4982 29.9376 28.956 28.4551 28.5088 27.0102C27.4581 23.6044 26.8863 20.0542 26.8091 16.4863C25.5091 15.7372 24.4188 17.7514 24.2566 19.2418C23.8865 22.6555 23.5086 26.0673 23.1366 29.4731C22.9981 30.7777 22.8358 32.1219 22.1868 33.2486C21.5358 34.3852 20.2536 35.2648 18.9635 35.0256C16.2961 34.5314 16.4208 30.6394 14.8734 28.4156C14.6419 28.0677 14.3095 27.7356 13.892 27.6902C12.9422 27.5814 12.5247 28.8564 12.4633 29.8131C12.2853 32.5548 12.0993 35.2945 11.9212 38.0282C11.8757 38.6766 11.8361 39.3486 12.1072 39.9436C12.6098 41.0624 14.1631 41.8432 13.8465 43.0332C13.4824 44.4366 11.288 43.8891 10.3144 42.8157C9.33102 41.7424 8.14972 40.2678 6.78836 40.7699C5.30431 41.3095 5.52195 43.4186 5.76137 44.9703C5.99289 46.5299 5.12029 48.7853 3.63624 48.2437C2.49056 48.2595 1.90485 48.9553 1.44776 49.997C0.992652 51.0387 1.20041 52.3433 1.96617 53.1933C2.25111 53.5096 2.61519 53.7725 2.82296 54.152C3.36513 55.1087 2.75373 56.267 2.22937 57.2317C1.71094 58.1963 1.33102 59.5562 2.17396 60.2579C3.2405 61.1692 4.84919 59.8567 5.25087 58.5145C5.65255 57.1704 5.64465 55.5633 6.71119 54.6462C8.06464 53.472 10.1977 54.2508 11.6204 55.3479C12.865 56.2907 14.0305 57.8583 13.421 59.2854C12.3545 61.7642 7.68472 60.4754 6.59642 62.9462C5.83065 64.6679 7.92611 66.5438 9.796 66.3501C11.6738 66.1583 13.15 64.7292 14.4718 63.3791C15.8094 62.0034 17.147 60.6375 18.4905 59.2617C19.0169 58.7221 19.7134 58.135 20.4317 58.3524C21.2271 58.5837 21.4448 59.6254 21.3201 60.4438C21.142 61.5329 20.6315 62.5529 20.4396 63.6321C20.2457 64.7213 20.4772 66.018 21.4289 66.5833C21.8761 66.8522 22.4183 66.9154 22.9209 67.0617C24.9986 67.6705 26.3758 70.0484 25.8653 72.1576C25.5783 73.3693 24.775 74.3892 24.2348 75.516C23.6847 76.6367 23.4294 78.0718 24.1794 79.068C25.0144 80.1651 26.6528 80.2185 27.7589 81.0368C29.5596 82.3572 29.3656 85.0297 29.2588 87.2614C28.9798 92.9503 30.4718 98.5562 31.9479 104.063C32.3575 105.575 32.7908 107.143 33.8336 108.317C35.7827 110.509 39.1208 110.594 42.0513 110.517C42.4292 110.509 42.8151 110.501 43.1475 110.325C43.472 110.161 43.7055 109.861 43.8974 109.56C45.5991 106.88 44.9719 103.383 43.9746 100.371C42.0196 94.4644 38.8438 88.9435 37.5437 82.8514C37.2351 81.4084 37.0273 79.9259 36.5464 78.5284C35.9904 76.8977 35.0862 75.423 34.3065 73.8872C32.5969 70.5426 31.5066 66.8917 31.0911 63.1696C30.9981 62.29 31.3444 61.015 32.211 61.2166C32.5356 61.2937 32.7671 61.5863 32.9372 61.8808C34.2511 64.0354 34.1284 66.7296 34.3975 69.238C34.6607 71.7484 35.658 74.5671 38.0305 75.431C39.5541 75.9864 41.4854 75.6701 42.5835 76.8601C42.8784 77.1764 43.1336 77.6172 43.565 77.6705C43.8895 77.7239 44.2002 77.5242 44.4475 77.2989C45.8603 76.0022 45.9236 73.8022 45.6367 71.8947C45.3518 69.9951 44.8333 68.0105 45.4507 66.188C45.5754 65.8025 45.7752 65.4171 46.1156 65.1917C46.6795 64.8221 47.4849 65.0376 47.9637 65.5179C48.4346 66.0042 48.6523 66.6822 48.7908 67.3384C49.5407 70.8609 48.7295 74.49 48.1636 78.0481C47.5996 81.6002 47.3226 85.431 49.0144 88.6115C49.7406 89.9635 50.7992 91.1594 51.2484 92.6261C52.0993 95.3994 50.5756 98.5482 51.6342 101.252C52.2536 102.82 53.6763 104.047 53.9316 105.714C54.355 108.54 51.2108 111.189 52.121 113.899C53.0965 116.819 57.7109 116.755 59.2326 119.428C59.8519 120.501 58.9932 120.695 57.8257 121.088C56.6523 121.482 55.2751 121.436 54.3471 122.255C53.0194 123.413 53.4586 125.651 54.5489 127.034C55.6471 128.416 57.2301 129.343 58.3124 130.733C59.4027 132.122 59.8044 134.37 58.4609 135.512C58.1284 135.789 57.7248 135.975 57.3706 136.23C56.1339 137.149 55.8173 139.086 56.6899 140.345C57.1391 140.986 57.8039 141.426 58.3124 142.013C58.823 142.601 59.1554 143.472 58.7695 144.144C58.3045 144.963 57.0916 144.994 56.4347 145.672C55.3602 146.754 56.1636 148.932 54.9664 149.865C54.448 150.274 53.7218 150.282 53.15 150.598C52.0379 151.209 51.9053 153.024 52.9105 153.789C54.8279 155.232 57.5487 152.399 59.8123 153.178C61.5596 153.789 62.3412 156.344 64.1794 156.352C64.6978 156.352 65.2004 156.135 65.7109 156.174C67.4502 156.305 67.6738 158.784 68.8017 160.096C69.5972 161.023 70.9664 161.456 71.4215 162.583C71.9558 163.919 70.8893 165.409 71.1208 166.829C71.376 168.459 73.1846 169.377 73.8099 170.907C74.1047 171.632 74.1126 172.458 74.4292 173.176C75.1712 174.913 77.328 175.508 79.2138 175.548C80.7295 175.578 82.2432 175.386 83.6976 174.977C86.2007 172.312 90.0117 170.436 93.6684 170.49C94.1077 170.497 94.5568 170.559 94.9348 170.768C98.3362 168.76 101.203 165.856 103.145 162.421C105.379 158.459 106.831 153.395 111.051 151.672C116.113 149.604 121.794 153.796 127.174 152.83C128.635 152.569 130.227 151.942 131.533 152.646C132.988 153.433 133.227 155.348 133.906 156.839C136.033 161.494 142.363 161.927 147.472 161.664C151.701 161.448 156.206 161.132 159.576 158.584C160.852 157.625 162.182 156.297 163.743 156.599C165.651 158.329 164.291 161.711 165.605 163.927C166.672 165.71 169.052 166.103 170.815 167.216C173.488 168.914 174.634 172.211 176.836 174.488C180.076 177.857 185.23 178.598 189.884 178.165C196.994 177.501 203.85 174.482 209.169 169.732C209.121 169.687 209.076 169.64 209.028 169.594Z" fill="#FFC5C7" stroke="#5E5959" stroke-width="0.7515" stroke-miterlimit="10" stroke-linecap="round" stroke-linejoin="round"/>
</svg>
