<svg width="188" height="205" viewBox="0 0 188 205" fill="none" xmlns="http://www.w3.org/2000/svg">
<path d="M86.1666 198.286C87.0095 198 87.9296 198.17 88.8023 198.023C90.9136 197.66 92.265 195.545 92.829 193.475C93.387 191.413 93.4404 189.205 94.2991 187.245C95.0708 185.483 96.4619 184.009 97.0259 182.163C97.4988 180.611 97.3445 178.937 96.9408 177.361C96.6163 176.07 96.2541 174.412 97.3523 173.655C98.31 172.999 99.5705 173.607 100.706 173.809C102.653 174.157 104.757 173.06 105.592 171.269C103.767 170.342 103.241 168.057 102.63 166.11C102.012 164.165 100.597 161.987 98.5653 162.196C96.9566 162.358 95.7891 163.995 94.1824 164.117C92.6746 164.234 91.4458 162.999 90.4802 161.832C89.4295 160.581 88.3768 159.261 86.964 158.45C85.5413 157.64 83.6239 157.454 82.3338 158.458C81.6056 159.022 81.1268 159.911 80.2997 160.296C78.2062 161.277 76.2571 158.203 76.8844 155.979C77.5176 153.764 79.4033 152.111 80.2997 149.988C81.0813 148.158 81.0654 146.104 81.105 144.111C81.2435 137.078 82.1854 130.059 83.9168 123.242C84.4966 120.963 84.9002 117.976 82.8661 116.786C81.9935 116.268 80.8576 116.276 80.0384 115.667C78.8789 114.801 78.7998 113.08 77.8896 111.961C76.0573 109.713 71.4646 110.423 70.7385 107.62C70.1824 105.505 72.6637 103.86 74.8126 103.406C76.9615 102.957 79.52 102.734 80.6479 100.858C82.132 98.4007 80.4777 94.1073 83.153 93.0577C83.988 92.7256 84.9299 92.9431 85.8342 92.9727C89.1347 93.0894 92.2492 90.1856 92.3501 86.8806C92.829 88.7505 95.4033 89.0352 97.2672 88.5331C99.1371 88.031 101.193 87.1751 102.877 88.1081C104.355 88.9205 106.193 90.8893 107.129 89.4918C107.848 88.4323 106.441 87.2819 105.499 86.418C103.241 84.3564 102.074 77.693 104.215 75.1747C105.707 73.4154 112.401 71.4229 114.619 71.4388C116.504 71.4546 118.398 72.0555 120.246 71.6938C125.324 70.7133 127.983 64.7833 133.401 65.7716C136.547 66.3508 139.137 68.9284 140.111 71.9705C140.411 72.9055 140.635 73.9709 141.44 74.5422C142.119 75.0284 143.025 75.0047 143.858 74.9197C147.106 74.6192 150.297 73.7633 153.265 72.4113C154.379 71.8934 155.491 71.2925 156.257 70.3259C159.148 66.675 155.175 61.33 156.041 56.7441C156.845 52.5061 161.398 50.2507 165.385 48.5745C169.366 46.9081 173.888 44.467 174.444 40.1894C174.568 39.2406 174.483 38.2602 174.776 37.3568C175.805 34.2139 180.127 34.1823 183.249 33.0852C184.67 32.5851 185.914 31.6956 186.935 30.6006C186.603 30.3535 186.27 30.0985 185.9 29.8969C182.43 28.0526 178.055 28.9935 174.444 27.4497C170.433 25.7438 167.526 21.0947 163.175 21.3101C160.169 21.4584 157.124 23.9984 154.472 22.5772C152.616 21.5809 152.076 19.0864 150.36 17.8589C148.049 16.2064 144.903 17.5189 142.159 18.2601C139.406 19.0093 135.435 18.2305 135.358 15.388C135.287 13.2334 137.576 11.913 139.236 10.5392C140.898 9.16542 141.858 6.0462 139.863 5.21994C137.699 6.7242 135.148 8.29962 132.605 7.6058C130.65 7.0721 129.305 5.33459 127.704 4.09126C126.097 2.84991 123.539 2.18576 122.201 3.70583C121.188 4.85625 120.701 7.14922 119.233 6.74004C118.507 6.54039 118.182 5.70622 117.634 5.18834C116.15 3.77501 113.661 5.07962 112.424 6.71829C111.196 8.35498 110.22 10.47 108.257 11.0729C105.398 11.9525 102.877 9.05669 101.401 6.45537C99.9326 3.85208 97.9163 0.764511 94.9324 1.00369C92.1423 1.22707 90.5495 4.3166 90.0152 7.06418C89.475 9.80585 89.3286 12.8796 87.3796 14.8938C85.8263 16.5009 83.4854 17.0168 81.2811 17.4655C77.5255 18.2147 71.6981 20.6539 67.9405 19.033C64.2918 17.4655 63.898 10.5155 61.8124 6.77956C61.3949 9.31958 60.6054 12.1146 60.5044 12.3301C59.2222 15.1113 58.5732 19.3572 54.5069 18.7859C52.3897 18.4934 50.6425 17.0108 49.0358 15.5975C47.3044 16.5938 48.3926 19.1714 48.8794 21.1026C49.7382 24.5302 47.4587 28.4301 44.0493 29.3572C41.6768 30.0055 38.5683 29.6339 37.3553 31.7648C36.9536 32.4843 36.8764 33.356 36.4055 34.036C34.8364 36.2973 31.2034 34.3286 28.5519 35.0856C24.7488 36.1827 24.3076 42.4132 20.451 43.279C18.4961 43.7178 15.8762 42.7215 14.7859 44.4057C13.9964 45.6253 14.8235 47.2541 14.6158 48.699C14.2833 50.8833 11.7723 51.9408 9.59967 52.344C7.41911 52.7453 4.92395 53.0774 3.68725 54.9058C2.65039 56.4516 2.45648 58.9916 0.996176 59.7012C1.59969 62.1503 2.72756 64.3188 4.92395 65.4395C5.80449 65.8863 6.8176 66.1413 7.50422 66.845C8.23833 67.608 8.44014 68.7366 9.012 69.6321C9.9697 71.1146 11.7783 71.7313 13.294 72.6347C16.456 74.5343 18.5416 78.1022 18.6346 81.7926C18.6741 83.3364 17.9776 85.2676 16.4322 85.3289C14.7622 85.3902 13.8975 83.2138 12.3125 82.6643C10.2408 81.9547 8.45598 84.2476 7.48245 86.2085C5.52549 90.1619 3.7011 94.1864 1.87869 98.201C1.105 99.899 0.331304 101.846 1.0575 103.56C1.62341 104.91 3.01446 105.776 3.61599 107.112C4.6291 109.32 3.2994 112.315 4.89228 114.153C6.91652 116.493 11.9564 114.849 13.0308 117.758C11.0837 118.401 11.0066 121.225 11.9722 123.032C12.9299 124.847 14.5623 126.377 14.8868 128.391C15.0253 129.265 14.964 130.275 15.6051 130.878C16.9586 132.113 18.8364 129.998 20.6449 129.674C22.4911 129.35 24.084 131.071 24.7884 132.801C25.4909 134.538 25.7619 136.507 26.9373 137.966C28.1107 139.425 30.7622 139.911 31.6981 138.29C32.4936 136.885 32.0226 134.291 33.6373 134.228C34.3101 134.206 34.8522 134.785 35.1847 135.373C36.6529 137.99 35.8099 141.303 34.4426 143.981C33.0733 146.659 31.2034 149.146 30.5703 152.089C30.2438 153.633 30.2675 155.262 29.8045 156.776C29.4325 157.964 28.7538 159.17 29.0545 160.381C29.7728 163.214 34.4426 162.52 36.2571 164.813C37.4879 166.381 37.0466 168.952 38.5762 170.233C39.5517 171.044 40.9803 171.006 42.0864 171.623C44.172 172.789 44.3659 175.724 43.8792 178.063C43.3924 180.403 42.4881 182.858 43.3152 185.098C44.4273 188.124 48.363 189.745 48.6717 192.949C48.7805 194.046 48.4164 195.197 48.8022 196.233C49.1822 197.258 50.1873 197.891 51.0283 198.603C51.0758 198.64 51.1213 198.688 51.1688 198.733C51.3469 198.571 51.5309 198.433 51.7011 198.27C52.8923 197.158 54.9561 196.007 55.8683 197.359C56.3927 198.138 56.0068 199.251 56.4164 200.101C57.4909 202.325 60.9912 199.706 63.342 200.51C65.1743 201.127 65.7837 203.744 67.6635 204.23C70.2754 204.91 71.991 200.927 74.6959 200.811C75.988 200.749 77.1238 201.613 78.129 202.439C78.9086 203.074 79.6902 203.73 80.4401 204.416C81.6135 202.764 82.8977 201.188 84.2809 199.706C84.829 199.126 85.4167 198.533 86.1666 198.286Z" fill="#FFC5C7" stroke="#5E5959" stroke-width="0.7515" stroke-miterlimit="10" stroke-linecap="round" stroke-linejoin="round"/>
</svg>
