<svg width="188" height="205" viewBox="0 0 188 205" fill="none" xmlns="http://www.w3.org/2000/svg">
<path d="M86.1667 197.875C87.0096 197.589 87.9297 197.759 88.8023 197.612C90.9136 197.249 92.2651 195.134 92.829 193.064C93.387 191.002 93.4404 188.794 94.2992 186.833C95.0709 185.072 96.462 183.598 97.0259 181.751C97.4988 180.2 97.3445 178.525 96.9408 176.95C96.6163 175.659 96.2542 174.001 97.3524 173.244C98.3101 172.587 99.5705 173.196 100.706 173.398C102.653 173.746 104.757 172.649 105.592 170.858C103.767 169.931 103.241 167.646 102.63 165.699C102.012 163.754 100.598 161.575 98.5654 161.785C96.9566 161.947 95.7892 163.584 94.1825 163.706C92.6747 163.823 91.4459 162.587 90.4803 161.421C89.4296 160.17 88.3769 158.85 86.9641 158.039C85.5414 157.229 83.624 157.043 82.3338 158.047C81.6057 158.61 81.1268 159.5 80.2997 159.885C78.2062 160.866 76.2572 157.792 76.8844 155.568C77.5176 153.352 79.4034 151.7 80.2997 149.577C81.0813 147.747 81.0655 145.693 81.105 143.7C81.2436 136.667 82.1855 129.648 83.9169 122.83C84.4966 120.551 84.9003 117.565 82.8661 116.375C81.9935 115.857 80.8577 115.865 80.0385 115.256C78.879 114.39 78.7999 112.668 77.8896 111.55C76.0573 109.302 71.4647 110.012 70.7385 107.209C70.1825 105.094 72.6638 103.449 74.8127 102.995C76.9616 102.546 79.5201 102.322 80.648 100.447C82.132 97.9896 80.4778 93.6962 83.153 92.6466C83.9881 92.3145 84.93 92.532 85.8342 92.5616C89.1348 92.6782 92.2493 89.7745 92.3502 86.4695C92.829 88.3394 95.4033 88.6241 97.2673 88.122C99.1372 87.6199 101.193 86.764 102.877 87.697C104.355 88.5094 106.193 90.4782 107.129 89.0807C107.848 88.0212 106.441 86.8707 105.499 86.0069C103.241 83.9452 102.074 77.2818 104.215 74.7635C105.707 73.0043 112.401 71.0118 114.619 71.0276C116.505 71.0434 118.398 71.6444 120.246 71.2826C125.324 70.3022 127.983 64.3722 133.401 65.3605C136.547 65.9397 139.137 68.5173 140.111 71.5594C140.412 72.4943 140.635 73.5598 141.44 74.131C142.119 74.6173 143.025 74.5936 143.858 74.5086C147.106 74.2081 150.297 73.3522 153.265 72.0002C154.379 71.4823 155.491 70.8814 156.257 69.9148C159.148 66.2638 155.175 60.9189 156.041 56.333C156.845 52.095 161.398 49.8396 165.385 48.1633C169.366 46.497 173.888 44.0558 174.444 39.7783C174.568 38.8295 174.483 37.8491 174.776 36.9457C175.805 33.8028 180.127 33.7711 183.249 32.6741C184.67 32.174 185.914 31.2845 186.935 30.1894C186.603 29.9423 186.271 29.6873 185.9 29.4857C182.43 27.6415 178.055 28.5824 174.444 27.0386C170.433 25.3327 167.526 20.6835 163.175 20.899C160.169 21.0472 157.124 23.5873 154.472 22.1661C152.616 21.1698 152.076 18.6752 150.361 17.4477C148.049 15.7952 144.903 17.1077 142.159 17.849C139.406 18.5981 135.435 17.8194 135.358 14.9769C135.287 12.8223 137.576 11.5019 139.236 10.1281C140.898 8.75429 141.858 5.63507 139.863 4.80881C137.699 6.31306 135.148 7.88849 132.605 7.19467C130.65 6.66096 129.305 4.92346 127.704 3.68013C126.097 2.43878 123.539 1.77463 122.201 3.29469C121.188 4.44511 120.701 6.73808 119.233 6.3289C118.507 6.12926 118.182 5.29509 117.634 4.77721C116.15 3.36388 113.661 4.66849 112.424 6.30716C111.196 7.94385 110.22 10.0589 108.257 10.6618C105.398 11.5414 102.877 8.64555 101.401 6.04424C99.9327 3.44095 97.9163 0.353378 94.9324 0.59256C92.1424 0.815933 90.5496 3.90547 90.0153 6.65305C89.4751 9.39471 89.3287 12.4685 87.3796 14.4827C85.8263 16.0898 83.4855 16.6057 81.2812 17.0544C77.5256 17.8035 71.6982 20.2428 67.9406 18.6219C64.2918 17.0544 63.898 10.1043 61.8125 6.36842C61.395 8.90845 60.6054 11.7035 60.5045 11.9189C59.2223 14.7001 58.5733 18.946 54.507 18.3748C52.3898 18.0822 50.6425 16.5997 49.0358 15.1864C47.3044 16.1826 48.3927 18.7602 48.8795 20.6915C49.7382 24.119 47.4588 28.019 44.0494 28.9461C41.6769 29.5944 38.5683 29.2228 37.3554 31.3537C36.9537 32.0732 36.8765 32.9449 36.4056 33.6249C34.8364 35.8862 31.2035 33.9174 28.552 34.6745C24.7489 35.7716 24.3076 42.0021 20.4511 42.8678C18.4961 43.3067 15.8763 42.3104 14.786 43.9945C13.9965 45.2142 14.8236 46.8429 14.6158 48.2879C14.2834 50.4721 11.7724 51.5297 9.59973 51.9329C7.41917 52.3342 4.92402 52.6662 3.68731 54.4947C2.65046 56.0404 2.45654 58.5805 0.996237 59.2901C1.59975 61.7392 2.72763 63.9076 4.92401 65.0284C5.80455 65.4751 6.81766 65.7301 7.50428 66.4338C8.23839 67.1968 8.4402 68.3255 9.01206 69.2209C9.96976 70.7034 11.7783 71.3202 13.294 72.2235C16.456 74.1231 18.5416 77.691 18.6346 81.3815C18.6742 82.9253 17.9777 84.8565 16.4323 84.9178C14.7622 84.979 13.8975 82.8027 12.3126 82.2532C10.2408 81.5436 8.45604 83.8365 7.48251 85.7974C5.52555 89.7507 3.70116 93.7753 1.87875 97.7899C1.10507 99.4879 0.331365 101.435 1.05756 103.149C1.62348 104.499 3.01452 105.365 3.61605 106.701C4.62916 108.909 3.29947 111.903 4.89234 113.742C6.91658 116.082 11.9564 114.438 13.0309 117.347C11.0838 117.99 11.0066 120.814 11.9722 122.621C12.9299 124.436 14.5624 125.966 14.8869 127.98C15.0254 128.853 14.9641 129.864 15.6052 130.466C16.9586 131.702 18.8364 129.587 20.645 129.263C22.4912 128.938 24.084 130.66 24.7885 132.39C25.4909 134.127 25.762 136.096 26.9374 137.555C28.1108 139.014 30.7622 139.5 31.6982 137.879C32.4936 136.474 32.0227 133.88 33.6373 133.817C34.3101 133.795 34.8523 134.374 35.1847 134.961C36.6529 137.579 35.81 140.891 34.4427 143.57C33.0734 146.248 31.2035 148.735 30.5703 151.678C30.2438 153.222 30.2676 154.851 29.8045 156.365C29.4325 157.553 28.7538 158.759 29.0546 159.97C29.7729 162.803 34.4427 162.109 36.2572 164.402C37.4879 165.97 37.0467 168.541 38.5762 169.822C39.5517 170.633 40.9804 170.595 42.0865 171.212C44.1721 172.378 44.366 175.313 43.8792 177.652C43.3925 179.992 42.4882 182.447 43.3153 184.687C44.4273 187.713 48.363 189.334 48.6717 192.538C48.7805 193.635 48.4164 194.786 48.8023 195.821C49.1822 196.847 50.1874 197.48 51.0284 198.191C51.0759 198.229 51.1214 198.276 51.1689 198.322C51.347 198.16 51.531 198.021 51.7012 197.859C52.8924 196.746 54.9562 195.596 55.8684 196.948C56.3927 197.727 56.0069 198.84 56.4165 199.69C57.4909 201.914 60.9913 199.294 63.342 200.099C65.1743 200.716 65.7838 203.333 67.6636 203.819C70.2755 204.499 71.9911 200.516 74.696 200.399C75.9881 200.338 77.1239 201.202 78.1291 202.028C78.9087 202.663 79.6903 203.319 80.4402 204.005C81.6136 202.352 82.8978 200.777 84.2809 199.294C84.829 198.715 85.4167 198.122 86.1667 197.875Z" fill="#F7F7F7" stroke="#5E5959" stroke-width="0.7515" stroke-miterlimit="10" stroke-linecap="round" stroke-linejoin="round"/>
</svg>
