<svg width="210" height="180" viewBox="0 0 210 180" fill="none" xmlns="http://www.w3.org/2000/svg">
<path d="M43.5274 1.28574C45.2806 1.63166 47.9242 3.45413 47.0357 5.47035C46.078 7.63284 43.5492 6.57336 42.3976 5.1541C41.4854 4.02542 41.2242 2.53498 42.7083 1.50908C42.9398 1.33909 43.2405 1.22248 43.5274 1.28574Z" fill="#F7F7F7" stroke="#5E5959" stroke-width="0.7515" stroke-miterlimit="10" stroke-linecap="round" stroke-linejoin="round"/>
<path d="M38.5727 115.731C38.355 115.808 38.1393 115.978 37.9316 116.287C37.6447 116.712 37.706 117.307 37.985 117.74C38.264 118.163 38.7191 118.457 39.1821 118.665C40.1022 119.082 41.1232 119.236 42.1205 119.376C43.1871 119.523 44.3466 119.645 45.2806 119.129C48.2269 117.485 45.7139 113.215 42.8388 114.257C42.166 114.496 41.7406 115.136 41.1767 115.569C40.2348 116.295 39.376 115.431 38.5727 115.731Z" fill="#F7F7F7" stroke="#5E5959" stroke-width="0.7515" stroke-miterlimit="10" stroke-linecap="round" stroke-linejoin="round"/>
<path d="M34.1206 119.029C37.2034 118.821 35.9588 124.542 33.4854 124.294C30.9744 124.032 32.0568 119.167 34.1206 119.029Z" fill="#F7F7F7" stroke="#5E5959" stroke-width="0.7515" stroke-miterlimit="10" stroke-linecap="round" stroke-linejoin="round"/>
<path d="M209.028 170.183C208.187 169.479 207.182 168.847 206.802 167.821C206.417 166.785 206.781 165.635 206.672 164.538C206.363 161.333 202.427 159.712 201.315 156.686C200.488 154.447 201.393 151.992 201.879 149.651C202.366 147.313 202.172 144.377 200.087 143.211C198.98 142.594 197.552 142.632 196.576 141.822C195.047 140.541 195.488 137.969 194.257 136.409C192.837 134.611 189.706 134.626 188.052 133.375C187.51 135.745 187.086 138.262 185.169 139.475C184.294 140.031 183.182 140.224 182.432 140.95C181.589 141.76 181.411 143.019 180.98 144.107C180.555 145.196 179.51 146.293 178.39 145.969C177.377 145.674 177.015 144.47 176.759 143.45C175.693 139.143 173.783 135.044 171.185 131.436C168.767 132.842 168.265 136.085 168.265 138.88C168.265 141.667 168.403 144.771 166.595 146.896C162.877 144.887 160.203 141.064 159.584 136.896C159.313 135.081 159.36 133.089 158.238 131.646C157.674 130.934 156.879 130.426 156.323 129.714C155.164 128.21 155.286 126.154 155.573 124.249C153.539 123.585 151.584 122.851 150.363 121.159C148.384 118.404 149.397 114.618 149.32 111.23C149.235 107.763 147.85 104.342 145.501 101.794C144.31 100.489 142.85 99.3783 142.031 97.8167C140.43 94.7686 141.69 91.0999 142.472 87.7494C143.831 81.9815 143.653 75.8656 141.977 70.1906C141.281 67.8285 140.315 65.4565 140.493 62.9935C140.677 60.5385 142.502 57.9668 144.967 58.0063C146.576 58.0221 147.943 59.1093 149.257 60.0443C153.015 62.7168 157.397 64.4997 161.941 65.2726C163.092 62.7622 164.26 60.2676 165.483 57.7968C166.456 55.8359 168.241 53.543 170.313 54.2526C171.898 54.8021 172.762 56.9785 174.432 56.9172C175.978 56.8559 176.674 54.9168 176.635 53.373C176.542 49.6983 174.456 46.1225 171.294 44.2229C169.778 43.3196 167.97 42.7029 167.012 41.2204C166.44 40.3249 166.238 39.1962 165.504 38.4332C164.818 37.7296 163.805 37.4746 162.924 37.0278C160.728 35.9071 159.6 33.7386 158.996 31.2895C158.796 31.3903 158.571 31.4595 158.316 31.4753C156.113 28.6329 153.509 25.5611 149.922 25.2053C148.733 25.0907 147.433 25.2745 146.398 24.6656C145.084 23.8849 144.728 22.1474 143.701 21.0207C141.39 18.4885 137.27 20.0481 134.147 21.4694C130.807 22.9894 127.307 24.1557 123.72 24.9582C121.78 25.3911 119.198 25.3832 116.919 25.7924C116.392 26.5791 115.743 27.2828 114.954 27.8224C112.552 29.4828 109.467 29.6686 106.653 30.4712C103.847 31.2816 100.895 33.282 100.826 36.2016C100.802 37.1128 101.065 38.0162 100.98 38.9195C100.887 39.8229 100.238 40.7954 99.3337 40.7559C98.1049 40.7183 97.7111 39.0954 97.6874 37.8679C97.5944 33.3215 97.632 28.6566 96.0411 24.3869C94.4482 20.1252 90.7994 16.2786 86.2622 15.9406C84.4318 15.8003 82.283 16.1165 81.0463 14.7585C80.5041 14.1715 80.1875 13.2918 79.4296 13.0289C78.6184 12.7581 77.815 13.3294 77.065 13.7465C74.4749 15.1835 70.927 14.6202 68.9107 12.4498C67.5573 10.9989 66.7143 8.8522 64.8207 8.25722C63.3683 7.79468 61.6686 8.42722 60.3151 7.71561C59.0171 7.02971 58.5758 5.3851 57.5489 4.34142C55.4296 2.19672 51.3337 3.51517 50.1128 6.27264C48.884 9.0222 49.9505 12.3331 51.8679 14.6656C52.4081 15.3298 53.0334 15.9623 53.3124 16.7728C53.5914 17.5852 53.3658 18.6506 52.5862 19.0044C51.0784 19.6765 50.1049 17.4449 49.44 15.9406C48.326 13.4223 45.6844 11.839 42.9854 11.3072C40.2805 10.7735 37.4905 11.1372 34.7697 11.5622C33.6715 11.7401 32.5278 11.9398 31.6077 12.5664C30.6876 13.2068 30.0544 14.4027 30.4343 15.4543C31.0062 17.0752 33.2857 17.2215 34.5066 18.4332C36.0519 19.9631 35.6048 22.8669 37.3203 24.2091C38.7509 25.3298 40.9137 24.7427 42.5382 25.5532C44.8098 26.6878 44.5704 30.6945 42.1741 31.5524C41.0542 31.9458 39.8254 31.7145 38.6421 31.7837C37.4588 31.8608 36.1074 32.4557 35.9055 33.622C35.7908 34.2703 36.0678 34.9187 36.0143 35.575C35.7967 38.2771 31.0359 38.0774 30.0861 40.6096C29.7536 41.4892 29.8763 42.6949 29.0571 43.1417C28.7089 43.3275 28.2854 43.3117 27.9134 43.1891C25.8892 42.5546 25.6953 39.6608 26.5996 37.7295C27.4959 35.8062 29.0809 34.1399 29.3282 32.0228C29.4984 30.5265 28.9562 29.044 28.509 27.5991C27.4583 24.1932 26.8865 20.6431 26.8093 17.0752C25.5093 16.326 24.419 18.3403 24.2567 19.8307C23.8867 23.2444 23.5088 26.6562 23.1368 30.062C22.9983 31.3666 22.836 32.7108 22.187 33.8375C21.536 34.9741 20.2538 35.8537 18.9637 35.6145C16.2963 35.1203 16.421 31.2282 14.8736 29.0045C14.6421 28.6566 14.3097 28.3245 13.8922 28.279C12.9424 28.1703 12.5249 29.4453 12.4635 30.402C12.2854 33.1436 12.0994 35.8833 11.9214 38.6171C11.8758 39.2654 11.8363 39.9375 12.1073 40.5325C12.6099 41.6513 14.1632 42.4321 13.8466 43.622C13.4826 45.0255 11.2882 44.4779 10.3146 43.4046C9.3312 42.3313 8.14991 40.8566 6.78854 41.3587C5.3045 41.8984 5.52213 44.0075 5.76156 45.5592C5.99307 47.1188 5.12047 49.3742 3.63642 48.8326C2.49074 48.8484 1.90503 49.5442 1.44794 50.5859C0.992835 51.6276 1.20059 52.9322 1.96636 53.7822C2.25129 54.0984 2.61538 54.3613 2.82314 54.7409C3.36532 55.6976 2.75391 56.8559 2.22955 57.8205C1.71112 58.7851 1.33121 60.1451 2.17415 60.8468C3.24068 61.7581 4.84937 60.4456 5.25105 59.1034C5.65274 57.7593 5.64483 56.1522 6.71137 55.235C8.06482 54.0609 10.1979 54.8397 11.6206 55.9367C12.8652 56.8796 14.0307 58.4471 13.4212 59.8743C12.3547 62.3531 7.68491 61.0642 6.5966 63.5351C5.83084 65.2568 7.92629 67.1327 9.79619 66.9389C11.674 66.7472 13.1501 65.3181 14.4719 63.968C15.8096 62.5922 17.1472 61.2263 18.4907 59.8506C19.0171 59.3109 19.7136 58.7239 20.4319 58.9413C21.2273 59.1726 21.445 60.2143 21.3203 61.0326C21.1422 62.1218 20.6317 63.1417 20.4398 64.221C20.2458 65.3102 20.4774 66.6069 21.4291 67.1722C21.8763 67.441 22.4185 67.5043 22.9211 67.6505C24.9988 68.2594 26.376 70.6373 25.8654 72.7464C25.5785 73.9581 24.7752 74.9781 24.235 76.1048C23.6849 77.2256 23.4296 78.6607 24.1796 79.6569C25.0146 80.754 26.653 80.8073 27.7591 81.6257C29.5597 82.9461 29.3658 85.6186 29.259 87.8503C28.98 93.5391 30.4719 99.145 31.9481 104.652C32.3577 106.164 32.791 107.732 33.8338 108.906C35.7828 111.098 39.121 111.183 42.0515 111.106C42.4294 111.098 42.8153 111.09 43.1477 110.914C43.4722 110.75 43.7057 110.45 43.8976 110.149C45.5993 107.469 44.9721 103.972 43.9748 100.96C42.0198 95.0533 38.8439 89.5324 37.5439 83.4403C37.2352 81.9973 37.0274 80.5148 36.5466 79.1173C35.9906 77.4865 35.0863 76.0119 34.3067 74.476C32.5971 71.1315 31.5068 67.4806 31.0913 63.7585C30.9983 62.8788 31.3445 61.6039 32.2112 61.8055C32.5357 61.8826 32.7673 62.1751 32.9374 62.4697C34.2513 64.6242 34.1286 67.3185 34.3977 69.8269C34.6609 72.3372 35.6582 75.156 38.0307 76.0198C39.5543 76.5753 41.4855 76.259 42.5837 77.449C42.8786 77.7652 43.1338 78.206 43.5652 78.2594C43.8897 78.3128 44.2004 78.1131 44.4477 77.8878C45.8605 76.5911 45.9238 74.391 45.6369 72.4835C45.352 70.584 44.8335 68.5993 45.4509 66.7768C45.5756 66.3914 45.7754 66.0059 46.1158 65.7806C46.6797 65.411 47.485 65.6264 47.9639 66.1068C48.4348 66.593 48.6525 67.271 48.791 67.9273C49.5409 71.4497 48.7296 75.0789 48.1637 78.6369C47.5998 82.189 47.3228 86.0199 49.0146 89.2003C49.7408 90.5524 50.7994 91.7483 51.2486 93.215C52.0994 95.9882 50.5758 99.1371 51.6344 101.841C52.2538 103.409 53.6765 104.636 53.9317 106.303C54.3552 109.129 51.211 111.778 52.1212 114.488C53.0967 117.408 57.7111 117.344 59.2328 120.017C59.8521 121.09 58.9933 121.284 57.8259 121.677C56.6525 122.071 55.2753 122.025 54.3473 122.843C53.0195 124.002 53.4588 126.239 54.5491 127.623C55.6473 129.005 57.2303 129.932 58.3126 131.321C59.4029 132.711 59.8046 134.958 58.4611 136.101C58.1286 136.378 57.7249 136.564 57.3708 136.819C56.1341 137.738 55.8175 139.675 56.6901 140.934C57.1393 141.574 57.8041 142.015 58.3126 142.602C58.8231 143.189 59.1556 144.061 58.7697 144.733C58.3047 145.552 57.0918 145.583 56.4348 146.261C55.3604 147.342 56.1637 149.521 54.9666 150.454C54.4482 150.863 53.722 150.871 53.1501 151.187C52.0381 151.798 51.9055 153.612 52.9107 154.377C54.8281 155.82 57.5489 152.988 59.8125 153.767C61.5597 154.377 62.3413 156.933 64.1796 156.941C64.698 156.941 65.2006 156.724 65.7111 156.763C67.4504 156.894 67.674 159.373 68.8019 160.685C69.5973 161.612 70.9666 162.045 71.4217 163.172C71.956 164.508 70.8894 165.998 71.121 167.418C71.3762 169.048 73.1848 169.966 73.81 171.495C74.1049 172.221 74.1128 173.047 74.4294 173.765C75.1714 175.502 77.3282 176.097 79.2139 176.137C80.7297 176.166 82.2434 175.975 83.6978 175.565C86.2009 172.901 90.0119 171.025 93.6686 171.078C94.1078 171.086 94.557 171.148 94.935 171.357C98.3364 169.349 101.204 166.445 103.145 163.01C105.379 159.048 106.831 153.984 111.052 152.26C116.113 150.193 121.794 154.385 127.174 153.419C128.635 153.158 130.228 152.531 131.534 153.235C132.988 154.022 133.227 155.937 133.906 157.427C136.033 162.083 142.363 162.515 147.472 162.253C151.701 162.037 156.206 161.721 159.576 159.173C160.852 158.214 162.182 156.886 163.743 157.188C165.651 158.918 164.291 162.3 165.605 164.516C166.672 166.299 169.052 166.692 170.815 167.805C173.488 169.503 174.634 172.8 176.837 175.077C180.076 178.445 185.23 179.187 189.884 178.754C196.994 178.09 203.85 175.071 209.169 170.321C209.121 170.276 209.076 170.228 209.028 170.183Z" fill="#F7F7F7" stroke="#5E5959" stroke-width="0.7515" stroke-miterlimit="10" stroke-linecap="round" stroke-linejoin="round"/>
</svg>
