<svg width="56" height="64" viewBox="0 0 56 64" fill="none" xmlns="http://www.w3.org/2000/svg">
<path d="M29.691 4.9204C28.4167 5.61422 27.1404 6.31001 25.8661 7.01173C24.7145 7.63833 23.4857 8.34003 22.906 9.52999C21.7385 11.9238 23.5866 15.4522 21.5228 17.1422C19.8448 18.5239 17.3398 17.1205 15.7865 15.5984C14.2253 14.0843 12.2624 12.2618 10.1986 12.9418C9.24679 13.2501 8.54437 14.0467 7.93294 14.8335C6.58938 16.5868 5.43776 18.603 5.30518 20.803C5.17458 23.0031 6.32618 25.4047 8.40582 26.1381C10.4459 26.8635 13.2122 26.0768 14.4964 27.8143C15.8557 29.6664 13.9166 32.2144 11.837 33.181C9.75731 34.1456 7.19883 34.6556 6.03138 36.6323C3.51246 40.9098 10.159 46.8478 7.183 50.8229C5.34477 49.1012 2.06004 50.8999 1.47236 53.349C0.892592 55.7962 2.06003 58.2907 3.21957 60.5224C3.61334 61.2775 4.03878 62.0741 4.74915 62.5525C5.56043 63.1 6.6032 63.1396 7.58662 63.1613C12.3771 63.278 17.9275 63.0388 20.8263 59.2238C22.2866 57.3024 22.7516 54.8237 23.2305 52.4596C23.7172 50.0895 24.3267 47.6108 25.9967 45.8654C27.6747 44.1219 30.7437 43.4795 32.4909 45.1557C32.9994 45.6499 33.3557 46.2824 33.8108 46.8319C35.2414 48.5457 37.784 49.2336 39.8874 48.4607C41.9809 47.6958 43.4808 45.5273 43.465 43.2957C46.063 43.2482 49.1934 42.0602 49.4565 39.4807C49.5713 38.3757 49.1004 37.3024 48.9698 36.2073C48.76 34.4856 49.3715 32.7778 49.973 31.1569C51.3502 27.4585 52.7175 23.768 54.0868 20.0697C54.8664 17.9605 55.6322 15.5371 54.5577 13.5604C53.598 11.7913 51.4966 11.0343 49.9591 9.72966C47.0682 7.28253 47.9171 2.8508 44.3158 1.26748C39.8558 -0.701294 33.4724 2.85872 29.691 4.9204Z" fill="#F7F7F7" stroke="#5E5959" stroke-width="0.7515" stroke-miterlimit="10" stroke-linecap="round" stroke-linejoin="round"/>
</svg>
