<svg width="56" height="64" viewBox="0 0 56 64" fill="none" xmlns="http://www.w3.org/2000/svg">
<path d="M29.691 5.33153C28.4167 6.02535 27.1404 6.72114 25.8661 7.42286C24.7145 8.04947 23.4857 8.75116 22.906 9.94112C21.7385 12.3349 23.5866 15.8633 21.5228 17.5533C19.8448 18.935 17.3398 17.5316 15.7865 16.0095C14.2253 14.4954 12.2624 12.6729 10.1986 13.3529C9.24679 13.6613 8.54437 14.4579 7.93294 15.2446C6.58938 16.9979 5.43776 19.0141 5.30518 21.2141C5.17458 23.4142 6.32618 25.8159 8.40582 26.5492C10.4459 27.2747 13.2122 26.4879 14.4964 28.2254C15.8557 30.0776 13.9166 32.6255 11.837 33.5921C9.75731 34.5567 7.19883 35.0667 6.03138 37.0434C3.51246 41.3209 10.159 47.2589 7.183 51.234C5.34477 49.5123 2.06004 51.3111 1.47236 53.7602C0.892592 56.2073 2.06003 58.7019 3.21957 60.9336C3.61334 61.6886 4.03878 62.4853 4.74915 62.9636C5.56043 63.5112 6.6032 63.5507 7.58662 63.5725C12.3771 63.6891 17.9275 63.4499 20.8263 59.6349C22.2866 57.7136 22.7516 55.2348 23.2305 52.8707C23.7172 50.5007 24.3267 48.0219 25.9967 46.2765C27.6747 44.5331 30.7437 43.8906 32.4909 45.5669C32.9994 46.061 33.3557 46.6936 33.8108 47.2431C35.2414 48.9569 37.784 49.6447 39.8874 48.8719C41.9809 48.1069 43.4808 45.9385 43.465 43.7068C46.063 43.6593 49.1934 42.4714 49.4565 39.8918C49.5713 38.7868 49.1004 37.7135 48.9698 36.6184C48.76 34.8967 49.3715 33.1889 49.973 31.568C51.3502 27.8696 52.7175 24.1792 54.0868 20.4808C54.8664 18.3717 55.6322 15.9483 54.5577 13.9716C53.598 12.2024 51.4966 11.4454 49.9591 10.1408C47.0682 7.69366 47.9171 3.26193 44.3158 1.67861C39.8558 -0.290161 33.4724 3.26986 29.691 5.33153Z" fill="#FFC5C7" stroke="#5E5959" stroke-width="0.7515" stroke-miterlimit="10" stroke-linecap="round" stroke-linejoin="round"/>
</svg>
