<svg width="40" height="52" viewBox="0 0 40 52" fill="none" xmlns="http://www.w3.org/2000/svg">
<path d="M11.7647 11.0703C10.0412 12.4223 7.4748 11.9203 5.54158 12.9382C3.16908 14.1737 2.47455 17.1782 2.04121 19.8191C1.58413 22.5746 1.12112 25.3241 0.666011 28.0816C0.325669 30.1433 0.0466702 32.4738 1.32295 34.1263C1.87897 34.8379 2.6744 35.3459 3.23833 36.0575C4.36027 37.5005 4.3128 39.493 4.58389 41.3076C5.20323 45.4764 7.87649 49.2993 11.5945 51.3076C13.4031 49.1827 13.2646 46.0793 13.2646 43.2922C13.2646 40.4971 13.7671 37.2534 16.1852 35.848C18.7832 39.4554 20.6927 43.5551 21.7592 47.8622C22.0145 48.8822 22.3766 50.086 23.3818 50.3805C24.5097 50.7047 25.5545 49.6077 25.9799 48.5185C26.4112 47.4313 26.5893 46.1722 27.4323 45.3617C28.1822 44.6363 29.2943 44.4426 30.1768 43.8871C32.0862 42.6734 32.5097 40.1571 33.0518 37.7871C32.5868 37.4392 32.2168 37.0063 32.0546 36.3817C31.7538 35.1759 32.4325 33.9642 32.8045 32.7762C33.2675 31.2621 33.2438 29.6333 33.5703 28.0895C34.2035 25.1462 36.0734 22.6596 37.4427 19.9812C38.81 17.3087 39.6529 13.9899 38.1847 11.3727C37.8523 10.7857 37.3101 10.2065 36.6452 10.2282C35.0227 10.2915 35.4936 12.8849 34.6981 14.2903C33.7622 15.9112 31.1107 15.4249 29.9373 13.9661C28.762 12.5073 28.4909 10.5385 27.7884 8.80104C27.084 7.06355 25.4911 5.34976 23.645 5.67393C21.8364 5.99811 19.9586 8.12108 18.6131 6.87775C17.964 6.27486 18.0254 5.26479 17.8869 4.39109C17.7009 3.22485 17.0756 2.22268 16.3949 1.23434C15.3581 2.73068 14.5468 4.38318 14.0442 6.1365C13.5337 7.91353 13.225 9.93568 11.7647 11.0703Z" fill="#FFC5C7" stroke="#5E5959" stroke-width="0.7515" stroke-miterlimit="10" stroke-linecap="round" stroke-linejoin="round"/>
</svg>
