<svg width="40" height="52" viewBox="0 0 40 52" fill="none" xmlns="http://www.w3.org/2000/svg">
<path d="M11.7647 10.6592C10.0413 12.0112 7.47486 11.5091 5.54164 12.5271C3.16914 13.7625 2.47461 16.7671 2.04127 19.4079C1.58419 22.1634 1.12118 24.913 0.666072 27.6705C0.32573 29.7322 0.0467313 32.0627 1.32301 33.7152C1.87903 34.4268 2.67446 34.9348 3.2384 35.6464C4.36033 37.0893 4.31286 39.0819 4.58395 40.8964C5.20329 45.0653 7.87655 48.8882 11.5946 50.8965C13.4031 48.7716 13.2646 45.6681 13.2646 42.881C13.2646 40.086 13.7672 36.8423 16.1852 35.4369C18.7833 39.0443 20.6928 43.1439 21.7593 47.4511C22.0146 48.4711 22.3767 49.6749 23.3819 49.9694C24.5097 50.2936 25.5545 49.1965 25.9799 48.1074C26.4113 47.0202 26.5894 45.761 27.4323 44.9506C28.1823 44.2252 29.2943 44.0314 30.1768 43.476C32.0863 42.2623 32.5097 39.746 33.0519 37.376C32.5869 37.0281 32.2169 36.5952 32.0546 35.9705C31.7539 34.7648 32.4326 33.5531 32.8046 32.3651C33.2676 30.851 33.2439 29.2222 33.5704 27.6784C34.2035 24.7351 36.0734 22.2484 37.4427 19.57C38.81 16.8976 39.653 13.5787 38.1847 10.9616C37.8523 10.3745 37.3102 9.79533 36.6453 9.81708C35.0227 9.88033 35.4937 12.4738 34.6982 13.8792C33.7623 15.5 31.1108 15.0138 29.9374 13.555C28.762 12.0962 28.491 10.1274 27.7885 8.38991C27.0841 6.65241 25.4912 4.93863 23.645 5.2628C21.8365 5.58698 19.9587 7.70995 18.6131 6.46662C17.9641 5.86373 18.0254 4.85366 17.8869 3.97996C17.7009 2.81372 17.0756 1.81154 16.395 0.823204C15.3581 2.31955 14.5469 3.97205 14.0443 5.72536C13.5337 7.5024 13.2251 9.52455 11.7647 10.6592Z" fill="#F7F7F7" stroke="#5E5959" stroke-width="0.7515" stroke-miterlimit="10" stroke-linecap="round" stroke-linejoin="round"/>
</svg>
