<svg width="316" height="267" viewBox="0 0 316 267" fill="none" xmlns="http://www.w3.org/2000/svg">
<path d="M102.94 248.033C106.698 249.646 112.525 247.215 116.281 246.458C118.485 246.017 120.826 245.509 122.379 243.894C124.328 241.88 124.475 238.814 125.015 236.064C125.549 233.317 127.142 230.227 129.932 230.004C132.916 229.765 134.932 232.852 136.401 235.455C137.877 238.057 140.398 240.953 143.257 240.073C145.22 239.462 146.195 237.355 147.424 235.718C148.661 234.08 151.15 232.775 152.634 234.188C153.182 234.706 153.507 235.54 154.233 235.74C155.701 236.149 156.188 233.848 157.201 232.706C158.539 231.178 161.097 231.85 162.704 233.091C164.305 234.335 165.65 236.072 167.605 236.606C170.148 237.3 172.698 235.724 174.863 234.22C176.858 235.046 175.898 238.165 174.236 239.539C172.576 240.913 170.286 242.234 170.358 244.388C170.435 247.223 174.406 248.009 177.158 247.26C179.903 246.519 183.049 245.206 185.36 246.859C187.076 248.086 187.616 250.581 189.472 251.577C192.124 252.998 195.169 250.458 198.175 250.31C202.526 250.095 205.432 254.744 209.437 256.45C213.055 257.994 217.43 257.053 220.9 258.897C223.103 260.071 224.602 262.194 226.403 263.932C228.196 265.669 230.715 267.112 233.103 266.371C235.84 263.477 237.161 259.314 236.605 255.369C236.398 253.878 235.948 252.287 236.613 250.937C237.379 249.369 239.358 248.79 241.097 248.899C245.023 249.146 248.563 252.342 249.22 256.211C249.459 257.632 249.414 259.253 250.433 260.265C252.706 262.51 256.044 259.184 258.975 257.901C263.882 255.762 269.64 260.024 274.773 258.504C277.896 257.576 280.416 254.588 283.662 254.789C289.151 255.114 291.491 264.04 296.949 263.469C300.675 263.074 302.159 258.626 303.874 255.299C306.14 250.905 310.228 247.539 314.896 245.948C314.819 245.841 314.734 245.74 314.664 245.624C311.441 240.613 315.824 233.293 312.678 228.243C312.09 227.294 311.271 226.499 310.8 225.495C310.382 224.584 310.268 223.548 309.818 222.645C308.89 220.785 306.749 219.905 305.22 218.484C303.898 217.272 303.01 215.596 302.738 213.827C302.406 211.674 302.885 209.195 301.494 207.527C300.566 206.422 299.09 206.013 297.829 205.333C295.744 204.214 294.143 202.229 293.494 199.96C293.247 199.094 293.13 198.199 292.805 197.365C291.941 195.103 289.752 193.698 288.029 191.998C284.784 188.794 283.005 184.155 283.299 179.606C283.353 178.695 283.491 177.784 283.299 176.896C282.89 175.02 281.158 173.777 279.566 172.718C277.611 171.413 276.643 169.8 275.377 167.823C274.696 166.766 274.063 165.546 274.302 164.317C274.457 163.554 274.935 162.882 275.137 162.125C275.778 159.707 273.831 158.248 272.424 156.742C270.723 154.927 269.432 152.836 267.563 151.136C265.916 149.654 264.076 148.396 262.467 146.867C258.092 142.714 255.736 136.845 251.632 132.429C249.475 130.112 246.723 127.973 246.135 124.868C245.943 123.834 246.004 122.745 245.64 121.757C245.316 120.877 244.675 120.152 244.057 119.448C238.653 113.303 233.507 106.924 228.366 100.555C226.728 98.5229 225.058 96.4394 224.193 93.9765C223.536 92.1145 223.35 90.0607 222.299 88.3845C221.294 86.7715 219.616 85.7219 218.172 84.4865C213.781 80.7565 215.326 75.198 213.704 70.2781C212.876 67.7459 211.307 65.5301 209.946 63.2372C205.557 55.8009 203.315 47.2695 198.871 39.8708C197.401 37.4316 195.693 35.0912 194.866 32.3673C194.278 30.444 194.172 28.3902 193.422 26.5223C192.517 24.2748 190.762 22.4602 189.773 20.2522C188.358 17.1014 188.597 13.3556 186.914 10.3372C185.722 8.19846 183.635 6.56967 182.879 4.24509C182.568 3.27255 182.454 2.14584 181.672 1.48169C180.831 0.762177 179.515 0.924255 178.55 1.47375C175.914 2.97009 175.281 6.49255 175.459 9.51886C175.635 12.5452 176.323 15.696 175.233 18.5226C173.34 23.4485 173.371 28.3981 170.272 32.6678C167.172 36.9374 163.06 40.359 158.879 43.5771C157.326 44.767 155.749 45.9491 153.978 46.7971C151.566 47.9475 148.845 48.4654 146.635 49.9637C145.669 50.6121 144.826 51.4383 143.799 51.9859C142.576 52.6342 141.177 52.8438 139.802 52.9821C135.637 53.4071 131.408 53.2608 127.289 52.5512C124.706 52.1104 122.094 51.4462 119.496 51.7941C117.496 52.063 115.624 52.9288 113.685 53.5237C111.752 54.1108 109.589 54.4113 107.749 53.5771C106.751 53.1225 105.924 52.3733 104.967 51.8633C102.762 50.6971 100.127 50.8671 97.6393 51.0746C95.7298 51.2367 93.8124 51.3929 91.8951 51.5549C86.6851 50.9837 81.9242 50.9363 76.7143 50.365C74.8048 50.1574 72.7805 49.9716 71.0412 50.7979C68.8231 51.8633 67.0838 54.5338 64.6638 54.0871C63.8604 53.9408 63.1738 53.4466 62.4852 53.0058C57.3365 49.7087 50.6821 48.8825 44.8765 50.7979C43.7249 51.1833 42.597 51.6696 41.3999 51.8159C37.6502 52.2883 33.7402 49.4537 30.2616 50.9283C28.2829 51.7625 26.9294 53.8637 24.828 54.2788C23.0333 54.6425 21.2643 53.6779 19.4478 53.4684C15.9376 53.0671 12.7934 55.4846 10.0944 57.7617C7.01944 60.3492 3.95046 62.9426 0.873535 65.5301C1.69273 66.3721 2.34176 67.4376 2.81467 68.503C3.69521 70.5093 3.92672 72.2943 4.46889 74.3481C5.03283 76.5026 7.70609 76.556 9.19805 77.7381C11.5409 79.606 12.2908 82.664 14.2854 84.7869C15.3974 85.9848 17.02 86.7794 18.6445 86.6094C24.8359 85.9611 18.8146 78.5406 21.6897 75.1427C24.8814 75.5756 25.1743 81.134 28.36 81.5906C30.1983 81.8456 31.6685 80.1694 32.8656 78.7561C34.0726 77.3368 35.9584 75.8997 37.6185 76.7418C37.0328 78.6493 36.4451 80.5548 35.8654 82.4702C35.6022 83.3281 35.347 84.2848 35.7407 85.0874C36.0435 85.6824 36.6371 86.054 37.203 86.3999C38.8948 87.4357 40.5945 88.4774 42.2883 89.5132C42.6979 89.7602 43.1312 90.0231 43.618 90.0291C45.5572 90.0607 45.4642 86.6786 47.2114 85.8227C48.2008 85.3344 49.4454 85.9215 50.0647 86.8328C50.69 87.744 50.8443 88.8786 50.9749 89.9757C52.0573 88.9182 53.203 87.8211 54.6475 87.3744C56.0919 86.9257 57.9401 87.3586 58.597 88.7166C58.9453 89.4499 58.9057 90.2999 58.8364 91.1024C58.597 93.682 58.0865 96.2774 58.504 98.8332C58.9215 101.389 60.5441 103.967 63.065 104.546C64.8043 104.947 66.597 104.346 68.3739 104.23C70.1528 104.113 72.2937 104.801 72.7192 106.53C73.2059 108.507 71.2886 111.095 72.8814 112.36C73.3919 112.761 74.0786 112.816 74.7197 112.909C78.7701 113.496 82.5891 117.341 81.6769 121.324C81.012 124.22 78.2675 126.09 75.7407 127.671C73.4375 129.1 71.1421 130.537 68.8468 131.972C68.0573 134.929 70.6 137.772 70.7484 140.83C70.9106 144.212 64.6499 149.409 67.2381 152.18C68.2512 151.901 69.2861 151.624 70.3388 151.723C71.3816 151.832 72.4481 152.395 72.8419 153.362C73.2218 154.295 72.919 155.345 72.6183 156.311C72.0919 157.964 68.7776 164.827 69.5275 166.28C70.879 168.873 74.2408 165.7 75.9722 164.943C78.5624 163.817 81.6393 164.441 84.0652 165.87C86.501 167.305 88.4085 169.452 90.2725 171.561C92.4214 173.993 94.3447 174.24 97.5918 174.386C100.831 174.532 104.224 174.216 107.185 175.544C109.433 176.548 111.358 179.29 110.052 181.366C108.714 183.506 105.275 183.066 103.512 184.856C102.161 186.23 102.238 188.501 102.956 190.292C103.674 192.083 104.903 193.629 105.677 195.404C107.292 199.142 106.557 203.781 103.853 206.831C102.794 208.021 101.456 209.002 100.738 210.423C99.3074 213.279 100.855 216.63 101.395 219.78C102.182 224.382 100.275 229.68 96.0543 231.68C97.2989 231.093 97.2297 233.317 96.8181 235.78C98.8978 239.516 99.2915 246.458 102.94 248.033Z" fill="#FFC5C7" stroke="#5E5959" stroke-width="0.7515" stroke-miterlimit="10" stroke-linecap="round" stroke-linejoin="round"/>
</svg>
