<svg width="316" height="267" viewBox="0 0 316 267" fill="none" xmlns="http://www.w3.org/2000/svg">
<path d="M102.94 247.622C106.698 249.235 112.525 246.804 116.281 246.047C118.485 245.606 120.826 245.098 122.38 243.483C124.329 241.469 124.475 238.403 125.015 235.653C125.549 232.906 127.142 229.816 129.932 229.593C132.916 229.353 134.933 232.441 136.401 235.044C137.877 237.646 140.398 240.541 143.257 239.662C145.22 239.051 146.195 236.944 147.424 235.307C148.661 233.669 151.15 232.364 152.634 233.777C153.182 234.295 153.507 235.129 154.233 235.329C155.701 235.738 156.188 233.437 157.201 232.295C158.539 230.767 161.097 231.439 162.704 232.68C164.305 233.924 165.65 235.661 167.605 236.195C170.148 236.889 172.699 235.313 174.863 233.809C176.858 234.635 175.898 237.754 174.236 239.128C172.576 240.502 170.286 241.822 170.358 243.977C170.435 246.812 174.406 247.598 177.159 246.849C179.903 246.108 183.049 244.795 185.36 246.448C187.076 247.675 187.616 250.17 189.472 251.166C192.124 252.587 195.169 250.047 198.175 249.899C202.526 249.684 205.433 254.333 209.438 256.039C213.055 257.582 217.43 256.642 220.9 258.486C223.103 259.66 224.603 261.783 226.403 263.52C228.196 265.258 230.715 266.701 233.103 265.96C235.84 263.066 237.162 258.903 236.606 254.957C236.398 253.467 235.949 251.876 236.613 250.526C237.379 248.958 239.358 248.379 241.097 248.488C245.023 248.735 248.563 251.931 249.22 255.799C249.459 257.221 249.414 258.842 250.433 259.854C252.707 262.099 256.045 258.772 258.975 257.49C263.882 255.351 269.64 259.612 274.773 258.092C277.896 257.165 280.417 254.177 283.662 254.378C289.151 254.702 291.492 263.629 296.949 263.058C300.675 262.663 302.159 258.215 303.874 254.888C306.14 250.494 310.228 247.128 314.896 245.537C314.819 245.43 314.734 245.329 314.664 245.212C311.441 240.201 315.824 232.882 312.678 227.831C312.09 226.883 311.271 226.088 310.8 225.084C310.383 224.173 310.268 223.137 309.819 222.233C308.891 220.373 306.75 219.494 305.22 218.073C303.898 216.861 303.01 215.185 302.739 213.415C302.406 211.263 302.885 208.784 301.494 207.116C300.566 206.011 299.09 205.602 297.829 204.922C295.744 203.803 294.143 201.818 293.494 199.549C293.247 198.683 293.13 197.788 292.805 196.954C291.941 194.692 289.752 193.287 288.029 191.587C284.784 188.383 283.005 183.744 283.3 179.195C283.353 178.284 283.492 177.373 283.3 176.485C282.89 174.609 281.159 173.366 279.566 172.306C277.611 171.002 276.643 169.389 275.377 167.412C274.696 166.355 274.063 165.135 274.302 163.906C274.457 163.143 274.936 162.47 275.137 161.713C275.778 159.296 273.831 157.837 272.425 156.331C270.723 154.516 269.433 152.425 267.563 150.725C265.916 149.243 264.076 147.985 262.468 146.455C258.093 142.302 255.736 136.434 251.632 132.018C249.475 129.701 246.723 127.562 246.135 124.457C245.943 123.423 246.005 122.334 245.64 121.346C245.316 120.466 244.675 119.741 244.057 119.037C238.654 112.891 233.507 106.513 228.366 100.144C226.728 98.1117 225.058 96.0283 224.193 93.5654C223.536 91.7033 223.35 89.6496 222.299 87.9733C221.294 86.3604 219.616 85.3108 218.172 84.0753C213.781 80.3453 215.326 74.7869 213.704 69.8669C212.877 67.3348 211.308 65.119 209.946 62.826C205.557 55.3897 203.315 46.8584 198.871 39.4597C197.401 37.0204 195.693 34.6801 194.866 31.9562C194.279 30.0329 194.172 27.9791 193.422 26.1111C192.518 23.8636 190.762 22.0491 189.773 19.8411C188.358 16.6903 188.598 12.9445 186.914 9.92609C185.723 7.78732 183.635 6.15854 182.879 3.83395C182.568 2.86142 182.454 1.73471 181.672 1.07056C180.831 0.351044 179.515 0.513123 178.55 1.06262C175.914 2.55896 175.281 6.08142 175.459 9.10773C175.635 12.134 176.324 15.2849 175.233 18.1115C173.34 23.0374 173.371 27.987 170.273 32.2566C167.172 36.5263 163.06 39.9479 158.879 43.1659C157.326 44.3559 155.749 45.538 153.978 46.386C151.566 47.5364 148.845 48.0543 146.635 49.5526C145.669 50.2009 144.826 51.0272 143.799 51.5747C142.576 52.2231 141.177 52.4326 139.802 52.571C135.637 52.996 131.408 52.8497 127.289 52.1401C124.707 51.6993 122.095 51.0351 119.497 51.383C117.496 51.6518 115.624 52.5176 113.685 53.1126C111.752 53.6997 109.589 54.0001 107.749 53.166C106.752 52.7113 105.924 51.9622 104.967 51.4522C102.762 50.2859 100.127 50.4559 97.6395 50.6635C95.73 50.8256 93.8126 50.9817 91.8952 51.1438C86.6852 50.5726 81.9244 50.5251 76.7144 49.9539C74.805 49.7463 72.7807 49.5605 71.0414 50.3867C68.8233 51.4522 67.0839 54.1227 64.664 53.6759C63.8606 53.5297 63.174 53.0355 62.4854 52.5947C57.3367 49.2976 50.6823 48.4713 44.8767 50.3867C43.725 50.7722 42.5972 51.2585 41.4001 51.4048C37.6504 51.8772 33.7404 49.0426 30.2618 50.5172C28.283 51.3514 26.9296 53.4526 24.8282 53.8677C23.0335 54.2314 21.2645 53.2668 19.448 53.0573C15.9378 52.656 12.7936 55.0735 10.0946 57.3506C7.01963 59.9381 3.95064 62.5315 0.873718 65.119C1.69291 65.961 2.34194 67.0264 2.81486 68.0919C3.69539 70.0982 3.9269 71.8831 4.46907 73.9369C5.03301 76.0915 7.70627 76.1449 9.19823 77.3269C11.541 79.1949 12.291 82.2528 14.2855 84.3758C15.3976 85.5737 17.0201 86.3683 18.6447 86.1983C24.8361 85.5499 18.8148 78.1295 21.6899 74.7316C24.8816 75.1644 25.1745 80.7229 28.3602 81.1795C30.1985 81.4345 31.6687 79.7583 32.8658 78.3449C34.0728 76.9257 35.9585 75.4886 37.6187 76.3307C37.033 78.2382 36.4453 80.1437 35.8655 82.0591C35.6024 82.917 35.3471 83.8737 35.7409 84.6762C36.0436 85.2712 36.6373 85.6428 37.2032 85.9888C38.895 87.0245 40.5947 88.0663 42.2885 89.102C42.6981 89.3491 43.1314 89.612 43.6182 89.618C45.5574 89.6496 45.4644 86.2675 47.2116 85.4116C48.2009 84.9233 49.4456 85.5104 50.0649 86.4216C50.6902 87.3329 50.8445 88.4675 50.9751 89.5646C52.0575 88.507 53.2032 87.41 54.6476 86.9633C56.0921 86.5146 57.9402 86.9474 58.5972 88.3054C58.9454 89.0388 58.9059 89.8887 58.8366 90.6913C58.5972 93.2708 58.0867 95.8662 58.5042 98.4221C58.9217 100.978 60.5442 103.556 63.0651 104.135C64.8044 104.536 66.5972 103.935 68.3741 103.818C70.1529 103.702 72.2939 104.39 72.7194 106.119C73.2061 108.096 71.2887 110.683 72.8816 111.949C73.3921 112.35 74.0788 112.405 74.7199 112.498C78.7703 113.085 82.5893 116.93 81.6771 120.913C81.0122 123.809 78.2677 125.679 75.7409 127.26C73.4377 128.689 71.1423 130.126 68.847 131.561C68.0575 134.518 70.6001 137.361 70.7485 140.419C70.9108 143.801 64.6501 148.997 67.2383 151.769C68.2514 151.49 69.2863 151.213 70.339 151.312C71.3818 151.421 72.4483 151.984 72.8421 152.951C73.222 153.884 72.9192 154.933 72.6185 155.9C72.0921 157.553 68.7777 164.416 69.5277 165.868C70.8792 168.462 74.241 165.289 75.9724 164.532C78.5626 163.405 81.6395 164.03 84.0654 165.459C86.5012 166.894 88.4087 169.041 90.2727 171.15C92.4216 173.581 94.3449 173.828 97.592 173.975C100.831 174.121 104.225 173.805 107.185 175.133C109.433 176.137 111.358 178.879 110.052 180.954C108.714 183.095 105.275 182.654 103.512 184.445C102.161 185.819 102.238 188.09 102.956 189.881C103.675 191.672 104.903 193.218 105.677 194.993C107.292 198.731 106.558 203.37 103.853 206.42C102.794 207.61 101.456 208.59 100.738 210.012C99.3075 212.868 100.855 216.218 101.395 219.369C102.183 223.971 100.275 229.268 96.0545 231.269C97.2991 230.682 97.2299 232.906 96.8183 235.368C98.8979 239.104 99.2917 246.047 102.94 247.622Z" fill="#F7F7F7" stroke="#5E5959" stroke-width="0.7515" stroke-miterlimit="10" stroke-linecap="round" stroke-linejoin="round"/>
</svg>
