<svg width="50" height="34" viewBox="0 0 50 34" fill="none" xmlns="http://www.w3.org/2000/svg">
<path d="M30.8814 1.59452C27.8737 2.55123 25.6318 5.5558 22.4797 5.77126C19.8044 5.94916 17.432 4.01795 14.7726 3.70168C12.2536 3.39332 9.74063 4.58922 7.88656 6.31881C6.03051 8.0405 4.71664 10.2563 3.43442 12.4426C2.46682 14.0872 1.47746 15.7851 1.23803 17.6689C0.990688 19.5606 1.68721 21.7072 3.3711 22.5968C5.32807 23.6306 7.69264 22.6739 9.89497 22.7035C12.8868 22.7431 15.7461 24.8581 16.6444 27.7144C17.0461 28.9973 17.1154 30.4323 17.9425 31.4918C19.2326 33.1503 21.8227 33.0969 23.7382 32.241C25.6555 31.3752 27.2484 29.9085 29.1737 29.0585C33.9583 26.9593 39.6234 29.1198 44.6712 27.7776C49.3231 26.5501 48.5198 23.3835 48.9294 19.523C49.153 17.3684 50.2353 14.4568 48.6583 12.6896C47.6689 11.5847 45.0491 12.2726 43.7669 10.0409C41.1767 5.52418 37.336 -0.445415 30.8814 1.59452Z" fill="#F7F7F7" stroke="#5E5959" stroke-width="0.7515" stroke-miterlimit="10" stroke-linecap="round" stroke-linejoin="round"/>
</svg>
