<svg width="50" height="33" viewBox="0 0 50 33" fill="none" xmlns="http://www.w3.org/2000/svg">
<path d="M30.8813 1.00565C27.8736 1.96236 25.6317 4.96693 22.4796 5.18239C19.8044 5.36029 17.4319 3.42908 14.7725 3.11281C12.2536 2.80445 9.74057 4.00035 7.8865 5.72995C6.03045 7.45164 4.71657 9.66748 3.43436 11.8537C2.46676 13.4983 1.47739 15.1963 1.23797 17.0801C0.990627 18.9717 1.68715 21.1184 3.37104 22.0079C5.32801 23.0417 7.69258 22.085 9.89491 22.1147C12.8867 22.1542 15.746 24.2692 16.6444 27.1256C17.0461 28.4084 17.1153 29.8434 17.9424 30.903C19.2325 32.5614 21.8227 32.508 23.7381 31.6521C25.6555 30.7863 27.2484 29.3197 29.1737 28.4697C33.9582 26.3704 39.6234 28.5309 44.6711 27.1888C49.3231 25.9613 48.5197 22.7946 48.9293 18.9342C49.1529 16.7796 50.2353 13.8679 48.6582 12.1008C47.6689 10.9958 45.049 11.6837 43.7668 9.45203C41.1767 4.93531 37.3359 -1.03428 30.8813 1.00565Z" fill="#FFC5C7" stroke="#5E5959" stroke-width="0.7515" stroke-miterlimit="10" stroke-linecap="round" stroke-linejoin="round"/>
</svg>
