<svg width="241" height="261" viewBox="0 0 241 261" fill="none" xmlns="http://www.w3.org/2000/svg">
<path d="M238.263 176.447C238.016 175.874 237.67 175.249 237.058 175.132C236.455 175.026 235.907 175.472 235.465 175.897C232.659 178.578 230.194 181.612 228.138 184.901C227.281 186.275 226.46 187.728 225.178 188.716C223.896 189.71 221.994 190.114 220.664 189.187C219.521 188.398 219.133 186.931 218.601 185.65C218.066 184.375 217.016 183.033 215.632 183.14C215.183 183.18 214.728 183.371 214.295 183.249C213.691 183.087 213.398 182.369 213.43 181.742C213.521 179.835 215.524 178.732 217.124 177.696C219.96 175.868 220.773 172.207 218.8 169.412C217.797 167.991 216.181 166.987 215.563 165.358C214.983 163.846 215.401 162.161 215.268 160.549C215.069 158.232 213.755 156.178 213.143 153.931C212.486 151.491 212.694 148.904 212.912 146.38C213.197 143.075 213.476 139.77 213.763 136.465C214.032 133.338 214.388 129.987 216.452 127.615C217.217 126.743 218.175 126.055 218.933 125.176C220.271 123.616 220.88 121.57 221.282 119.554C222.202 114.937 222.194 110.189 222.186 105.47C222.178 103.472 222.164 101.424 221.521 99.5323C220.827 97.4785 219.428 95.741 218.593 93.7426C217.75 91.7422 217.611 89.1626 219.172 87.6584C219.42 84.9543 219.412 82.685 221.09 80.5542C222.233 79.1013 223.91 78.1367 224.992 76.6463C226.63 74.4067 226.662 71.412 226.561 68.6328C226.407 64.4008 226.074 60.0461 224.181 56.2548C223.138 54.1774 221.654 52.3252 220.787 50.1548C220.122 48.4944 219.853 46.7035 219.59 44.9265C218.933 40.556 218.284 36.1559 218.244 31.7242C218.191 26.828 218.462 21.9634 218.747 17.1067C218.8 16.2192 218.856 15.3079 218.569 14.4659C218.244 13.4617 217.388 12.9833 216.614 12.3883C214.736 10.9375 213.329 9.52412 212.641 7.2628C212.17 5.68738 212.114 3.96573 211.319 2.52869C210.925 1.81116 210.377 1.20032 209.896 0.536163C205.228 2.12738 201.14 5.49367 198.875 9.88783C197.159 13.2146 195.675 17.6621 191.949 18.0575C186.492 18.6287 184.151 9.70204 178.662 9.37785C175.417 9.17624 172.896 12.165 169.773 13.092C164.641 14.6121 158.883 10.3504 153.983 12.4892C151.045 13.772 147.707 17.0988 145.433 14.8533C144.414 13.8412 144.452 12.2203 144.212 10.7991C143.563 6.93071 140.023 3.73447 136.097 3.48737C134.358 3.37866 132.379 3.95781 131.614 5.51741C130.949 6.8754 131.398 8.46661 131.606 9.95703C132.162 13.9025 130.84 18.0654 128.103 20.9592C125.715 21.7005 123.196 20.2575 121.403 18.52C119.911 17.077 118.598 15.3929 116.935 14.1891C115.914 15.2842 114.67 16.1737 113.249 16.6738C110.127 17.7708 105.805 17.8025 104.776 20.9454C104.483 21.8488 104.568 22.8371 104.444 23.778C103.888 28.0555 99.3742 30.4888 95.3851 32.163C91.398 33.8393 86.8449 36.0947 86.0415 40.3327C85.1828 44.9186 89.1482 50.2635 86.2572 53.9224C85.4915 54.8811 84.3794 55.4899 83.2654 55.9998C80.2973 57.3519 77.1056 58.2078 73.8585 58.5083C73.0255 58.5933 72.1192 58.617 71.4405 58.1307C70.6352 57.5595 70.4116 56.494 70.1108 55.5591C69.1373 52.517 66.5471 49.9393 63.4009 49.3661C57.9832 48.3718 55.3238 54.3019 50.2463 55.2902C48.3982 55.6441 46.5046 55.0431 44.6268 55.0273C42.4007 55.0115 35.7067 57.004 34.2147 58.7553C32.0737 61.2815 33.2411 67.9449 35.4989 70.0066C36.4407 70.8704 37.8476 72.0209 37.1294 73.0804C36.1934 74.4779 34.3552 72.5091 32.885 71.6967C31.1932 70.7637 29.1293 71.6196 27.2673 72.1217C25.4034 72.6237 22.8291 72.3391 22.3502 70.4692C22.2493 73.7742 19.1348 76.6779 15.8343 76.5613C14.93 76.5317 13.9881 76.3142 13.1452 76.6384C10.4778 77.6959 12.1321 81.9893 10.6559 84.4463C9.52015 86.3222 6.96165 86.5455 4.81275 86.9942C2.66385 87.441 0.182545 89.0934 0.738568 91.2085C1.46476 94.0114 6.05739 93.3018 7.88969 95.5493C8.79991 96.6681 8.87902 98.3898 10.0386 99.2556C10.8578 99.8644 11.9936 99.8565 12.8662 100.374C14.9003 101.564 14.4967 104.551 13.9169 106.83C12.1855 113.648 11.2357 120.667 11.1051 127.708C11.0655 129.693 11.0814 131.746 10.3077 133.577C9.40342 135.708 7.51767 137.352 6.88447 139.568C6.25722 141.792 8.20629 144.866 10.2998 143.885C11.1269 143.5 11.6057 142.61 12.3339 142.047C13.624 141.043 15.5414 141.228 16.9562 142.039C18.3769 142.849 19.4296 144.164 20.4803 145.421C21.4459 146.579 22.6747 147.823 24.1825 147.706C25.7893 147.583 26.9646 145.947 28.5654 145.785C30.5976 145.575 32.0124 147.753 32.6297 149.699C33.2412 151.646 33.7675 153.931 35.584 154.866C34.7568 156.649 32.6535 157.746 30.7064 157.398C29.5706 157.196 28.3101 156.595 27.3524 157.243C26.2542 158.001 26.6164 159.659 26.9409 160.95C27.3446 162.525 27.4989 164.199 27.026 165.751C26.462 167.597 25.071 169.072 24.2993 170.833C23.4405 172.794 23.3871 175.002 22.8291 177.064C22.2652 179.133 20.9137 181.256 18.8024 181.612C17.9298 181.758 17.0096 181.588 16.1667 181.867C15.4168 182.122 14.8212 182.715 14.281 183.294C12.8978 184.785 11.6136 186.352 10.4402 188.005C11.7838 189.232 13.0284 190.56 13.8556 192.175C15.1398 194.684 15.2169 198.042 13.26 200.082C12.2627 201.116 10.7786 201.796 10.284 203.146C9.8526 204.312 10.2918 205.641 10.4244 206.884C11.8926 207.269 13.2521 208.066 14.2414 209.23C14.7302 209.809 15.1615 210.489 15.8501 210.806C17.8605 211.741 19.9936 208.977 22.1563 209.463C24.143 209.91 24.507 212.506 25.5043 214.281C27.768 218.335 33.7121 218.088 38.0713 216.489C39.3554 216.018 40.9542 215.54 41.9297 216.489C43.5919 218.111 41.2253 221.754 43.2041 222.976C44.1776 223.585 45.539 222.998 46.5659 223.516C47.1694 223.824 47.5256 224.459 47.8501 225.052C51.1882 231.229 54.6213 238.301 52.4408 244.974C57.9377 250.201 68.1162 244.449 74.2305 248.942C75.6374 249.978 76.8504 251.561 78.5897 251.683C81.1026 251.869 82.6243 249.05 84.7574 247.714C87.5949 245.947 93.4143 246 96.6297 246.024C102.35 246.077 103.949 252.541 106.694 257.074C112.954 254.98 120.05 255.506 125.933 258.501C127.385 259.242 128.938 260.146 130.531 259.813C132.959 259.305 134.071 256.192 136.444 255.451C138.138 254.927 140.047 255.753 141.701 255.127C144.204 254.186 144.638 250.634 146.88 249.173C150.087 247.074 154.098 250.472 157.925 250.618C159.316 250.671 160.707 250.278 162.082 250.487C162.755 250.578 163.39 250.841 163.962 251.205C165.212 249.908 166.813 248.942 168.59 248.596C169.449 248.426 170.369 248.363 171.064 247.831C172.641 246.625 171.907 244.178 172.015 242.193C172.17 239.199 174.667 236.736 177.481 235.684C180.3 234.642 183.393 234.743 186.391 234.874C190.59 235.059 195.707 235.963 197.082 239.924C197.561 241.306 197.484 242.897 198.311 244.101C199.401 245.708 201.696 246.008 203.582 245.552C205.476 245.097 207.167 244.055 209.031 243.498C211.643 242.719 214.441 242.927 217.124 243.399C219.141 243.745 221.127 244.279 223.076 244.919C223.284 244.417 223.508 243.923 223.733 243.421C224.984 240.541 225.827 237.499 226.67 234.472C228.401 228.256 230.133 222.041 231.864 215.818C232.667 212.923 233.487 209.942 233.209 206.945C233.101 205.733 232.808 204.522 232.885 203.308C233.101 199.764 236.324 196.908 236.433 193.363C236.463 192.391 236.292 191.302 236.92 190.56C237.298 190.122 237.869 189.92 238.326 189.556C239.16 188.878 239.454 187.742 239.609 186.668C240.088 183.225 239.625 179.651 238.263 176.447Z" fill="#F7F7F7" stroke="#5E5959" stroke-width="0.7515" stroke-miterlimit="10" stroke-linecap="round" stroke-linejoin="round"/>
</svg>
