<svg width="177" height="225" viewBox="0 0 177 225" fill="none" xmlns="http://www.w3.org/2000/svg">
<path d="M77.1475 214.47C80.2699 213.048 84.3896 211.489 86.7007 214.021C87.7277 215.148 88.0839 216.885 89.3978 217.666C90.4326 218.275 91.7327 218.091 92.9219 218.206C96.5093 218.561 99.1133 221.633 101.316 224.476C103.419 224.306 103.504 221.248 104.687 219.494C105.924 217.658 108.419 217.334 110.6 216.933C112.772 216.529 115.284 215.472 115.608 213.288C115.824 211.843 114.997 210.214 115.786 208.994C116.876 207.31 119.496 208.306 121.451 207.868C125.308 207.002 125.749 200.771 129.552 199.682C132.204 198.917 135.837 200.886 137.406 198.625C137.877 197.945 137.954 197.073 138.355 196.353C139.568 194.222 142.677 194.594 145.05 193.946C148.459 193.019 150.738 189.119 149.88 185.699C149.393 183.76 148.305 181.182 150.036 180.186C151.643 181.599 153.382 183.082 155.507 183.374C159.573 183.946 160.222 179.7 161.505 176.919C161.699 176.502 164.574 166.071 162.055 167.268C166.275 165.268 168.183 159.971 167.395 155.369C166.855 152.218 165.308 148.868 166.738 146.011C167.457 144.59 168.794 143.61 169.853 142.42C172.558 139.37 173.292 134.722 171.677 130.985C170.904 129.217 169.675 127.672 168.957 125.881C168.238 124.09 168.161 121.819 169.513 120.445C171.276 118.654 174.715 119.095 176.052 116.962C177.358 114.879 175.433 112.129 173.185 111.133C170.225 109.804 166.831 110.121 163.592 109.974C160.345 109.828 158.422 109.581 156.273 107.156C154.409 105.041 152.501 102.894 150.066 101.459C147.64 100.03 144.563 99.4051 141.973 100.532C140.241 101.289 136.879 104.453 135.528 101.868C134.778 100.415 138.092 93.5521 138.619 91.8996C138.919 90.9409 139.222 89.8834 138.842 88.9563C138.448 87.9838 137.382 87.4125 136.339 87.3117C135.286 87.2129 134.252 87.4896 133.238 87.7683C130.65 84.997 136.911 79.8003 136.749 76.4261C136.6 73.3603 134.058 70.5178 134.847 67.5607C137.143 66.1257 139.446 64.6886 141.741 63.2595C144.268 61.6781 147.012 59.8082 147.677 56.9124C148.589 52.9293 144.771 49.0847 140.72 48.4976C140.079 48.4047 139.392 48.3494 138.882 47.9481C137.289 46.683 139.206 44.1035 138.72 42.1189C138.294 40.3893 136.153 39.7014 134.374 39.818C132.597 39.9346 130.805 40.5355 129.065 40.1343C126.544 39.5551 124.922 36.9775 124.504 34.4217C124.087 31.8658 124.597 29.2704 124.837 26.6909C124.906 25.8884 124.946 25.0384 124.597 24.305C123.94 22.9391 122.092 22.5141 120.648 22.9629C119.203 23.4096 118.058 24.5067 116.975 25.5642C116.845 24.475 116.69 23.3325 116.065 22.4212C115.446 21.51 114.201 20.9229 113.212 21.4111C111.465 22.2671 111.558 25.6492 109.618 25.6175C109.132 25.6116 108.698 25.3487 108.289 25.1016C106.595 24.0658 104.895 23.032 103.203 21.9883C102.637 21.6424 102.044 21.2708 101.741 20.6758C101.347 19.8733 101.603 18.9166 101.866 18.0587C102.453 16.1512 103.033 14.2378 103.619 12.3303C101.959 11.4882 100.073 12.9253 98.8739 14.3366C97.6689 15.7579 96.1986 17.442 94.3604 17.1791C91.1747 16.7304 90.8818 11.164 87.6901 10.7312C84.815 14.1291 90.8363 21.5495 84.6449 22.1979C83.0203 22.3679 81.3978 21.5653 80.2857 20.3754C78.2912 18.2524 77.5412 15.1945 75.1984 13.3344C73.7065 12.1445 71.0332 12.099 70.4693 9.93652C69.9271 7.87485 69.6956 6.09781 68.815 4.09148C68.35 3.02605 67.6931 1.96062 66.8739 1.11855C65.6451 2.16026 64.4084 3.19604 63.1796 4.23776C61.8499 5.35655 60.1264 6.6078 59.1371 8.02904C58.9352 8.31564 58.7591 8.62401 58.682 8.964C58.5652 9.45818 58.6661 9.97409 58.7591 10.4683C59.1133 12.5003 59.2142 14.5758 59.052 16.6236C57.0119 18.2603 55.0945 19.31 53.0544 20.9387C51.1529 22.4608 49.2039 24.0283 47.9988 26.1433C46.8947 28.0746 46.4989 30.3122 45.8123 32.4292C44.2274 37.3017 40.9506 41.6484 36.5439 44.2655C32.0305 46.938 26.6819 47.6931 21.4878 48.3968C21.4245 52.9906 21.4799 57.6694 21.4186 62.2652C21.4027 63.1982 21.4186 64.2182 22.0122 64.9357C22.8551 65.9478 24.7883 66.5348 24.3392 67.7702C24.0067 68.6953 22.6394 68.5965 21.842 69.1836C21.0703 69.7549 20.9931 70.8657 20.9773 71.8225C20.9159 78.6341 20.8605 85.4438 20.7992 92.2455C20.7913 93.0579 20.7992 93.9217 21.2622 94.5938C21.7965 95.3509 22.77 95.6355 23.6367 95.9676C26.7512 97.1339 29.3869 99.5355 30.8393 102.516C27.6397 102.099 24.9189 100.061 22.3604 98.0985C21.2325 97.2268 20.0651 96.3155 19.4537 95.0267C18.8818 93.8288 18.8739 92.4471 18.8284 91.1109C18.7037 87.6912 18.2803 84.2854 17.5442 80.9429C17.3285 79.9703 16.7408 78.7567 15.7673 78.9346C15.1954 79.0354 14.8472 79.575 14.4613 80.0079C12.1739 82.5875 8.05422 81.5438 4.62113 81.182C4.00377 81.1208 3.32308 81.097 2.80466 81.4449C2.10221 81.9154 1.95576 82.8721 1.86276 83.7142C1.17416 90.4547 0.548909 97.5964 3.4616 103.72C4.34411 105.582 5.53332 107.288 6.41583 109.156C7.33396 111.117 7.84448 113.179 8.16108 115.296C8.9961 115.062 9.79944 114.685 10.5118 114.214C12.259 113.064 13.6342 111.441 15.2805 110.152C18.7275 107.466 23.3577 106.345 27.6476 107.179C28.5677 107.357 29.4957 107.628 30.2298 108.207C32.0226 109.626 32.0681 112.315 31.6585 114.562C31.241 116.808 30.5464 119.178 31.3735 121.311C32.2382 123.519 34.6048 125.001 35.0678 127.326C35.3231 128.638 34.9214 129.98 34.5197 131.255C33.2197 135.363 31.6664 139.826 27.98 142.072C26.8442 142.768 25.5838 143.2 24.3312 143.671C24.6953 143.995 24.9347 144.404 24.9506 144.898C24.9882 146.003 23.884 146.782 22.8551 147.177C21.8202 147.563 20.6449 147.855 20.0255 148.775C19.0599 150.204 20.1739 152.234 21.7114 153.015C23.2489 153.793 25.0495 153.786 26.7433 154.141C28.536 154.519 30.2377 155.337 31.6505 156.503C32.0067 156.798 32.3708 157.146 32.4559 157.601C32.6953 158.796 31.0787 159.423 29.8657 159.553C27.8098 159.771 25.7539 159.986 23.698 160.21C22.3762 160.35 20.4351 159.84 20.7675 158.557C20.0809 157.338 18.0864 158.419 17.3285 159.593C16.5707 160.767 16.6795 162.271 16.7725 163.669C16.8655 165.059 16.8497 166.612 15.9296 167.662C13.6263 167.229 15.7297 162.55 13.5729 161.631C12.722 161.267 11.6872 161.817 10.8363 161.453C9.96961 161.091 9.71436 160.01 9.13459 159.285C8.01463 157.885 5.64215 158.033 4.35202 159.285C3.06782 160.534 2.7354 162.511 3.03023 164.28C3.22217 165.476 3.63966 166.78 3.03615 167.832C2.67404 168.464 2.00921 168.85 1.56795 169.429C0.695333 170.571 0.974306 172.426 2.13978 173.268C3.31514 174.102 5.15538 173.77 5.95874 172.58C6.19817 172.232 6.36834 171.807 6.74035 171.615C7.51997 171.19 8.4559 172.086 9.32852 171.916C10.4564 171.692 10.5652 170.016 11.5249 169.376C12.6904 168.589 14.1903 169.801 14.9323 170.996C16.2165 173.066 16.9802 175.444 17.1425 177.869C17.2355 179.291 17.7005 181.281 19.1133 181.089C20.2511 180.935 21.278 179.283 22.1368 180.032C22.863 180.664 21.9508 181.738 21.2939 182.439C19.794 184.039 19.6634 186.749 21.007 188.486C21.2484 188.802 21.5571 189.103 21.9508 189.166C22.6157 189.281 23.1796 188.702 23.5734 188.162C25.0495 186.092 25.9241 183.661 27.3547 181.56C28.7834 179.467 31.0569 177.646 33.5917 177.838C36.1185 178.032 38.2516 181.174 36.7675 183.228C35.6021 184.841 33.0495 184.958 31.9216 186.594C30.1131 189.227 33.4908 193.096 31.9533 195.899C31.0866 197.466 28.815 198.354 28.9001 200.145C29.001 202.092 31.6743 202.562 33.6075 202.307C35.5467 202.052 38.121 202.022 38.7542 203.867C37.4166 204.74 35.9266 205.357 34.3634 205.681C33.5303 206.608 34.9827 207.974 36.2273 207.953C37.472 207.929 38.7937 207.365 39.8979 207.937C41.2197 208.623 41.3127 210.437 41.8845 211.821C42.5197 213.365 43.8633 214.483 45.1554 215.535C47.1025 217.116 49.1425 218.747 51.5863 219.318C54.0359 219.882 57.004 219.04 58.0626 216.77C58.959 214.839 58.6582 211.928 60.6745 211.226C61.7411 213.649 61.3631 216.593 59.9187 218.793C62.1982 218.383 64.7804 218.391 66.7196 217.958C70.307 217.156 73.8074 215.99 77.1475 214.47Z" fill="#F7F7F7" stroke="#5E5959" stroke-width="0.7515" stroke-miterlimit="10" stroke-linecap="round" stroke-linejoin="round"/>
</svg>
