<svg width="177" height="225" viewBox="0 0 177 225" fill="none" xmlns="http://www.w3.org/2000/svg">
<path d="M77.1475 213.881C80.27 212.46 84.3897 210.9 86.7008 213.432C87.7278 214.559 88.084 216.296 89.3978 217.077C90.4327 217.686 91.7327 217.502 92.922 217.617C96.5094 217.972 99.1134 221.044 101.316 223.887C103.419 223.717 103.504 220.659 104.687 218.905C105.924 217.069 108.419 216.745 110.6 216.344C112.773 215.94 115.284 214.883 115.608 212.699C115.824 211.254 114.997 209.625 115.786 208.405C116.876 206.721 119.496 207.717 121.451 207.279C125.308 206.413 125.749 200.182 129.552 199.093C132.204 198.328 135.837 200.297 137.406 198.036C137.877 197.356 137.954 196.484 138.356 195.764C139.569 193.634 142.677 194.005 145.05 193.357C148.459 192.43 150.738 188.53 149.88 185.11C149.393 183.171 148.305 180.593 150.036 179.597C151.643 181.011 153.382 182.493 155.507 182.786C159.573 183.357 160.222 179.111 161.505 176.33C161.699 175.913 164.574 165.482 162.055 166.68C166.275 164.679 168.183 159.382 167.395 154.78C166.855 151.629 165.308 148.279 166.738 145.422C167.457 144.001 168.794 143.021 169.853 141.831C172.558 138.781 173.292 134.134 171.677 130.396C170.904 128.628 169.675 127.083 168.957 125.292C168.238 123.501 168.161 121.23 169.513 119.856C171.276 118.065 174.715 118.506 176.052 116.373C177.358 114.29 175.433 111.54 173.185 110.544C170.225 109.216 166.831 109.532 163.592 109.385C160.345 109.239 158.422 108.992 156.273 106.567C154.409 104.452 152.501 102.305 150.066 100.87C147.64 99.4408 144.563 98.8162 141.973 99.9429C140.241 100.7 136.879 103.865 135.528 101.279C134.778 99.8263 138.092 92.9632 138.619 91.3107C138.919 90.352 139.222 89.2945 138.842 88.3675C138.449 87.3949 137.382 86.8237 136.339 86.7229C135.287 86.624 134.252 86.9008 133.239 87.1795C130.65 84.4082 136.911 79.2115 136.749 75.8373C136.6 72.7714 134.058 69.929 134.847 66.9718C137.143 65.5368 139.446 64.0997 141.741 62.6706C144.268 61.0893 147.012 59.2193 147.677 56.3235C148.59 52.3405 144.771 48.4958 140.72 47.9088C140.079 47.8158 139.392 47.7605 138.882 47.3592C137.289 46.0942 139.206 43.5146 138.72 41.53C138.294 39.8004 136.153 39.1125 134.374 39.2291C132.597 39.3458 130.805 39.9467 129.065 39.5454C126.545 38.9662 124.922 36.3887 124.504 33.8328C124.087 31.2769 124.597 28.6816 124.837 26.102C124.906 25.2995 124.946 24.4495 124.597 23.7162C123.94 22.3503 122.092 21.9253 120.648 22.374C119.203 22.8207 118.058 23.9178 116.975 24.9753C116.845 23.8862 116.69 22.7436 116.065 21.8324C115.446 20.9211 114.201 20.334 113.212 20.8223C111.465 21.6782 111.558 25.0603 109.618 25.0287C109.132 25.0228 108.698 24.7598 108.289 24.5128C106.595 23.477 104.895 22.4432 103.203 21.3995C102.638 21.0536 102.044 20.6819 101.741 20.087C101.347 19.2844 101.603 18.3277 101.866 17.4698C102.453 15.5623 103.033 13.6489 103.619 11.7414C101.959 10.8993 100.073 12.3364 98.874 13.7478C97.6689 15.169 96.1987 16.8531 94.3605 16.5902C91.1747 16.1415 90.8819 10.5752 87.6902 10.1423C84.8151 13.5402 90.8364 20.9607 84.6449 21.609C83.0204 21.779 81.3978 20.9765 80.2858 19.7865C78.2912 17.6636 77.5413 14.6056 75.1985 12.7456C73.7065 11.5556 71.0333 11.5101 70.4693 9.34766C69.9271 7.28598 69.6956 5.50894 68.8151 3.50261C68.3501 2.43718 67.6932 1.37175 66.874 0.529678C65.6452 1.5714 64.4085 2.60718 63.1797 3.6489C61.85 4.76768 60.1265 6.01894 59.1371 7.44017C58.9353 7.72678 58.7592 8.03514 58.682 8.37514C58.5653 8.86931 58.6662 9.38522 58.7592 9.87939C59.1134 11.9114 59.2143 13.9869 59.052 16.0348C57.012 17.6715 55.0946 18.7211 53.0545 20.3499C51.153 21.8719 49.2039 23.4394 47.9989 25.5545C46.8947 27.4857 46.499 29.7233 45.8124 31.8403C44.2274 36.7128 40.9506 41.0596 36.544 43.6767C32.0305 46.3492 26.682 47.1042 21.4878 47.8079C21.4245 52.4017 21.48 57.0806 21.4186 61.6763C21.4028 62.6093 21.4186 63.6293 22.0122 64.3468C22.8552 65.3589 24.7884 65.946 24.3392 67.1814C24.0068 68.1065 22.6395 68.0076 21.842 68.5947C21.0703 69.166 20.9932 70.2769 20.9773 71.2336C20.916 78.0452 20.8606 84.8549 20.7993 91.6567C20.7914 92.4691 20.7993 93.3329 21.2623 94.0049C21.7965 94.762 22.7701 95.0467 23.6368 95.3787C26.7513 96.545 29.387 98.9467 30.8393 101.927C27.6397 101.51 24.919 99.4725 22.3605 97.5096C21.2326 96.6379 20.0651 95.7266 19.4537 94.4379C18.8819 93.24 18.874 91.8583 18.8284 90.522C18.7038 87.1024 18.2803 83.6966 17.5442 80.354C17.3286 79.3815 16.7409 78.1678 15.7674 78.3457C15.1955 78.4465 14.8472 78.9861 14.4614 79.419C12.174 81.9986 8.05428 80.9549 4.62119 80.5932C4.00383 80.5319 3.32315 80.5082 2.80472 80.8561C2.10227 81.3265 1.95582 82.2832 1.86282 83.1253C1.17422 89.8658 0.54897 97.0075 3.46166 103.131C4.34417 104.993 5.53338 106.699 6.41589 108.567C7.33402 110.528 7.84454 112.59 8.16114 114.707C8.99616 114.473 9.7995 114.096 10.5118 113.625C12.2591 112.475 13.6343 110.852 15.2806 109.563C18.7275 106.877 23.3578 105.756 27.6476 106.59C28.5678 106.768 29.4958 107.039 30.2299 107.618C32.0226 109.038 32.0681 111.726 31.6585 113.973C31.241 116.219 30.5465 118.589 31.3736 120.722C32.2383 122.93 34.6049 124.412 35.0679 126.737C35.3231 128.049 34.9215 129.391 34.5198 130.666C33.2198 134.774 31.6664 139.237 27.9801 141.483C26.8443 142.179 25.5838 142.612 24.3313 143.082C24.6954 143.406 24.9348 143.815 24.9506 144.31C24.9882 145.414 23.8841 146.193 22.8552 146.589C21.8203 146.974 20.6449 147.267 20.0256 148.186C19.0599 149.615 20.174 151.645 21.7115 152.426C23.2489 153.205 25.0496 153.197 26.7434 153.552C28.5361 153.93 30.2378 154.748 31.6506 155.915C32.0068 156.209 32.3709 156.557 32.456 157.012C32.6954 158.208 31.0788 158.834 29.8658 158.965C27.8099 159.182 25.754 159.398 23.6981 159.621C22.3763 159.761 20.4352 159.251 20.7676 157.968C20.081 156.749 18.0864 157.83 17.3286 159.004C16.5707 160.178 16.6795 161.683 16.7725 163.08C16.8655 164.47 16.8497 166.023 15.9296 167.073C13.6264 166.64 15.7297 161.961 13.5729 161.042C12.7221 160.678 11.6872 161.228 10.8364 160.864C9.96968 160.502 9.71442 159.421 9.13465 158.696C8.01469 157.296 5.64221 157.445 4.35208 158.696C3.06789 159.945 2.73546 161.922 3.03029 163.691C3.22223 164.887 3.63972 166.191 3.03621 167.243C2.6741 167.875 2.00927 168.261 1.56801 168.84C0.695394 169.983 0.974367 171.837 2.13984 172.679C3.3152 173.513 5.15544 173.181 5.9588 171.991C6.19823 171.643 6.36841 171.218 6.74041 171.026C7.52003 170.601 8.45596 171.497 9.32858 171.327C10.4565 171.103 10.5653 169.427 11.525 168.787C12.6904 168 14.1903 169.212 14.9323 170.408C16.2165 172.477 16.9803 174.855 17.1426 177.281C17.2356 178.702 17.7006 180.692 19.1134 180.501C20.2511 180.346 21.2781 178.694 22.1369 179.443C22.8631 180.076 21.9509 181.149 21.2939 181.851C19.7941 183.45 19.6635 186.16 21.007 187.897C21.2484 188.214 21.5571 188.514 21.9509 188.577C22.6157 188.692 23.1797 188.113 23.5734 187.573C25.0496 185.504 25.9242 183.072 27.3548 180.971C28.7834 178.878 31.057 177.057 33.5917 177.249C36.1186 177.443 38.2516 180.586 36.7676 182.639C35.6021 184.252 33.0496 184.369 31.9217 186.006C30.1131 188.639 33.4908 192.507 31.9533 195.31C31.0867 196.877 28.8151 197.765 28.9002 199.556C29.0011 201.503 31.6743 201.973 33.6076 201.718C35.5467 201.463 38.1211 201.434 38.7543 203.278C37.4166 204.152 35.9266 204.768 34.3634 205.092C33.5304 206.02 34.9828 207.385 36.2274 207.364C37.472 207.34 38.7938 206.777 39.8979 207.348C41.2197 208.034 41.3128 209.848 41.8846 211.232C42.5198 212.776 43.8633 213.895 45.1554 214.946C47.1025 216.528 49.1426 218.158 51.5863 218.73C54.036 219.293 57.0041 218.451 58.0627 216.182C58.959 214.25 58.6583 211.339 60.6746 210.637C61.7411 213.06 61.3632 216.004 59.9187 218.204C62.1982 217.795 64.7805 217.803 66.7196 217.37C70.3071 216.567 73.8074 215.401 77.1475 213.881Z" fill="#FFC5C7" stroke="#5E5959" stroke-width="0.7515" stroke-miterlimit="10" stroke-linecap="round" stroke-linejoin="round"/>
</svg>
