<svg width="225" height="207" viewBox="0 0 225 207" fill="none" xmlns="http://www.w3.org/2000/svg">
<path d="M96.0736 206.126C98.7092 205.486 97.7891 202.25 95.571 201.809C94.0414 201.509 91.7461 199.5 90.262 200.459C89.1638 201.169 89.2945 202.789 89.6427 204.049C89.8129 204.705 90.0681 205.416 90.6716 205.725C90.9645 205.879 91.3127 205.911 91.6452 205.932C92.7117 206.009 93.7703 206.087 94.829 206.166C95.2465 206.195 95.6719 206.227 96.0736 206.126Z" fill="#F7F7F7" stroke="#5E5959" stroke-width="0.7515" stroke-miterlimit="10" stroke-linecap="round" stroke-linejoin="round"/>
<path d="M86.2412 190.599C88.1507 191.649 87.6401 194.22 85.4912 194.614C84.1853 194.853 81.8662 193.177 82.2066 191.649C82.2461 191.455 82.3846 191.301 82.5172 191.17C83.0969 190.605 83.8687 190.228 84.68 190.212C85.2221 190.196 85.7623 190.344 86.2412 190.599Z" fill="#F7F7F7" stroke="#5E5959" stroke-width="0.7515" stroke-miterlimit="10" stroke-linecap="round" stroke-linejoin="round"/>
<path d="M84.1637 166.624C88.6297 165.232 86.6747 173.981 82.6084 171.079C80.5228 169.589 82.3472 167.187 84.1637 166.624Z" fill="#F7F7F7" stroke="#5E5959" stroke-width="0.7515" stroke-miterlimit="10" stroke-linecap="round" stroke-linejoin="round"/>
<path d="M87.8798 172.661C87.8105 173.628 88.1211 174.77 88.4535 175.448C88.6534 175.865 88.9008 176.314 89.3341 176.468C89.712 176.599 90.1374 176.468 90.5174 176.593C91.0734 176.769 91.39 177.433 91.9618 177.557C92.4644 177.666 92.9433 177.318 93.345 176.986C93.8951 176.522 94.459 176.027 94.6905 175.349C94.922 174.677 94.6509 173.774 93.9643 173.572C92.8661 173.256 92.3022 174.037 91.4355 173.139C90.8558 172.539 91.5978 171.372 90.1375 171.04C88.5387 170.684 87.9648 171.558 87.8798 172.661Z" fill="#F7F7F7" stroke="#5E5959" stroke-width="0.7515" stroke-miterlimit="10" stroke-linecap="round" stroke-linejoin="round"/>
<path d="M62.4826 160.74C62.8368 159.589 62.6053 158.069 61.4932 157.613C60.2783 157.111 59.0257 158.176 58.1769 159.164C57.4269 160.046 56.7008 160.941 56.0042 161.853C55.092 163.041 54.1957 164.345 54.0948 165.836C54.0097 167.034 54.4509 168.214 55.007 169.279C55.7035 170.631 56.7938 172.005 58.3075 172.137C60.2704 172.307 62.0176 170.299 63.9429 170.692C64.77 170.862 65.4348 171.442 66.169 171.835C67.3206 172.454 68.8422 172.576 69.8474 171.75C70.8526 170.932 70.8368 169.018 69.6317 168.516C68.9431 168.222 67.9854 168.392 67.56 167.775C67.1029 167.119 67.6688 166.277 67.9083 165.52C68.2011 164.585 67.9459 163.497 67.2276 162.833C66.5172 162.161 65.3794 161.983 64.5147 162.432C63.6876 162.863 63.1929 163.758 62.9614 164.662C62.6211 165.982 61.6476 166.5 61.0817 165.017C60.5811 163.697 62.1027 161.938 62.4826 160.74Z" fill="#F7F7F7" stroke="#5E5959" stroke-width="0.7515" stroke-miterlimit="10" stroke-linecap="round" stroke-linejoin="round"/>
<path d="M47.2623 163.234C47.664 162.956 48.129 162.794 48.5228 162.501C50.1157 161.335 49.7892 158.901 49.3024 156.988C49.0551 156.053 48.778 155.049 48.0281 154.44C47.201 153.76 46.0098 153.744 44.967 153.976C42.2542 154.571 39.9351 156.717 39.1317 159.374C38.8211 160.376 38.6984 161.489 38.0177 162.284C37.4934 162.894 36.7355 163.219 36.0627 163.651C33.4726 165.296 32.1824 168.739 33.0551 171.681C33.9059 174.539 36.411 176.537 38.2492 178.886C38.5282 179.247 38.8152 179.649 38.8448 180.113C38.8844 180.631 38.6054 181.11 38.3897 181.58C37.6081 183.317 37.6635 185.44 38.6905 187.04C39.7273 188.637 41.7516 189.58 43.6057 189.178C45.4696 188.769 46.9536 186.939 46.8151 185.047C46.7597 184.298 46.5045 183.456 46.9616 182.861C47.2247 182.523 47.664 182.367 48.0736 182.236C49.0709 181.912 50.2542 181.619 51.0892 182.26C51.7758 182.792 51.9242 183.796 51.7996 184.662C51.6828 185.525 51.3524 186.367 51.3128 187.239C51.204 189.696 53.8871 191.841 56.2675 191.2C57.6665 190.815 59.2198 189.688 60.3872 190.552C60.967 190.977 61.1609 191.734 61.5844 192.313C62.4036 193.416 64.1666 193.655 65.249 192.815C66.3313 191.965 66.5312 190.196 65.6586 189.139C65.342 188.745 64.8849 188.413 64.8077 187.911C64.6851 187.125 65.5497 186.583 66.1691 186.081C68.1775 184.452 68.3556 181.511 68.3635 178.931C68.3714 177.797 68.3556 176.599 67.7837 175.618C66.9349 174.167 65.1026 173.62 63.4246 173.41C59.3128 172.894 57.0788 175.334 53.4617 176.545C52.504 176.862 51.1743 176.638 50.8874 175.658C50.733 175.116 50.9566 174.539 50.9962 173.974C51.0813 172.738 50.0919 171.527 48.8631 171.357C45.5705 170.902 44.4031 165.187 47.2623 163.234Z" fill="#F7F7F7" stroke="#5E5959" stroke-width="0.7515" stroke-miterlimit="10" stroke-linecap="round" stroke-linejoin="round"/>
<path d="M107.228 171.032C108.571 171.473 109.06 173.11 108.071 174.167C106.523 175.836 102.776 173.309 104.414 171.773C105.156 171.08 106.254 170.716 107.228 171.032Z" fill="#F7F7F7" stroke="#5E5959" stroke-width="0.7515" stroke-miterlimit="10" stroke-linecap="round" stroke-linejoin="round"/>
<path d="M111.1 170.144C111.611 170.963 113.024 170.971 113.303 171.89C113.504 172.546 112.933 173.202 112.305 173.487C111.68 173.766 110.968 173.835 110.374 174.167C109.26 174.799 108.835 176.406 109.499 177.504C110.049 178.399 111.116 178.854 111.725 179.711C112.382 180.637 112.446 181.957 113.295 182.714C114.161 183.495 115.723 183.264 116.332 182.267C116.997 181.17 116.494 179.749 116.742 178.492C116.975 177.286 117.856 176.345 118.489 175.302C119.124 174.26 119.486 172.815 118.691 171.882C118.358 171.489 117.832 171.194 117.747 170.684C117.561 169.512 119.656 169.419 120.183 168.353C120.693 167.326 119.619 165.643 120.646 165.141C120.885 165.025 121.164 165.041 121.427 164.987C122.771 164.701 123.002 162.732 122.246 161.589C122.013 161.233 121.696 160.901 121.287 160.785C120.305 160.508 119.462 161.566 119.138 162.53C118.805 163.497 118.582 164.647 117.685 165.141C117.276 165.365 116.797 165.396 116.348 165.527C114.579 166.013 114.478 167.719 112.877 168.383C111.927 168.784 110.071 168.516 111.1 170.144Z" fill="#F7F7F7" stroke="#5E5959" stroke-width="0.7515" stroke-miterlimit="10" stroke-linecap="round" stroke-linejoin="round"/>
<path d="M126.087 176.197C125.863 175.681 125.236 175.286 124.727 175.541C124.31 175.758 124.185 176.282 124.1 176.746C123.985 177.411 123.861 178.081 123.744 178.745C123.714 178.923 123.667 179.116 123.536 179.225C123.15 179.541 122.678 178.946 122.199 178.8C121.773 178.668 121.31 178.938 121.079 179.318C120.839 179.696 120.784 180.15 120.73 180.583C120.63 181.378 120.637 182.374 121.35 182.738C121.704 182.923 122.145 182.868 122.523 183.008C123.196 183.256 123.513 184.042 123.544 184.754C123.568 185.471 123.39 186.181 123.435 186.893C123.475 187.61 123.823 188.389 124.502 188.606C125.159 188.806 125.893 188.381 126.204 187.772C126.512 187.154 126.465 186.42 126.273 185.756C126.055 185.054 125.709 184.212 126.204 183.665C126.582 183.24 127.262 183.293 127.795 183.086C129.744 182.344 128.451 180.631 127.61 179.818C127.108 179.34 126.589 179.363 126.273 178.654C125.932 177.918 126.427 176.978 126.087 176.197Z" fill="#F7F7F7" stroke="#5E5959" stroke-width="0.7515" stroke-miterlimit="10" stroke-linecap="round" stroke-linejoin="round"/>
<path d="M127.587 151.035C127.773 149.914 128.816 149.151 129.821 148.617C130.06 148.494 130.331 148.362 130.601 148.402C131.236 148.487 131.42 149.35 131.188 149.945C130.515 151.598 130.664 150.71 131.204 152.177C131.497 152.964 131.954 153.452 131.869 154.369C131.845 154.624 131.792 154.895 131.629 155.089C130.292 156.741 127.393 152.254 127.587 151.035Z" fill="#F7F7F7" stroke="#5E5959" stroke-width="0.7515" stroke-miterlimit="10" stroke-linecap="round" stroke-linejoin="round"/>
<path d="M170.161 145.12C170.268 144.116 170.369 143.112 170.478 142.108C170.492 141.93 170.515 141.746 170.454 141.576C170.345 141.289 170.052 141.127 169.789 140.957C168.374 140.062 167.571 138.294 167.834 136.634C167.895 136.217 168.034 135.792 168.289 135.452C168.598 135.059 169.047 134.796 169.518 134.61C170.64 134.171 171.976 134.116 173.012 134.742C174.039 135.367 174.635 136.765 174.119 137.854C173.901 138.316 173.531 138.688 173.297 139.142C172.866 140 173.02 141.018 173.191 141.961C173.361 142.904 173.531 143.914 173.129 144.788C172.704 145.699 169.991 146.772 170.161 145.12Z" fill="#F7F7F7" stroke="#5E5959" stroke-width="0.7515" stroke-miterlimit="10" stroke-linecap="round" stroke-linejoin="round"/>
<path d="M153.975 144.477C154.252 144.216 154.577 144.023 154.856 143.768C156.092 142.657 156.039 140.433 154.747 139.389C153.457 138.34 151.27 138.741 150.435 140.178C149.483 141.799 150.265 144.007 149.337 145.636C148.741 146.687 147.552 147.288 146.911 148.316C146.268 149.342 146.106 150.856 144.962 151.265C144.313 151.496 143.61 151.249 142.93 151.156C141.77 150.987 140.486 151.334 139.768 152.254C139.05 153.173 139.119 154.693 140.077 155.365C140.587 155.721 141.244 155.798 141.808 156.069C143.347 156.802 143.765 159.134 142.597 160.362C141.909 159.589 141.191 158.802 140.247 158.377C139.305 157.96 138.06 158.006 137.372 158.779C136.808 159.419 136.606 160.492 135.779 160.702C134.635 160.994 134.055 159.366 133.143 158.616C131.699 157.434 129.573 158.593 128.167 159.804C125.353 162.23 122.571 165.636 123.42 169.249C123.738 170.591 124.773 171.92 126.156 171.967C126.829 171.983 127.563 171.704 128.151 172.036C129.286 172.685 128.691 174.9 129.922 175.357C130.832 175.689 131.629 174.6 131.845 173.657C132.071 172.708 132.217 171.558 133.09 171.141C133.608 170.902 134.225 171 134.744 170.777C135.517 170.453 135.895 169.526 136.661 169.202C137.534 168.832 138.579 169.441 139.01 170.283C139.443 171.125 139.42 172.121 139.366 173.062C139.289 174.305 138.996 175.804 137.821 176.229C137.356 176.391 136.839 176.345 136.345 176.375C134.613 176.484 132.927 177.913 132.967 179.642C133.004 181.372 135.284 182.738 136.645 181.665C137.063 181.34 137.395 180.823 137.922 180.753C138.709 180.637 139.249 181.633 139.079 182.414C138.911 183.193 138.331 183.795 137.914 184.475C137.504 185.155 137.271 186.096 137.797 186.699C138.531 187.549 140.363 187.278 140.541 188.389C140.68 189.279 139.513 189.702 138.887 190.352C137.805 191.479 138.624 193.625 140.124 194.043C142.845 194.792 143.539 192.103 144.529 190.382C145.518 188.66 147.637 187.773 147.683 185.541C147.706 184.614 147.39 183.703 147.459 182.777C147.629 180.607 149.654 180.313 149.661 177.966C149.661 177.071 149.956 175.95 150.837 175.796C151.369 175.695 151.872 176.013 152.358 176.237C153.263 176.669 154.345 176.847 155.273 176.468C156.201 176.09 156.882 175.039 156.634 174.074C156.456 173.349 155.829 172.823 155.398 172.214C154.972 171.595 154.771 170.647 155.342 170.174C155.582 169.975 155.898 169.913 156.193 169.836C157.677 169.441 159.114 168.338 159.284 166.824C159.454 165.304 157.701 163.758 156.379 164.523C155.983 164.754 155.691 165.134 155.257 165.28C154.161 165.65 153.249 164.114 153.587 162.995C153.928 161.882 154.909 161.111 155.598 160.168C157.382 157.729 156.866 154.376 155.35 151.945C154.153 150.006 151.725 146.664 153.975 144.477Z" fill="#F7F7F7" stroke="#5E5959" stroke-width="0.7515" stroke-miterlimit="10" stroke-linecap="round" stroke-linejoin="round"/>
<path d="M168.56 123.507C168.459 122.234 170.068 121.507 171.35 121.592C172.627 121.677 173.948 122.171 175.153 121.716C178.438 120.481 176.568 114.582 179.481 112.619C180.904 111.671 182.789 112.133 184.491 112.38C187.342 112.805 190.597 112.319 192.444 110.103C193.417 108.929 193.882 107.409 194.778 106.166C198.449 101.054 208.244 101.787 209.728 95.6635C210.43 92.7538 209.233 88.5376 212.061 87.5334C212.927 87.2251 213.869 87.4247 214.781 87.4939C218.252 87.7489 221.901 85.8196 223.231 82.6075C224.56 79.3954 223.092 75.1713 219.875 73.8429C218.353 73.2183 216.606 73.2183 215.153 72.4454C213.228 71.4195 212.231 69.2649 210.731 67.6816C206.898 63.6353 200.244 63.6433 196.039 59.9904C195.249 59.3045 194.515 58.3161 194.794 57.3119C194.978 56.6082 195.606 56.1299 196.138 55.6357C197.863 54.0228 198.914 51.6211 198.59 49.2886C198.273 46.9581 196.417 44.8252 194.082 44.4793C192.707 44.2777 191.316 44.6711 189.925 44.6177C186.098 44.4714 182.087 41.0735 178.879 43.1728C176.637 44.6335 176.204 48.1856 173.701 49.1265C172.047 49.7452 170.137 48.9269 168.444 49.4507C166.071 50.192 164.959 53.3052 162.523 53.8132C160.93 54.1453 159.385 53.2341 157.933 52.5007C152.05 49.5061 144.954 48.9803 138.693 51.0795C135.949 46.541 134.35 40.0772 128.63 40.0318C125.414 40.0002 119.595 39.9468 116.757 41.714C114.624 43.0502 113.103 45.8689 110.597 45.6831C108.85 45.5606 107.637 43.9773 106.23 42.9415C100.116 38.4485 89.9296 44.2006 84.4327 38.9743C86.6212 32.301 83.1881 25.2285 79.85 19.0513C79.5255 18.4583 79.1693 17.8238 78.5658 17.5233C77.5468 16.9975 76.1775 17.5846 75.2039 16.9758C73.2331 15.7483 75.5917 12.1112 73.9296 10.4883C72.9541 9.53954 71.3474 10.0179 70.0711 10.4883C65.712 12.0875 59.7679 12.3266 57.5042 8.28038C56.5069 6.50533 56.1429 3.90994 54.1562 3.46323C51.9935 2.97696 49.8604 5.74033 47.85 4.80536C47.1614 4.48909 46.73 3.80911 46.2413 3.22995C45.2519 2.06569 43.8925 1.26909 42.4243 0.883636C42.5015 1.60907 42.4777 2.32068 42.1156 2.94531C40.8235 5.17699 37.2598 3.84076 34.9427 4.97537C33.148 5.85698 32.4218 8.08073 30.7755 9.20743C29.3924 10.1483 27.568 10.1958 26.1295 11.0517C23.4245 12.6667 22.7063 16.7742 19.7224 17.7941C18.4777 18.225 16.9858 18.0254 15.9351 18.8201C13.7862 20.4488 15.6026 23.8942 15.007 26.5113C14.7063 27.808 13.802 28.8655 13.1213 30.016C12.4189 31.2138 11.9459 32.5342 11.4829 33.8468C9.74362 38.7647 7.99641 43.6907 6.25117 48.6165C5.42407 50.9727 4.61081 53.6907 5.87126 55.8531C6.45894 56.8632 7.41662 57.5828 8.24373 58.415C11.1267 61.3266 12.2724 65.8354 11.1188 69.767C10.8656 70.6545 10.5015 71.6508 10.9427 72.4691C11.5304 73.5721 13.1134 73.58 14.1186 74.3213C16.2299 75.873 14.5361 79.433 12.132 80.4905C11.3682 80.8226 10.5094 81.0618 9.95338 81.6884C8.94027 82.7993 9.31821 84.5288 9.65063 85.9975C10.1611 88.2905 10.363 90.8226 9.24895 92.9001C7.7273 95.7327 4.58112 96.6518 1.34985 97.5947C1.92171 99.1998 2.36296 100.852 2.67164 102.505C3.66892 107.794 4.01719 113.809 8.06765 117.369C11.3207 120.234 16.6158 121.09 18.2304 125.122C18.6717 126.217 18.7647 127.437 19.2198 128.534C20.9512 132.703 27.0892 133.568 28.8661 137.715C30.8151 142.256 26.4243 147.891 26.8794 152.347C28.0785 152.23 29.238 152.323 30.2571 153.141C31.0842 153.798 31.9964 154.61 33.0412 154.454C33.9672 154.316 34.6103 153.452 35.4592 153.056C36.7513 152.456 38.2353 152.987 39.6422 153.211C43.1663 153.768 47.2247 151.728 47.9746 148.239C48.214 147.113 48.1131 145.938 48.2991 144.796C48.4752 143.653 49.0629 142.463 50.1453 142.062C50.3392 141.993 50.547 141.953 50.7409 141.993C51.6531 142.185 51.3662 143.529 51.3128 144.456C51.2356 145.861 52.2942 147.142 53.5784 147.706C54.8685 148.269 56.3368 148.255 57.7278 148.101C58.2838 148.038 58.8497 147.953 59.3048 147.636C60.0014 147.158 60.2625 146.278 60.4881 145.46C60.773 144.387 61.0679 143.274 60.9274 142.171C60.7968 141.058 60.124 139.947 59.0496 139.621C58.2304 139.382 56.9561 139.243 57.1025 138.401C57.1559 138.133 57.3796 137.923 57.619 137.777C59.012 136.95 61.0976 138.194 61.0362 139.807C62.3204 139.413 63.3236 138.239 63.5334 136.911C63.7115 135.731 63.6481 134.023 64.8472 133.885C66.0068 133.754 66.3847 135.407 66.2917 136.571C66.0681 139.475 65.8366 142.424 64.8472 145.166C64.5603 145.96 64.1982 146.773 64.214 147.621C64.22 148.178 64.3901 148.726 64.3763 149.281C64.3288 150.455 63.4562 151.481 63.3929 152.655C63.2781 154.81 65.8663 156.138 68.0231 156.069C69.6615 156.014 71.6403 155.652 72.6296 156.949C73.5735 158.192 73.0332 160.408 74.4243 161.117C74.8418 161.327 75.3286 161.327 75.7916 161.319C77.7248 161.287 79.6481 161.258 81.5734 161.226C82.5707 161.21 83.5977 161.189 84.5099 160.793C85.4221 160.4 86.2037 159.528 86.1799 158.532C86.1641 157.836 85.7624 157.158 85.8554 156.462C86.0573 155.025 87.9964 154.741 89.4488 154.826C90.3472 154.871 91.2435 154.926 92.1319 154.98C94.4589 155.11 93.6932 156.531 94.7201 157.937C95.7807 159.388 98.1908 159.69 99.2969 158.152C100.989 155.798 98.3155 151.645 102.582 150.888C103.541 150.71 104.693 151.366 104.715 152.347C104.731 152.894 104.414 153.396 104.345 153.946C104.159 155.328 105.597 156.609 105.257 157.968C104.893 159.388 102.983 159.643 101.848 160.578C98.1136 163.651 103.332 166.292 106.137 165.968C107.629 165.798 109.066 165.28 110.558 165.118C112.329 164.924 114.494 165.071 115.451 163.582C116.542 161.882 115.05 159.481 115.908 157.658C116.464 156.47 117.917 155.798 118.233 154.525C118.643 152.841 116.943 150.694 118.249 149.552C118.512 149.328 118.869 149.188 119.039 148.88C119.486 148.061 118.156 147.397 117.23 147.506C116.294 147.621 115.026 147.729 114.741 146.834C115.018 146.108 115.853 145.729 116.635 145.707C117.414 145.683 118.172 145.946 118.93 146.108C120.552 146.448 122.345 146.356 123.699 145.405C125.848 143.877 126.033 140.362 124.233 138.441C122.345 136.425 119.215 136.425 116.981 137.8C115.22 138.88 111.943 143.035 109.709 141.151C108.611 140.216 109.561 137.939 110.219 136.95C111.209 135.476 113.172 134.711 114.895 134.642C117.307 134.541 119.64 135.407 122.036 135.747C122.957 135.877 124.077 135.853 124.619 135.088C125.06 134.456 124.896 133.56 124.441 132.944C123.991 132.317 123.305 131.916 122.64 131.538C121.342 130.781 120.042 130.032 118.736 129.275C119.68 127.962 121.611 127.468 123.073 128.164C124.1 128.658 124.797 129.089 125.885 129.421C126.983 129.761 128.267 129.676 129.132 128.935C129.55 128.573 129.85 128.079 130.331 127.816C131.135 127.383 132.148 127.747 132.874 128.302C133.592 128.85 134.188 129.583 134.983 130.016C135.393 130.24 135.903 130.441 136.028 130.89C136.252 131.738 135.015 132.086 134.241 132.519C133.377 132.997 132.904 134.094 133.159 135.051C133.414 136.008 134.366 136.735 135.355 136.727C136.507 136.711 137.473 135.845 138.6 135.646C139.792 135.428 141.098 135.954 142.196 135.436C143.688 134.743 143.787 132.689 143.656 131.044C143.47 128.573 143.053 125.715 140.927 124.442C140.356 124.094 139.707 123.9 139.127 123.56C137.611 122.689 136.776 120.643 137.526 119.06C138.276 117.484 140.726 116.937 141.893 118.233C142.93 119.376 142.744 121.337 143.949 122.28C145.983 123.871 149.159 120.829 151.401 122.102C152.861 122.936 152.885 124.982 153.465 126.557C154.507 129.437 158.164 131.052 160.994 129.87C162.337 129.315 163.8 128.233 165.074 128.927C165.561 129.198 165.885 129.676 166.295 130.056C167.834 131.461 170.238 131.143 172.286 130.742C172.51 130.696 172.718 130.712 172.927 130.704C171.651 128.72 170.369 126.735 169.093 124.75C168.845 124.365 168.598 123.964 168.56 123.507Z" fill="#F7F7F7" stroke="#5E5959" stroke-width="0.7515" stroke-miterlimit="10" stroke-linecap="round" stroke-linejoin="round"/>
</svg>
