<svg width="241" height="261" viewBox="0 0 241 261" fill="none" xmlns="http://www.w3.org/2000/svg">
<path d="M238.263 176.858C238.016 176.285 237.669 175.66 237.058 175.544C236.454 175.437 235.906 175.884 235.465 176.309C232.659 178.989 230.194 182.023 228.138 185.312C227.281 186.686 226.46 188.139 225.178 189.127C223.895 190.122 221.994 190.525 220.664 189.598C219.52 188.809 219.133 187.342 218.6 186.061C218.066 184.787 217.015 183.444 215.632 183.551C215.183 183.591 214.728 183.782 214.295 183.66C213.691 183.498 213.398 182.78 213.43 182.154C213.521 180.246 215.523 179.143 217.124 178.107C219.96 176.279 220.773 172.618 218.8 169.823C217.797 168.402 216.18 167.398 215.563 165.769C214.983 164.257 215.401 162.573 215.268 160.96C215.068 158.643 213.754 156.589 213.143 154.342C212.486 151.902 212.694 149.315 212.911 146.791C213.196 143.486 213.475 140.181 213.762 136.876C214.031 133.749 214.388 130.398 216.451 128.026C217.217 127.154 218.175 126.467 218.933 125.587C220.27 124.027 220.88 121.981 221.282 119.965C222.202 115.348 222.194 110.6 222.186 105.881C222.178 103.883 222.164 101.835 221.521 99.9434C220.826 97.8896 219.427 96.1521 218.592 94.1537C217.749 92.1533 217.611 89.5738 219.172 88.0695C219.419 85.3654 219.412 83.0962 221.09 80.9653C222.233 79.5125 223.909 78.5479 224.992 77.0574C226.63 74.8179 226.662 71.8232 226.561 69.044C226.406 64.8119 226.074 60.4572 224.18 56.666C223.138 54.5885 221.654 52.7363 220.787 50.5659C220.122 48.9055 219.853 47.1146 219.59 45.3376C218.933 40.9672 218.284 36.5671 218.244 32.1354C218.191 27.2391 218.462 22.3745 218.747 17.5178C218.8 16.6303 218.856 15.719 218.569 14.877C218.244 13.8728 217.387 13.3945 216.614 12.7995C214.736 11.3486 213.329 9.93526 212.64 7.67393C212.169 6.09851 212.114 4.37686 211.319 2.93982C210.925 2.22229 210.377 1.61145 209.896 0.947296C205.228 2.53851 201.14 5.9048 198.874 10.299C197.159 13.6257 195.675 18.0733 191.949 18.4686C186.491 19.0399 184.151 10.1132 178.662 9.78899C175.417 9.58737 172.896 12.5761 169.773 13.5032C164.64 15.0232 158.882 10.7615 153.983 12.9003C151.045 14.1832 147.706 17.5099 145.433 15.2644C144.414 14.2523 144.451 12.6315 144.212 11.2102C143.563 7.34184 140.023 4.1456 136.097 3.8985C134.358 3.78979 132.379 4.36894 131.613 5.92854C130.949 7.28653 131.398 8.87775 131.605 10.3682C132.162 14.3136 130.84 18.4765 128.103 21.3703C125.715 22.1116 123.196 20.6686 121.403 18.9311C119.911 17.4882 118.597 15.804 116.935 14.6003C115.914 15.6953 114.67 16.5848 113.249 17.0849C110.126 18.182 105.805 18.2136 104.776 21.3565C104.483 22.2599 104.568 23.2482 104.444 24.1891C103.887 28.4667 99.374 30.8999 95.3849 32.5742C91.3977 34.2504 86.8447 36.5058 86.0413 40.7438C85.1825 45.3297 89.1479 50.6747 86.257 54.3335C85.4912 55.2922 84.3792 55.901 83.2652 56.411C80.2971 57.763 77.1054 58.6189 73.8583 58.9194C73.0252 59.0044 72.119 59.0281 71.4403 58.5419C70.6349 57.9706 70.4113 56.9052 70.1106 55.9702C69.137 52.9281 66.5469 50.3505 63.4007 49.7772C57.9829 48.783 55.3235 54.713 50.2461 55.7014C48.398 56.0552 46.5043 55.4543 44.6265 55.4384C42.4004 55.4226 35.7064 57.4151 34.2145 59.1665C32.0735 61.6927 33.2409 68.3561 35.4986 70.4177C36.4405 71.2816 37.8474 72.432 37.1291 73.4915C36.1932 74.889 34.3549 72.9202 32.8848 72.1078C31.1929 71.1748 29.1291 72.0307 27.2671 72.5328C25.4031 73.0349 22.8288 72.7502 22.35 70.8803C22.2491 74.1853 19.1346 77.0891 15.834 76.9724C14.9298 76.9428 13.9879 76.7253 13.1449 77.0495C10.4776 78.107 12.1318 82.4004 10.6557 84.8574C9.51991 86.7333 6.96141 86.9566 4.81251 87.4054C2.66361 87.8521 0.182301 89.5046 0.738324 91.6196C1.46452 94.4226 6.05714 93.7129 7.88945 95.9604C8.79966 97.0792 8.87878 98.8009 10.0383 99.6667C10.8575 100.276 11.9933 100.268 12.8659 100.786C14.9001 101.975 14.4964 104.962 13.9167 107.241C12.1853 114.059 11.2354 121.078 11.1049 128.119C11.0653 130.104 11.0811 132.157 10.3075 133.988C9.40317 136.119 7.51742 137.763 6.88423 139.979C6.25697 142.203 8.20605 145.277 10.2995 144.296C11.1267 143.911 11.6055 143.021 12.3336 142.458C13.6238 141.454 15.5412 141.64 16.956 142.45C18.3767 143.26 19.4294 144.575 20.4801 145.832C21.4457 146.99 22.6745 148.234 24.1823 148.117C25.789 147.995 26.9644 146.358 28.5652 146.196C30.5973 145.986 32.0121 148.165 32.6295 150.11C33.2409 152.057 33.7672 154.342 35.5837 155.277C34.7566 157.06 32.6532 158.157 30.7061 157.809C29.5704 157.607 28.3099 157.006 27.3522 157.655C26.254 158.412 26.6161 160.07 26.9407 161.361C27.3443 162.936 27.4987 164.611 27.0257 166.162C26.4618 168.008 25.0707 169.483 24.299 171.244C23.4402 173.205 23.3869 175.413 22.8289 177.475C22.2649 179.544 20.9134 181.667 18.8021 182.023C17.9295 182.169 17.0094 181.999 16.1665 182.278C15.4165 182.533 14.8209 183.126 14.2807 183.705C12.8976 185.196 11.6134 186.763 10.44 188.416C11.7836 189.643 13.0282 190.972 13.8553 192.587C15.1395 195.095 15.2167 198.453 13.2597 200.493C12.2624 201.527 10.7784 202.207 10.2837 203.557C9.85236 204.723 10.2916 206.052 10.4242 207.295C11.8924 207.68 13.2518 208.477 14.2412 209.641C14.7299 210.22 15.1613 210.9 15.8499 211.217C17.8603 212.152 19.9933 209.388 22.1561 209.875C24.1427 210.321 24.5068 212.917 25.5041 214.692C27.7677 218.746 33.7119 218.499 38.071 216.9C39.3552 216.429 40.954 215.951 41.9295 216.9C43.5916 218.523 41.2251 222.166 43.2038 223.387C44.1774 223.996 45.5387 223.409 46.5657 223.927C47.1692 224.235 47.5253 224.87 47.8499 225.463C51.188 231.64 54.6211 238.712 52.4405 245.386C57.9374 250.612 68.116 244.86 74.2303 249.353C75.6371 250.389 76.8501 251.972 78.5894 252.095C81.1024 252.28 82.6241 249.462 84.7571 248.125C87.5946 246.358 93.4141 246.412 96.6295 246.435C102.35 246.489 103.949 252.952 106.693 257.485C112.954 255.392 120.05 255.917 125.932 258.912C127.385 259.653 128.938 260.557 130.531 260.225C132.959 259.717 134.071 256.603 136.444 255.862C138.137 255.338 140.047 256.165 141.701 255.538C144.204 254.597 144.637 251.045 146.879 249.584C150.087 247.485 154.098 250.883 157.925 251.029C159.316 251.082 160.707 250.689 162.082 250.899C162.755 250.99 163.39 251.252 163.962 251.616C165.212 250.319 166.813 249.353 168.59 249.007C169.449 248.837 170.369 248.774 171.063 248.242C172.64 247.036 171.906 244.589 172.015 242.604C172.169 239.61 174.667 237.147 177.48 236.095C180.3 235.054 183.393 235.154 186.391 235.285C190.589 235.471 195.706 236.374 197.082 240.335C197.56 241.717 197.483 243.308 198.31 244.512C199.401 246.119 201.696 246.419 203.582 245.963C205.475 245.508 207.167 244.467 209.031 243.909C211.643 243.13 214.441 243.338 217.124 243.81C219.14 244.156 221.127 244.69 223.076 245.33C223.284 244.828 223.508 244.334 223.733 243.832C224.984 240.952 225.827 237.91 226.67 234.884C228.401 228.667 230.132 222.452 231.864 216.23C232.667 213.334 233.486 210.353 233.209 207.356C233.1 206.145 232.808 204.933 232.885 203.719C233.1 200.175 236.324 197.319 236.433 193.775C236.462 192.802 236.292 191.713 236.919 190.972C237.297 190.533 237.869 190.331 238.326 189.967C239.159 189.289 239.454 188.153 239.608 187.079C240.087 183.636 239.624 180.062 238.263 176.858Z" fill="#FFC5C7" stroke="#5E5959" stroke-width="0.7515" stroke-miterlimit="10" stroke-linecap="round" stroke-linejoin="round"/>
</svg>
