<svg width="225" height="207" viewBox="0 0 225 207" fill="none" xmlns="http://www.w3.org/2000/svg">
<path d="M96.0736 206.537C98.7092 205.897 97.7891 202.661 95.571 202.22C94.0414 201.92 91.7461 199.911 90.262 200.87C89.1638 201.58 89.2945 203.201 89.6427 204.46C89.8129 205.116 90.0681 205.828 90.6716 206.136C90.9645 206.29 91.3127 206.322 91.6452 206.344C92.7117 206.421 93.7703 206.498 94.829 206.577C95.2465 206.606 95.6719 206.638 96.0736 206.537Z" fill="#FFC5C7" stroke="#5E5959" stroke-width="0.7515" stroke-miterlimit="10" stroke-linecap="round" stroke-linejoin="round"/>
<path d="M86.2412 191.01C88.1507 192.06 87.6401 194.632 85.4912 195.025C84.1853 195.264 81.8662 193.588 82.2066 192.06C82.2461 191.866 82.3846 191.712 82.5172 191.582C83.0969 191.016 83.8687 190.639 84.68 190.623C85.2221 190.607 85.7623 190.755 86.2412 191.01Z" fill="#FFC5C7" stroke="#5E5959" stroke-width="0.7515" stroke-miterlimit="10" stroke-linecap="round" stroke-linejoin="round"/>
<path d="M84.1637 167.035C88.6297 165.644 86.6747 174.392 82.6084 171.491C80.5228 170 82.3472 167.599 84.1637 167.035Z" fill="#FFC5C7" stroke="#5E5959" stroke-width="0.7515" stroke-miterlimit="10" stroke-linecap="round" stroke-linejoin="round"/>
<path d="M87.8799 173.072C87.8106 174.039 88.1212 175.181 88.4537 175.859C88.6535 176.276 88.9009 176.725 89.3342 176.879C89.7122 177.01 90.1376 176.879 90.5175 177.004C91.0735 177.18 91.3901 177.844 91.962 177.968C92.4646 178.077 92.9434 177.729 93.3451 177.397C93.8952 176.933 94.4591 176.439 94.6906 175.761C94.9221 175.088 94.6511 174.185 93.9644 173.984C92.8662 173.667 92.3023 174.448 91.4356 173.551C90.8559 172.95 91.5979 171.783 90.1376 171.451C88.5388 171.096 87.965 171.969 87.8799 173.072Z" fill="#FFC5C7" stroke="#5E5959" stroke-width="0.7515" stroke-miterlimit="10" stroke-linecap="round" stroke-linejoin="round"/>
<path d="M62.4826 161.151C62.8368 160.001 62.6053 158.481 61.4932 158.024C60.2783 157.522 59.0257 158.587 58.1769 159.576C57.4269 160.457 56.7008 161.353 56.0042 162.264C55.092 163.452 54.1957 164.757 54.0948 166.247C54.0097 167.445 54.4509 168.625 55.007 169.69C55.7035 171.042 56.7938 172.416 58.3075 172.549C60.2704 172.719 62.0176 170.71 63.9429 171.104C64.77 171.274 65.4348 171.853 66.169 172.246C67.3206 172.865 68.8422 172.987 69.8474 172.161C70.8526 171.343 70.8368 169.429 69.6317 168.927C68.9431 168.633 67.9854 168.803 67.56 168.186C67.1029 167.53 67.6688 166.688 67.9083 165.931C68.2011 164.996 67.9459 163.908 67.2276 163.244C66.5172 162.572 65.3794 162.394 64.5147 162.843C63.6876 163.274 63.1929 164.169 62.9614 165.073C62.6211 166.393 61.6476 166.911 61.0817 165.429C60.5811 164.108 62.1027 162.349 62.4826 161.151Z" fill="#FFC5C7" stroke="#5E5959" stroke-width="0.7515" stroke-miterlimit="10" stroke-linecap="round" stroke-linejoin="round"/>
<path d="M47.2623 163.646C47.664 163.367 48.129 163.205 48.5228 162.912C50.1157 161.746 49.7892 159.313 49.3024 157.399C49.0551 156.464 48.778 155.46 48.0281 154.851C47.201 154.171 46.0098 154.155 44.967 154.387C42.2542 154.982 39.9351 157.128 39.1317 159.785C38.8211 160.787 38.6984 161.9 38.0177 162.695C37.4934 163.306 36.7355 163.63 36.0627 164.063C33.4726 165.707 32.1824 169.151 33.0551 172.092C33.9059 174.95 36.411 176.949 38.2492 179.297C38.5282 179.659 38.8152 180.06 38.8448 180.524C38.8844 181.042 38.6054 181.521 38.3897 181.991C37.6081 183.729 37.6635 185.852 38.6905 187.451C39.7273 189.048 41.7516 189.991 43.6057 189.589C45.4696 189.18 46.9536 187.35 46.8151 185.458C46.7597 184.709 46.5045 183.867 46.9616 183.272C47.2247 182.934 47.664 182.778 48.0736 182.647C49.0709 182.323 50.2542 182.031 51.0892 182.671C51.7758 183.203 51.9242 184.207 51.7996 185.073C51.6828 185.937 51.3524 186.779 51.3128 187.65C51.204 190.107 53.8871 192.252 56.2675 191.612C57.6665 191.226 59.2198 190.099 60.3872 190.963C60.967 191.388 61.1609 192.145 61.5844 192.724C62.4036 193.827 64.1666 194.067 65.249 193.227C66.3313 192.377 66.5312 190.607 65.6586 189.55C65.342 189.157 64.8849 188.824 64.8077 188.322C64.6851 187.536 65.5497 186.994 66.1691 186.492C68.1775 184.863 68.3556 181.922 68.3635 179.342C68.3714 178.208 68.3556 177.01 67.7837 176.029C66.9349 174.579 65.1026 174.031 63.4246 173.821C59.3128 173.306 57.0788 175.745 53.4617 176.956C52.504 177.273 51.1743 177.049 50.8874 176.069C50.733 175.527 50.9566 174.95 50.9962 174.385C51.0813 173.149 50.0919 171.938 48.8631 171.768C45.5705 171.313 44.4031 165.598 47.2623 163.646Z" fill="#FFC5C7" stroke="#5E5959" stroke-width="0.7515" stroke-miterlimit="10" stroke-linecap="round" stroke-linejoin="round"/>
<path d="M107.228 171.443C108.571 171.884 109.06 173.521 108.071 174.578C106.523 176.247 102.776 173.72 104.414 172.185C105.156 171.491 106.254 171.127 107.228 171.443Z" fill="#FFC5C7" stroke="#5E5959" stroke-width="0.7515" stroke-miterlimit="10" stroke-linecap="round" stroke-linejoin="round"/>
<path d="M111.1 170.555C111.611 171.374 113.024 171.382 113.303 172.301C113.504 172.957 112.933 173.613 112.305 173.898C111.68 174.177 110.968 174.246 110.374 174.578C109.26 175.211 108.835 176.818 109.499 177.915C110.049 178.81 111.116 179.265 111.725 180.123C112.382 181.048 112.446 182.368 113.295 183.125C114.161 183.906 115.723 183.675 116.332 182.678C116.997 181.581 116.494 180.16 116.742 178.903C116.975 177.697 117.856 176.756 118.489 175.713C119.124 174.671 119.486 173.226 118.691 172.293C118.358 171.9 117.832 171.605 117.747 171.095C117.561 169.923 119.656 169.83 120.183 168.765C120.693 167.737 119.619 166.055 120.646 165.553C120.885 165.436 121.164 165.452 121.427 165.398C122.771 165.112 123.002 163.143 122.246 162C122.013 161.645 121.696 161.313 121.287 161.196C120.305 160.919 119.462 161.977 119.138 162.941C118.805 163.908 118.582 165.058 117.685 165.553C117.276 165.776 116.797 165.808 116.348 165.938C114.579 166.424 114.478 168.13 112.877 168.794C111.927 169.196 110.071 168.927 111.1 170.555Z" fill="#FFC5C7" stroke="#5E5959" stroke-width="0.7515" stroke-miterlimit="10" stroke-linecap="round" stroke-linejoin="round"/>
<path d="M126.087 176.608C125.863 176.092 125.236 175.697 124.727 175.952C124.31 176.169 124.185 176.693 124.1 177.157C123.985 177.822 123.861 178.492 123.744 179.156C123.714 179.334 123.667 179.528 123.536 179.636C123.15 179.952 122.677 179.358 122.199 179.211C121.773 179.079 121.31 179.35 121.079 179.729C120.839 180.107 120.784 180.561 120.73 180.994C120.629 181.789 120.637 182.785 121.35 183.149C121.704 183.335 122.145 183.279 122.523 183.42C123.196 183.667 123.512 184.453 123.544 185.165C123.568 185.883 123.39 186.592 123.435 187.304C123.475 188.021 123.823 188.8 124.502 189.018C125.159 189.217 125.893 188.792 126.203 188.183C126.512 187.565 126.465 186.831 126.273 186.167C126.055 185.465 125.709 184.623 126.203 184.076C126.581 183.651 127.262 183.704 127.794 183.497C129.743 182.755 128.451 181.042 127.61 180.229C127.108 179.751 126.589 179.775 126.273 179.065C125.932 178.33 126.427 177.389 126.087 176.608Z" fill="#FFC5C7" stroke="#5E5959" stroke-width="0.7515" stroke-miterlimit="10" stroke-linecap="round" stroke-linejoin="round"/>
<path d="M127.587 151.446C127.773 150.325 128.816 149.562 129.821 149.028C130.06 148.906 130.331 148.773 130.601 148.813C131.236 148.898 131.42 149.762 131.188 150.357C130.515 152.009 130.664 151.121 131.204 152.588C131.497 153.375 131.954 153.863 131.869 154.78C131.845 155.035 131.792 155.306 131.629 155.5C130.292 157.152 127.393 152.665 127.587 151.446Z" fill="#FFC5C7" stroke="#5E5959" stroke-width="0.7515" stroke-miterlimit="10" stroke-linecap="round" stroke-linejoin="round"/>
<path d="M170.161 145.531C170.268 144.527 170.369 143.523 170.478 142.519C170.492 142.341 170.515 142.157 170.454 141.987C170.345 141.7 170.052 141.538 169.789 141.368C168.374 140.473 167.571 138.706 167.834 137.045C167.896 136.628 168.034 136.203 168.289 135.863C168.598 135.47 169.047 135.207 169.518 135.021C170.64 134.582 171.976 134.527 173.013 135.154C174.04 135.778 174.635 137.176 174.119 138.265C173.901 138.727 173.531 139.099 173.298 139.554C172.866 140.412 173.021 141.429 173.191 142.372C173.361 143.315 173.531 144.325 173.129 145.199C172.704 146.11 169.991 147.184 170.161 145.531Z" fill="#FFC5C7" stroke="#5E5959" stroke-width="0.7515" stroke-miterlimit="10" stroke-linecap="round" stroke-linejoin="round"/>
<path d="M153.975 144.888C154.252 144.628 154.577 144.434 154.856 144.179C156.092 143.068 156.039 140.844 154.747 139.8C153.457 138.751 151.27 139.152 150.435 140.589C149.483 142.21 150.265 144.418 149.337 146.047C148.741 147.098 147.552 147.699 146.911 148.727C146.268 149.753 146.106 151.267 144.962 151.676C144.313 151.908 143.61 151.661 142.93 151.568C141.77 151.398 140.486 151.746 139.768 152.665C139.05 153.584 139.119 155.104 140.077 155.776C140.587 156.132 141.244 156.209 141.808 156.48C143.347 157.213 143.765 159.545 142.597 160.773C141.909 160 141.191 159.213 140.247 158.788C139.305 158.371 138.06 158.417 137.372 159.19C136.808 159.83 136.606 160.903 135.779 161.113C134.635 161.406 134.055 159.777 133.143 159.028C131.699 157.846 129.573 159.004 128.167 160.216C125.353 162.641 122.571 166.047 123.42 169.66C123.738 171.002 124.773 172.331 126.156 172.378C126.829 172.394 127.563 172.115 128.151 172.447C129.286 173.096 128.691 175.311 129.922 175.768C130.832 176.1 131.629 175.011 131.845 174.068C132.071 173.119 132.217 171.969 133.09 171.552C133.608 171.313 134.225 171.412 134.744 171.188C135.517 170.864 135.895 169.937 136.661 169.613C137.534 169.243 138.579 169.852 139.01 170.694C139.443 171.536 139.42 172.532 139.366 173.473C139.289 174.717 138.996 176.215 137.821 176.64C137.356 176.802 136.839 176.756 136.345 176.786C134.613 176.895 132.927 178.324 132.967 180.054C133.004 181.783 135.284 183.149 136.645 182.076C137.063 181.752 137.395 181.234 137.922 181.164C138.709 181.048 139.249 182.044 139.079 182.825C138.911 183.604 138.331 184.207 137.914 184.887C137.504 185.567 137.271 186.507 137.797 187.11C138.531 187.96 140.363 187.689 140.541 188.8C140.68 189.69 139.513 190.113 138.887 190.763C137.805 191.89 138.624 194.037 140.124 194.454C142.845 195.203 143.539 192.515 144.529 190.793C145.518 189.071 147.637 188.184 147.683 185.952C147.706 185.025 147.39 184.114 147.459 183.189C147.629 181.018 149.654 180.724 149.661 178.377C149.661 177.482 149.956 176.361 150.837 176.207C151.369 176.106 151.872 176.424 152.358 176.648C153.263 177.081 154.345 177.259 155.273 176.879C156.201 176.501 156.882 175.45 156.634 174.485C156.456 173.76 155.829 173.234 155.398 172.625C154.972 172.006 154.771 171.058 155.342 170.585C155.582 170.386 155.898 170.324 156.193 170.247C157.677 169.852 159.114 168.749 159.284 167.235C159.454 165.715 157.701 164.169 156.379 164.934C155.983 165.165 155.691 165.545 155.257 165.691C154.161 166.061 153.249 164.525 153.587 163.406C153.928 162.293 154.909 161.522 155.598 160.579C157.382 158.14 156.866 154.788 155.35 152.356C154.153 150.417 151.725 147.075 153.975 144.888Z" fill="#FFC5C7" stroke="#5E5959" stroke-width="0.7515" stroke-miterlimit="10" stroke-linecap="round" stroke-linejoin="round"/>
<path d="M168.56 123.918C168.459 122.645 170.068 121.918 171.35 122.003C172.627 122.088 173.948 122.582 175.153 122.127C178.438 120.892 176.568 114.993 179.481 113.031C180.904 112.082 182.789 112.544 184.491 112.791C187.342 113.216 190.597 112.73 192.444 110.514C193.417 109.34 193.882 107.82 194.778 106.577C198.449 101.465 208.244 102.198 209.728 96.0747C210.43 93.165 209.233 88.9487 212.061 87.9445C212.927 87.6362 213.869 87.8359 214.781 87.905C218.252 88.16 221.901 86.2308 223.231 83.0187C224.56 79.8065 223.092 75.5824 219.875 74.2541C218.353 73.6294 216.606 73.6294 215.153 72.8566C213.228 71.8307 212.231 69.6761 210.731 68.0928C206.898 64.0465 200.244 64.0544 196.039 60.4015C195.249 59.7156 194.515 58.7272 194.794 57.7231C194.978 57.0194 195.606 56.541 196.138 56.0469C197.863 54.4339 198.914 52.0322 198.59 49.6997C198.273 47.3692 196.417 45.2364 194.082 44.8904C192.707 44.6888 191.316 45.0822 189.925 45.0288C186.098 44.8826 182.087 41.4847 178.879 43.5839C176.637 45.0447 176.204 48.5968 173.701 49.5377C172.047 50.1564 170.137 49.338 168.444 49.8618C166.071 50.6031 164.959 53.7164 162.523 54.2244C160.93 54.5564 159.385 53.6452 157.933 52.9118C152.05 49.9172 144.954 49.3914 138.693 51.4906C135.949 46.9522 134.35 40.4884 128.63 40.4429C125.414 40.4113 119.595 40.3579 116.757 42.1251C114.624 43.4613 113.103 46.2801 110.597 46.0943C108.85 45.9717 107.637 44.3884 106.23 43.3526C100.116 38.8596 89.9296 44.6117 84.4327 39.3854C86.6212 32.7121 83.1881 25.6396 79.85 19.4625C79.5255 18.8695 79.1693 18.2349 78.5658 17.9345C77.5468 17.4087 76.1775 17.9957 75.2039 17.3869C73.2331 16.1594 75.5917 12.5223 73.9296 10.8995C72.9541 9.95067 71.3474 10.429 70.0711 10.8995C65.712 12.4986 59.7679 12.7378 57.5042 8.69151C56.5069 6.91646 56.1429 4.32108 54.1562 3.87436C51.9935 3.38809 49.8604 6.15146 47.85 5.21649C47.1614 4.90022 46.73 4.22025 46.2413 3.64108C45.2519 2.47682 43.8925 1.68022 42.4243 1.29477C42.5015 2.0202 42.4777 2.73181 42.1156 3.35645C40.8235 5.58812 37.2598 4.25189 34.9427 5.38651C33.148 6.26811 32.4218 8.49187 30.7755 9.61856C29.3924 10.5595 27.568 10.6069 26.1295 11.4628C23.4245 13.0778 22.7063 17.1853 19.7224 18.2053C18.4777 18.6362 16.9858 18.4366 15.9351 19.2312C13.7862 20.86 15.6026 24.3053 15.007 26.9224C14.7063 28.2191 13.802 29.2767 13.1213 30.4271C12.4189 31.625 11.9459 32.9454 11.4829 34.2579C9.74362 39.1759 7.99641 44.1018 6.25117 49.0277C5.42407 51.3839 4.61081 54.1018 5.87126 56.2643C6.45894 57.2744 7.41662 57.9939 8.24373 58.8261C11.1267 61.7377 12.2724 66.2465 11.1188 70.1781C10.8656 71.0657 10.5015 72.0619 10.9427 72.8803C11.5304 73.9833 13.1134 73.9912 14.1186 74.7324C16.2299 76.2841 14.5361 79.8441 12.132 80.9017C11.3682 81.2337 10.5094 81.4729 9.95338 82.0995C8.94027 83.2104 9.31821 84.94 9.65063 86.4087C10.1611 88.7016 10.363 91.2337 9.24895 93.3112C7.7273 96.1438 4.58112 97.063 1.34985 98.0059C1.92171 99.6109 2.36296 101.263 2.67164 102.916C3.66892 108.206 4.01719 114.221 8.06765 117.781C11.3207 120.645 16.6158 121.501 18.2304 125.533C18.6717 126.628 18.7647 127.848 19.2198 128.945C20.9512 133.114 27.0892 133.979 28.8661 138.127C30.8151 142.667 26.4243 148.303 26.8794 152.758C28.0785 152.641 29.238 152.734 30.2571 153.553C31.0842 154.209 31.9964 155.021 33.0412 154.865C33.9672 154.727 34.6103 153.863 35.4592 153.468C36.7513 152.867 38.2353 153.398 39.6422 153.622C43.1663 154.179 47.2247 152.139 47.9746 148.65C48.214 147.524 48.1131 146.35 48.2991 145.207C48.4752 144.064 49.0629 142.875 50.1453 142.473C50.3392 142.404 50.547 142.365 50.7409 142.404C51.6531 142.596 51.3662 143.94 51.3128 144.867C51.2356 146.272 52.2942 147.553 53.5784 148.117C54.8685 148.68 56.3368 148.666 57.7278 148.512C58.2838 148.449 58.8497 148.364 59.3048 148.048C60.0014 147.569 60.2625 146.69 60.4881 145.871C60.773 144.798 61.0679 143.685 60.9274 142.582C60.7968 141.469 60.124 140.358 59.0496 140.032C58.2304 139.793 56.9561 139.655 57.1025 138.812C57.1559 138.544 57.3796 138.334 57.619 138.188C59.012 137.362 61.0976 138.605 61.0362 140.218C62.3204 139.825 63.3236 138.65 63.5334 137.322C63.7115 136.142 63.6481 134.434 64.8472 134.296C66.0068 134.165 66.3847 135.818 66.2917 136.982C66.0681 139.886 65.8366 142.835 64.8472 145.577C64.5603 146.371 64.1982 147.184 64.214 148.032C64.22 148.589 64.3901 149.137 64.3763 149.692C64.3288 150.866 63.4562 151.892 63.3929 153.066C63.2781 155.221 65.8663 156.549 68.0231 156.48C69.6615 156.425 71.6403 156.063 72.6296 157.36C73.5735 158.603 73.0332 160.819 74.4243 161.529C74.8418 161.738 75.3286 161.738 75.7916 161.73C77.7248 161.698 79.6481 161.669 81.5734 161.637C82.5707 161.621 83.5977 161.6 84.5099 161.204C85.4221 160.811 86.2037 159.939 86.1799 158.943C86.1641 158.247 85.7624 157.569 85.8554 156.873C86.0573 155.436 87.9964 155.152 89.4488 155.237C90.3472 155.282 91.2435 155.338 92.1319 155.391C94.4589 155.521 93.6932 156.943 94.7201 158.348C95.7807 159.799 98.1908 160.101 99.2969 158.563C100.989 156.209 98.3155 152.056 102.582 151.299C103.541 151.121 104.693 151.778 104.715 152.758C104.731 153.305 104.414 153.808 104.345 154.357C104.159 155.739 105.597 157.02 105.257 158.38C104.893 159.799 102.983 160.054 101.848 160.989C98.1136 164.063 103.332 166.703 106.137 166.379C107.629 166.209 109.066 165.691 110.558 165.529C112.329 165.336 114.494 165.482 115.451 163.993C116.542 162.293 115.05 159.892 115.908 158.069C116.464 156.881 117.917 156.209 118.233 154.936C118.643 153.252 116.943 151.105 118.249 149.963C118.512 149.74 118.869 149.599 119.039 149.291C119.486 148.473 118.156 147.808 117.23 147.917C116.294 148.032 115.026 148.14 114.741 147.245C115.018 146.52 115.853 146.14 116.635 146.118C117.414 146.095 118.172 146.357 118.93 146.52C120.552 146.86 122.345 146.767 123.699 145.816C125.848 144.288 126.033 140.773 124.233 138.852C122.345 136.836 119.215 136.836 116.981 138.212C115.22 139.291 111.943 143.446 109.709 141.562C108.611 140.627 109.561 138.35 110.219 137.362C111.209 135.887 113.172 135.122 114.895 135.053C117.307 134.952 119.64 135.818 122.036 136.158C122.957 136.288 124.077 136.265 124.619 135.5C125.06 134.867 124.896 133.972 124.441 133.355C123.991 132.728 123.305 132.327 122.64 131.949C121.342 131.192 120.042 130.443 118.736 129.686C119.68 128.374 121.611 127.879 123.073 128.575C124.1 129.069 124.797 129.5 125.885 129.832C126.983 130.172 128.267 130.087 129.132 129.346C129.55 128.984 129.85 128.49 130.331 128.227C131.135 127.794 132.148 128.158 132.874 128.714C133.592 129.261 134.188 129.994 134.983 130.427C135.393 130.651 135.903 130.852 136.028 131.301C136.252 132.149 135.015 132.497 134.241 132.93C133.377 133.408 132.904 134.505 133.159 135.462C133.414 136.419 134.366 137.146 135.355 137.138C136.507 137.122 137.473 136.257 138.6 136.057C139.792 135.84 141.098 136.365 142.196 135.847C143.688 135.154 143.787 133.1 143.656 131.455C143.47 128.984 143.053 126.126 140.927 124.853C140.356 124.505 139.707 124.312 139.127 123.972C137.611 123.1 136.776 121.054 137.526 119.471C138.276 117.895 140.726 117.348 141.893 118.644C142.93 119.787 142.744 121.748 143.949 122.691C145.983 124.282 149.159 121.24 151.401 122.513C152.861 123.347 152.885 125.393 153.465 126.968C154.507 129.848 158.164 131.463 160.994 130.281C162.337 129.726 163.8 128.644 165.074 129.338C165.561 129.609 165.885 130.087 166.295 130.467C167.834 131.872 170.238 131.554 172.286 131.153C172.51 131.107 172.718 131.123 172.927 131.115C171.651 129.131 170.369 127.146 169.093 125.162C168.845 124.776 168.598 124.375 168.56 123.918Z" fill="#FFC5C7" stroke="#5E5959" stroke-width="0.7515" stroke-miterlimit="10" stroke-linecap="round" stroke-linejoin="round"/>
</svg>
