<svg width="110" height="59" viewBox="0 0 110 59" fill="none" xmlns="http://www.w3.org/2000/svg">
<path d="M109.347 9.25279C109.786 10.4941 109.347 13.305 107.459 12.9729C106.03 12.7259 106.687 11.19 105.642 10.6029C105.11 10.3024 104.307 10.3637 104.073 9.80035C103.996 9.61454 104.02 9.39909 104.06 9.20538C104.329 8.05495 105.504 7.21288 106.679 7.2445C107.863 7.28206 108.951 8.13992 109.347 9.25279Z" fill="#F7F7F7" stroke="#5E5959" stroke-width="0.7515" stroke-miterlimit="10" stroke-linecap="round" stroke-linejoin="round"/>
<path d="M85.4694 1.05283C83.1582 1.2841 81.0568 2.52743 78.7536 2.86742C76.0091 3.27659 73.2032 2.35744 70.435 2.60453C67.089 2.89905 64.1446 4.83618 61.1073 6.25742C59.368 7.07576 57.4882 7.74784 55.5728 7.65493C54.5062 7.60156 53.4694 7.31496 52.4187 7.13705C48.3366 6.46498 44.0012 7.52445 40.6848 9.9953C39.3175 11.0212 37.9641 12.3416 36.2564 12.3733C35.3284 12.395 34.4241 12.0175 33.4961 12.0709C31.4263 12.2033 30.1045 14.3579 28.203 15.2059C25.7672 16.2871 22.5359 15.1446 20.5196 16.8742C19.554 17.7004 19.1048 19.0287 18.0759 19.7779C17.2032 20.4025 16.0595 20.5113 15.1078 21.0133C13.6633 21.7842 12.8599 23.3438 12.0091 24.7433C10.1689 27.7617 7.69547 30.4026 4.79861 32.4405C3.63116 33.2589 2.33903 34.0397 1.67418 35.3048C1.06473 36.471 1.08849 37.8606 1.12608 39.181C1.24283 42.6027 1.48226 46.3544 3.83101 48.8411C5.11521 50.1911 6.87626 50.9877 8.32271 52.1757C10.7407 54.1682 12.3415 57.2953 15.2938 58.3608C15.7964 58.5466 16.3465 58.6553 16.8629 58.5466C18.533 58.1769 18.8575 56.0144 19.4451 54.4074C20.3336 51.9998 23.4481 50.1457 25.4961 51.7053C26.0145 52.1065 26.4083 52.6778 27.0197 52.9328C29.0756 53.7907 30.9 50.2998 33.0727 50.8098C34.155 51.0648 34.8891 52.2765 36.0012 52.3081C36.8738 52.3319 37.6237 51.5827 38.4983 51.5748C40.1981 51.559 41.1261 54.184 42.81 53.9527C43.4293 53.8598 43.9003 53.3894 44.4108 53.0257C49.2725 49.5052 57.1795 55.374 61.7721 51.5116C63.7113 49.8907 64.7323 46.7319 67.2512 46.6252C68.8045 46.556 70.2431 47.8053 71.7806 47.5522C73.5199 47.2656 74.6181 45.1427 76.387 45.1111C77.7781 45.0953 79.2403 46.4077 80.4058 45.6527C81.3893 45.0102 81.1795 43.4368 81.975 42.5631C83.1741 41.2664 85.2616 42.4939 87.0227 42.6402C88.4138 42.7647 89.8444 42.0531 90.6022 40.8809C90.8733 40.456 91.0652 39.9776 91.4214 39.6218C91.9319 39.1118 92.674 38.9419 93.3071 38.594C96.2297 36.981 95.6262 32.4168 97.8127 29.8926C99.6292 27.7914 103.403 26.9276 103.416 24.1483C103.424 23.2826 102.999 22.4563 102.922 21.5846C102.807 20.2246 103.541 18.8825 103.331 17.5304C103.116 16.1784 102.025 15.1604 101.424 13.9329C100.357 11.7308 100.751 8.66698 98.7486 7.26156C97.4664 6.35822 95.7489 6.58157 94.1797 6.53611C89.6208 6.40368 90.5785 0.529003 85.4694 1.05283Z" fill="#F7F7F7" stroke="#5E5959" stroke-width="0.7515" stroke-miterlimit="10" stroke-linecap="round" stroke-linejoin="round"/>
</svg>
