<svg width="201" height="142" viewBox="0 0 201 142" fill="none" xmlns="http://www.w3.org/2000/svg">
<path d="M162.249 136.311C163.363 134.234 163.161 131.71 162.643 129.409C162.318 127.94 161.94 126.21 162.946 125.1C163.509 124.473 164.368 124.234 165.132 123.902C167.536 122.844 169.23 119.284 167.119 117.732C166.114 116.991 164.531 116.983 163.943 115.88C163.502 115.062 163.866 114.066 164.119 113.178C165.273 109.247 164.127 104.738 161.244 101.826C160.417 100.994 159.459 100.274 158.871 99.2643C157.611 97.1018 158.424 94.3839 159.251 92.0277C160.997 87.1018 162.744 82.1759 164.483 77.25C164.946 75.9454 165.419 74.625 166.121 73.4271C166.802 72.2767 167.706 71.2191 168.007 69.9224C168.603 67.3053 166.786 63.86 168.935 62.2312C169.986 61.4366 171.478 61.6362 172.722 61.2053C175.706 60.1853 176.425 56.0778 179.13 54.4629C180.568 53.607 182.393 53.5595 183.776 52.6186C185.422 51.4919 186.148 49.2681 187.943 48.3865C190.26 47.2519 193.832 48.5881 195.116 46.3565C196.097 44.6506 194.605 42.4031 195.284 40.5569C195.787 39.2068 197.257 38.5268 198.26 37.4851C200.217 35.4531 200.14 32.0947 198.856 29.5863C197.565 27.0759 195.316 25.2159 193.129 23.4388C192.124 22.6126 190.988 21.7488 189.688 21.81C186.991 21.9326 185.276 25.9097 182.664 25.2297C180.784 24.7434 180.174 22.1263 178.342 21.5017C175.991 20.713 172.491 23.3242 171.417 21.1004C171.007 20.2505 171.393 19.1376 170.868 18.3588C169.956 17.0067 167.892 18.1571 166.701 19.27C161.315 24.2967 154.225 27.4772 146.884 28.1651C142.23 28.598 137.076 27.8567 133.836 24.4884C131.634 22.2113 130.488 18.9142 127.815 17.2162C126.052 16.1034 123.672 15.71 122.605 13.927C121.291 11.7112 122.651 8.3291 120.743 6.5995C119.182 6.29707 117.852 7.6254 116.576 8.58409C113.206 11.132 108.701 11.4483 104.472 11.6637C99.3631 11.9267 93.0331 11.4937 90.906 6.83865C90.2273 5.34824 89.9879 3.43286 88.5335 2.64613C87.2275 1.94244 85.6347 2.56902 84.1744 2.82994C78.7942 3.79654 73.1133 -0.395996 68.0517 1.67162C63.831 3.39528 62.3787 8.45955 60.1447 12.4208C58.2036 15.8563 55.3364 18.76 51.9349 20.7683C51.9824 20.7901 52.0358 20.798 52.0813 20.8217C52.4771 21.1083 52.6928 21.7172 52.3999 22.1105C52.1902 22.3813 51.8261 22.4663 51.4877 22.5197C49.1291 22.8438 46.2006 22.2647 44.8016 24.188C44.2753 24.9134 44.1209 25.8642 43.6262 26.6134C42.4509 28.3805 39.932 28.4418 37.8068 28.4359C35.0702 28.4359 32.2644 28.6592 29.7356 29.7247C28.8392 30.1022 27.9745 30.5885 27.0089 30.7427C25.6554 30.968 24.2881 30.5114 22.9189 30.3809C21.3735 30.2347 19.8419 30.5114 18.3658 30.9443C17.8572 31.0906 15.089 31.3001 14.9802 31.4147C13.1954 33.3459 19.3473 35.7555 20.4079 35.7397C22.1689 35.7239 24.4642 35.2376 25.2617 36.813C25.5703 37.4219 25.4932 38.1493 25.4081 38.8194C25.2379 40.1022 25.044 41.4069 25.2775 42.6818C25.509 43.9469 26.2589 45.206 27.464 45.6765C30.7566 46.9811 33.9799 41.8694 37.3418 42.9981C38.8021 43.4922 39.368 43.6544 40.86 44.0398C42.3579 44.4253 43.9508 44.8127 45.419 44.3185C47.7222 43.5456 49.0598 40.8119 51.4561 40.4027C52.485 40.2248 53.8207 40.8811 53.6663 41.9168C53.5041 43.0139 52.0042 43.1898 51.0999 43.8402C49.3468 45.0815 49.7168 48.3568 47.6925 49.0981C47.1662 49.2898 46.5943 49.2523 46.0304 49.2049C44.4217 49.0823 42.815 48.9499 41.2063 48.8273C39.9775 48.7265 38.6023 48.681 37.6821 49.5073C36.5919 50.4798 36.7165 52.3181 37.5516 53.5219C38.3866 54.7178 39.738 55.4453 41.0361 56.1233C43.086 57.1966 45.134 58.2699 47.1899 59.3433C48.0249 59.7841 47.9537 60.2091 48.0329 61.15C48.1101 62.0928 47.3601 63.1504 46.4163 63.0495C45.605 62.9566 45.1024 62.1462 44.5147 61.5828C43.2543 60.3711 41.3467 60.1932 39.5995 60.1161C37.5278 60.0153 35.4481 59.962 33.3685 59.954C31.2988 59.9461 28.9401 60.1241 27.6579 61.7449C26.2431 63.5516 26.8921 66.1767 26.3974 68.4162C25.9958 70.2763 24.7037 71.9229 23.0039 72.7788C21.326 73.6208 19.2859 73.7216 17.8019 74.8642C17.1212 75.388 16.6126 76.0917 16.0784 76.7637C13.326 80.2071 9.71678 82.9626 5.67424 84.708C5.14196 84.9334 4.58592 85.1567 4.17434 85.5659C3.34723 86.3763 3.30965 87.7422 3.78851 88.8017C4.25944 89.8592 5.14196 90.6697 6.01458 91.4268C6.85751 92.168 7.71628 92.8856 8.58098 93.5952C9.08358 93.9965 9.60992 94.4076 10.2352 94.5539C11.0227 94.7397 11.836 94.4689 12.6077 94.2297C17.8573 92.5989 23.4828 92.1977 28.9164 93.0555C30.0304 93.2334 31.4749 94.0122 31.0573 95.0638C30.7249 95.8822 29.597 95.8743 28.7165 95.9198C27.0702 96.0127 25.4852 96.8389 24.4642 98.1277C23.8152 98.9619 23.3601 99.9976 22.4638 100.553C21.4348 101.186 20.1289 101.016 18.9238 100.986C14.7408 100.877 10.6527 102.769 7.61535 105.641C3.76474 109.254 2.3737 113.672 0.511719 118.312C2.28862 118.537 4.02793 118.999 5.49021 119.942C8.58099 121.941 7.22161 124.922 9.6317 127.114C13.419 130.559 11.001 136.187 15.0039 139.106C16.4722 140.172 20.1288 140.998 21.6505 139.863C23.7084 138.318 21.9374 135.299 23.5382 133.53C24.488 132.48 26.2807 132.627 27.4244 133.469C28.5701 134.311 29.227 135.639 29.8365 136.92C30.7249 135.469 31.653 133.979 33.0519 133.014C34.443 132.042 36.4454 131.723 37.8206 132.72C37.969 128.984 41.8335 126.529 43.1711 123.038C43.7272 121.593 43.8202 120.012 44.2832 118.529C45.512 114.56 49.4774 111.672 53.6366 111.456C57.794 111.255 61.9136 113.595 64.0863 117.145C65.7563 119.871 67.5491 123.88 70.6557 123.107C73.8177 122.312 73.5624 117.472 75.9824 115.285C77.3042 114.089 79.4294 113.904 80.9352 114.852C82.435 115.795 83.1929 117.796 82.6824 119.502C82.1719 121.184 80.5968 122.807 81.2993 124.42C82.1798 126.436 85.4427 125.764 87.0118 127.307C88.581 128.843 87.56 131.561 86.0304 133.129C85.4427 133.732 84.7304 134.449 84.9164 135.268C85.0252 135.724 85.3952 136.072 85.7672 136.365C89.1904 139.013 94.2777 139.276 97.9483 136.983C99.3393 136.11 101.233 134.943 102.363 136.125C103.065 136.851 102.988 138.163 103.831 138.727C104.789 139.369 105.988 138.511 107.007 137.978C110.408 136.226 114.419 138.195 118.129 139.136C118.879 139.322 119.677 139.468 120.425 139.268C122.574 138.689 123.579 135.53 125.805 135.623C127.321 135.693 128.433 137.345 129.956 137.361C131.773 137.377 132.661 135.238 133.658 133.716C136.603 129.183 143.669 128.915 148.089 132.034C151.135 134.188 153.09 137.454 154.35 141.006C157.581 140.063 160.727 139.144 162.249 136.311Z" fill="#FFC5C7" stroke="#5E5959" stroke-width="0.7515" stroke-miterlimit="10" stroke-linecap="round" stroke-linejoin="round"/>
</svg>
