<svg width="272" height="251" viewBox="0 0 272 251" fill="none" xmlns="http://www.w3.org/2000/svg">
<path d="M32.6314 20.9587C33.5673 22.0854 32.9955 23.4592 31.6341 23.9534C30.2193 24.4712 29.0538 23.5303 28.3652 22.372C28.0645 21.862 27.9635 21.1979 28.2406 20.68C28.5275 20.1542 29.1389 19.8774 29.7246 19.8082C30.807 19.6679 31.9428 20.1166 32.6314 20.9587Z" fill="#F7F7F7" stroke="#5E5959" stroke-width="0.7515" stroke-miterlimit="10" stroke-linecap="round" stroke-linejoin="round"/>
<path d="M42.6637 65.4103C42.9189 66.9324 42.5014 67.9504 41.4982 69.4171C41.3043 69.7037 41.0965 69.9962 40.7859 70.1583C40.4 70.352 39.9508 70.2907 39.5274 70.2295C38.8388 70.1207 38.1284 70.012 37.5091 69.6879C36.8838 69.3637 36.3575 68.7845 36.2882 68.0888C36.2565 67.8041 36.3041 67.4957 36.1636 67.2486C35.9558 66.8849 35.4453 66.8157 35.0278 66.8928C34.6103 66.9778 34.2086 67.1636 33.7911 67.132C32.9323 67.0628 32.3763 66.0982 32.4455 65.2403C32.5227 64.3844 33.0411 63.6412 33.5595 62.9553C34.6795 61.4649 35.9637 61.7041 37.2855 60.7691C38.5222 59.8895 38.9001 58.0432 39.9904 56.9244C41.1658 55.7127 42.9506 54.9557 44.5593 55.4577C44.7433 55.519 44.9293 55.5961 45.0599 55.7424C45.2696 55.9974 45.238 56.3769 45.1608 56.7011C44.8205 58.1223 43.9004 59.3261 43.1208 60.5694C41.9929 62.3603 42.0701 63.0245 42.5331 64.8075C42.5865 65.017 42.634 65.2166 42.6637 65.4103Z" fill="#F7F7F7" stroke="#5E5959" stroke-width="0.7515" stroke-miterlimit="10" stroke-linecap="round" stroke-linejoin="round"/>
<path d="M49.2725 72.0288C48.8095 71.7817 48.3465 71.5425 47.8359 71.4655C46.9158 71.3172 45.9641 72.0427 45.0915 71.7185C44.3949 71.4655 44.0783 70.5602 44.3178 69.8505C44.5592 69.1409 45.2379 68.6467 45.9581 68.4372C46.6764 68.2297 47.4422 68.2672 48.1842 68.3304C49.5278 68.4451 50.9505 68.6922 51.9557 69.5955C53.0994 70.6313 53.3071 72.7147 51.275 72.7227C50.533 72.7227 49.9077 72.3688 49.2725 72.0288Z" fill="#F7F7F7" stroke="#5E5959" stroke-width="0.7515" stroke-miterlimit="10" stroke-linecap="round" stroke-linejoin="round"/>
<path d="M43.6609 77.6558C42.719 77.557 41.5971 77.1933 41.4052 76.2583C41.2726 75.6653 41.6209 75.0387 42.1235 74.6829C42.6261 74.337 43.2434 74.2045 43.8548 74.1432C46.3441 73.8882 52.9372 76.4757 50.0305 80.0278C49.2192 81.0221 47.8123 80.9232 46.9318 80.1049C45.5328 78.7983 45.9958 77.9187 43.6609 77.6558Z" fill="#F7F7F7" stroke="#5E5959" stroke-width="0.7515" stroke-miterlimit="10" stroke-linecap="round" stroke-linejoin="round"/>
<path d="M62.5991 77.4638C64.7243 78.0806 64.3068 80.7056 62.2667 81.0535C58.5091 81.686 59.8784 76.6751 62.5991 77.4638Z" fill="#F7F7F7" stroke="#5E5959" stroke-width="0.7515" stroke-miterlimit="10" stroke-linecap="round" stroke-linejoin="round"/>
<path d="M6.08087 141.605C4.92134 141.93 3.66288 141.953 2.81994 141.728C2.37868 141.613 1.91565 141.475 1.59114 141.149C1.04897 140.609 1.11031 139.645 1.59905 139.057C2.09374 138.47 2.91294 138.231 3.67672 138.285C4.97675 138.378 8.91837 135.134 8.84912 138.826C8.81746 140.293 7.53524 141.188 6.08087 141.605Z" fill="#F7F7F7" stroke="#5E5959" stroke-width="0.7515" stroke-miterlimit="10" stroke-linecap="round" stroke-linejoin="round"/>
<path d="M23.4798 115.476C22.2055 116.272 20.5275 115.978 19.1285 116.517C18.8119 116.642 18.4953 116.82 18.3252 117.112C18.1847 117.344 18.155 117.622 18.1471 117.893C18.1075 118.834 18.2243 119.785 18.0996 120.726C17.969 121.661 17.5277 122.625 16.6868 123.05C15.828 123.483 14.7377 123.236 13.9957 122.625C13.2458 122.024 12.7986 121.121 12.5037 120.21C12.1416 119.044 12.0012 117.777 12.3573 116.618C12.7135 115.452 13.6336 114.418 14.8228 114.139C16.0595 113.855 17.4347 114.394 18.6022 113.884C19.6608 113.414 20.1792 112.248 20.8441 111.299C21.501 110.356 22.3816 109.569 23.3947 109.014C23.7429 108.82 24.1446 108.65 24.5304 108.743C26.804 109.283 24.7244 114.705 23.4798 115.476Z" fill="#F7F7F7" stroke="#5E5959" stroke-width="0.7515" stroke-miterlimit="10" stroke-linecap="round" stroke-linejoin="round"/>
<path d="M20.5274 125.274C20.2563 125.529 19.9556 125.707 19.3758 125.885C18.6259 126.108 17.8383 125.816 17.1102 126.262C16.3306 126.749 16.1287 127.776 16.0674 128.688C15.9823 129.876 16.1762 131.35 17.2883 131.791C17.7058 131.961 18.1767 131.929 18.6338 131.9C19.8012 131.823 20.9608 131.746 22.1282 131.669C22.6288 131.629 23.1473 131.591 23.5885 131.342C24.2831 130.965 24.6234 130.17 24.8945 129.429C25.3971 128.047 26.5408 125.136 25.4584 123.762C24.2989 122.301 22.3439 123.451 21.3229 124.464C20.9766 124.804 20.7589 125.066 20.5274 125.274Z" fill="#F7F7F7" stroke="#5E5959" stroke-width="0.7515" stroke-miterlimit="10" stroke-linecap="round" stroke-linejoin="round"/>
<path d="M31.2323 146.948C30.8306 147.001 30.421 147.009 30.049 146.863C29.4692 146.631 29.0992 146.068 28.8202 145.511C27.6765 143.265 27.2135 138.895 29.4396 137.189C29.6256 137.048 29.8254 136.918 30.049 136.894C30.7218 136.809 31.1789 137.612 31.163 138.284C31.1393 139.357 30.6367 140.316 31.4183 141.257C32.0277 142.006 33.0963 141.783 33.7215 142.524C35.3758 144.453 33.1873 146.685 31.2323 146.948Z" fill="#F7F7F7" stroke="#5E5959" stroke-width="0.7515" stroke-miterlimit="10" stroke-linecap="round" stroke-linejoin="round"/>
<path d="M36.9213 142.987C37.1152 144.369 36.9985 145.79 36.581 147.118C36.4425 147.559 36.2327 148.03 35.8172 148.215C35.3443 148.423 34.7882 148.192 34.2856 148.277C33.3734 148.431 32.9401 149.52 33.0034 150.439C33.0648 151.234 33.5832 152.153 34.3865 152.114C35.4531 152.06 35.6925 150.546 36.5275 149.882C37.2616 149.289 38.3598 149.459 39.2087 149.026C39.7806 148.739 40.1902 148.2 40.5008 147.636C41.2963 146.183 41.5515 144.446 41.2112 142.825C41.0331 141.983 40.578 141.064 39.7351 140.872C39.1474 140.732 38.4746 140.987 37.9423 140.702C36.6977 140.038 36.9985 135.636 35.0198 137.838C32.8253 140.277 36.6819 141.265 36.9213 142.987Z" fill="#F7F7F7" stroke="#5E5959" stroke-width="0.7515" stroke-miterlimit="10" stroke-linecap="round" stroke-linejoin="round"/>
<path d="M45.4081 133.382C45.0915 133.884 44.4108 133.977 43.9399 134.331C43.275 134.817 43.0969 135.728 43.1286 136.555C43.1583 137.535 43.647 138.709 44.6285 138.763C45.2379 138.802 45.7643 138.369 46.2748 138.029C46.7774 137.689 47.4719 137.428 47.9745 137.766C48.3386 138.007 48.4771 138.486 48.8333 138.733C49.3359 139.073 50.0542 138.81 50.4479 138.345C51.1207 137.559 51.1128 136.424 51.0732 135.396C51.0593 135.072 51.0435 134.732 50.9109 134.439C50.5567 133.659 48.5305 131.637 47.6263 131.498C46.166 131.281 46.0037 132.439 45.4081 133.382Z" fill="#F7F7F7" stroke="#5E5959" stroke-width="0.7515" stroke-miterlimit="10" stroke-linecap="round" stroke-linejoin="round"/>
<path d="M36.8679 97.577C36.7512 98.0574 36.6206 98.5436 36.3416 98.9449C35.6392 99.9649 34.2164 100.149 32.9956 100.01C32.2456 99.9174 31.4106 99.6703 31.094 98.9904C30.7992 98.3736 31.0544 97.6403 30.9535 96.9682C30.8625 96.3119 30.4371 95.7624 30.1205 95.1852C29.8019 94.5981 29.5783 93.8787 29.8811 93.2916C30.1739 92.7203 30.8704 92.4732 31.5036 92.3744C32.1447 92.2815 32.8254 92.2578 33.3814 91.9257C34.0859 91.5007 34.4163 90.6824 34.812 89.9569C35.1979 89.2394 35.8173 88.4981 36.6364 88.4902C37.4398 88.4823 38.0888 89.2236 38.259 90.0024C38.7616 92.2973 37.424 95.3928 36.8679 97.577Z" fill="#F7F7F7" stroke="#5E5959" stroke-width="0.7515" stroke-miterlimit="10" stroke-linecap="round" stroke-linejoin="round"/>
<path d="M47.5194 97.053C49.3656 97.9326 47.2325 100.605 46.0967 100.991C44.1338 101.671 41.512 99.6464 42.1471 97.5313C42.4954 96.4046 43.8469 95.6476 44.953 96.0725C45.4694 96.2643 45.8948 96.6813 46.437 96.8296C46.7912 96.9205 47.187 96.8909 47.5194 97.053Z" fill="#F7F7F7" stroke="#5E5959" stroke-width="0.7515" stroke-miterlimit="10" stroke-linecap="round" stroke-linejoin="round"/>
<path d="M40.3465 102.35C39.7113 102.542 38.993 102.435 38.4449 102.071C38.1739 101.894 37.9344 101.647 37.6257 101.562C37.1845 101.431 36.6977 101.654 36.389 101.986C36.0784 102.326 35.9003 102.759 35.7321 103.182C35.3364 104.171 35.0356 105.499 35.8944 106.118C36.5355 106.588 39.2562 106.317 40.0358 106.272C43.3146 106.078 42.9584 101.546 40.3465 102.35Z" fill="#F7F7F7" stroke="#5E5959" stroke-width="0.7515" stroke-miterlimit="10" stroke-linecap="round" stroke-linejoin="round"/>
<path d="M42.7802 113.553C42.424 113.677 42.1232 113.932 41.7829 114.086C41.4346 114.241 40.9795 114.272 40.7243 113.986C40.5778 113.823 40.5303 113.592 40.4927 113.369C40.4314 112.981 40.3681 112.558 40.5541 112.21C40.9558 111.43 42.0995 111.608 42.9503 111.376C43.8309 111.137 44.4581 110.388 45.0913 109.732C49.1794 105.569 50.8336 113.94 47.0938 114.65C45.586 114.936 44.4186 112.989 42.7802 113.553Z" fill="#F7F7F7" stroke="#5E5959" stroke-width="0.7515" stroke-miterlimit="10" stroke-linecap="round" stroke-linejoin="round"/>
<path d="M38.3599 121.251C38.6528 121.977 39.2642 122.603 40.028 122.773C41.6209 123.119 43.3839 121.514 44.775 122.356C45.8494 123.005 45.9721 124.764 47.1633 125.151C50.3708 126.185 50.3787 121.097 49.5892 119.32C48.6552 117.189 47.6817 117.994 45.7485 117.577C44.1101 117.221 42.7646 116.031 41.0114 116.155C38.629 116.325 37.4853 119.081 38.3599 121.251Z" fill="#F7F7F7" stroke="#5E5959" stroke-width="0.7515" stroke-miterlimit="10" stroke-linecap="round" stroke-linejoin="round"/>
<path d="M60.0703 89.1616C60.6046 89.6084 60.8678 90.4109 60.5729 91.0454C60.1633 91.9567 58.9266 92.1188 57.9294 91.9864C56.7085 91.8243 55.4184 91.3301 54.799 90.2568C54.4369 89.6321 54.1045 86.8055 55.4955 87.0367C56.3998 87.1929 56.3305 88.3572 57.0567 88.6972C58.0144 89.1459 59.0592 88.3196 60.0703 89.1616Z" fill="#F7F7F7" stroke="#5E5959" stroke-width="0.7515" stroke-miterlimit="10" stroke-linecap="round" stroke-linejoin="round"/>
<path d="M65.6209 85.2697C65.3498 84.2813 64.77 83.4314 63.8816 83.3306C63.2939 83.2614 62.6844 83.6409 62.4826 84.1963C62.2828 84.7518 62.5063 85.4318 63.001 85.7638C64.1685 86.5288 64.3683 90.581 65.5813 87.8631C65.8682 87.2306 65.8761 86.1888 65.6209 85.2697Z" fill="#F7F7F7" stroke="#5E5959" stroke-width="0.7515" stroke-miterlimit="10" stroke-linecap="round" stroke-linejoin="round"/>
<path d="M68.0784 91.8323C67.4215 92.0181 66.8041 92.4589 66.5865 93.0994C66.4163 93.6172 66.5251 94.1806 66.4934 94.7281C66.4321 95.9399 65.6446 97.029 64.6394 97.7248C63.6342 98.4186 62.445 98.7665 61.2538 99.0373C60.3178 99.2528 59.3364 99.4386 58.5726 100.01C57.7989 100.581 57.3201 101.686 57.7752 102.526C58.1076 103.137 58.8338 103.445 59.5303 103.461C60.2248 103.477 60.9055 103.254 61.5625 103.028C63.1316 102.497 64.6928 101.963 66.2619 101.439C68.6582 100.621 71.3413 99.5473 72.2614 97.1911C73.3339 94.4198 71.1929 90.9685 68.0784 91.8323Z" fill="#F7F7F7" stroke="#5E5959" stroke-width="0.7515" stroke-miterlimit="10" stroke-linecap="round" stroke-linejoin="round"/>
<path d="M75.2353 104.749C75.4688 103.468 75.5835 102.302 75.6845 101.978C75.9476 101.136 76.0861 100.163 75.6073 99.43C73.496 96.2021 71.3095 103.407 71.2165 104.534C71.1314 105.591 71.1552 106.75 71.7884 107.608C73.8759 110.418 74.7802 107.361 75.2353 104.749Z" fill="#F7F7F7" stroke="#5E5959" stroke-width="0.7515" stroke-miterlimit="10" stroke-linecap="round" stroke-linejoin="round"/>
<path d="M67.7379 114.07C68.0407 111.817 71.8359 112.58 71.448 114.673C71.1018 116.541 67.4688 116.156 67.7379 114.07Z" fill="#F7F7F7" stroke="#5E5959" stroke-width="0.7515" stroke-miterlimit="10" stroke-linecap="round" stroke-linejoin="round"/>
<path d="M66.6555 69.4406C65.0646 70.1127 63.2323 69.9743 61.5544 69.5335C60.6422 70.6997 61.5168 73.0164 60.1178 73.5106C59.0968 73.8644 58.24 72.6152 58.054 71.5477C57.868 70.4823 57.8146 69.1935 56.8866 68.638C56.2059 68.2289 55.3412 68.4147 54.5517 68.3514C53.3545 68.2585 52.2801 67.5885 51.267 66.9381C50.2934 66.3135 49.2427 65.596 48.9103 64.4752C48.4235 62.8543 49.8146 61.1247 51.453 60.7076C53.0993 60.2905 54.8386 60.8539 56.3523 61.611C57.0171 61.9351 57.7295 62.3146 58.4478 62.1446C59.5143 61.8976 59.9556 60.6147 60.009 59.5196C60.0624 58.4225 59.9477 57.2247 60.5888 56.3372C61.1764 55.5346 62.2192 55.2263 63.1928 54.9792C64.2534 54.7084 65.4268 54.4455 66.3944 54.9634C66.8732 55.2184 67.267 55.6572 67.8012 55.7738C69.0439 56.0525 70.1124 54.4455 71.3629 54.6629C72.3444 54.8309 72.7936 56.013 72.756 57.0092C72.7164 57.9976 72.3919 59.0017 72.6234 59.9664C72.847 60.9626 74.2083 63.0559 72.7401 63.8584C71.8358 64.3526 71.2937 63.1626 70.4507 63.2635C68.7668 63.473 69.5168 64.7855 69.3545 66.0051C69.1369 67.5489 68.102 68.8318 66.6555 69.4406Z" fill="#F7F7F7" stroke="#5E5959" stroke-width="0.7515" stroke-miterlimit="10" stroke-linecap="round" stroke-linejoin="round"/>
<path d="M26.054 184.558C25.9075 184.699 25.767 184.861 25.6899 185.053C25.4584 185.656 25.9926 186.312 26.5862 186.567C27.3837 186.907 28.2959 186.822 29.1606 186.891C30.0273 186.96 30.985 187.276 31.3411 188.073C31.7507 189.022 31.1017 190.087 31.1176 191.123C31.1393 192.149 31.9288 193.114 32.932 193.347C33.4742 193.461 34.0382 193.392 34.5803 193.291C35.8546 193.068 37.0992 192.712 38.3043 192.242C39.2086 191.886 40.19 191.346 40.4156 190.398C40.6075 189.577 40.1287 188.706 39.4262 188.243C38.7297 187.771 37.8571 187.64 37.0062 187.64C33.7591 187.616 33.6978 186.195 31.5192 184.444C29.9798 183.208 27.5143 183.153 26.054 184.558Z" fill="#F7F7F7" stroke="#5E5959" stroke-width="0.7515" stroke-miterlimit="10" stroke-linecap="round" stroke-linejoin="round"/>
<path d="M67.1285 148.609C66.3785 146.246 63.5193 144.794 61.1685 145.59C60.7748 145.713 60.381 145.914 60.1475 146.252C59.3066 147.488 61.1072 148.956 61.0914 150.453C61.0755 151.427 60.2563 152.222 59.3758 152.623C58.4874 153.024 57.498 153.165 56.5858 153.511C55.3175 153.997 54.2113 154.916 53.501 156.082C53.03 156.855 52.7194 157.743 52.1337 158.439C51.4372 159.265 50.4161 159.735 49.4663 160.245C46.3815 161.882 43.6469 164.159 41.4663 166.885C40.5166 168.075 39.6499 169.387 39.3412 170.876C38.6842 174.005 40.9875 177.448 44.1337 178.035C45.3704 178.267 46.8149 178.174 47.6895 179.093C47.9823 179.401 48.1762 179.81 48.4453 180.143C49.7988 181.833 52.7055 181.247 54.0807 179.571C54.4666 179.101 54.8149 178.53 55.3946 178.336C56.3464 178.012 57.6365 178.777 58.2776 178.012C59.9081 178.482 61.0597 177.632 62.6922 177.146C63.1018 177.023 63.5727 176.938 63.9507 177.154C64.6551 177.555 64.5225 178.713 65.1656 179.215C65.6741 179.617 66.4082 179.425 67.0197 179.215C67.7458 178.96 68.5492 178.62 68.7906 177.903C68.937 177.456 68.8203 176.97 68.8044 176.498C68.7589 175.557 69.129 174.598 69.7879 173.926C70.6981 173.001 72.57 173.588 72.8549 172.321C72.9321 171.973 72.847 171.611 72.9103 171.263C73.126 170.065 74.7644 169.842 75.6152 168.97C76.3573 168.213 76.4186 167.015 76.2564 165.966C76.102 164.916 75.7617 163.867 75.8705 162.807C75.9853 161.696 76.5809 160.7 77.1072 159.719C77.6395 158.739 78.1421 157.658 78.0412 156.545C77.9422 155.434 77.0221 154.323 75.9002 154.414C75.6924 154.438 75.4748 154.491 75.267 154.454C74.7961 154.361 74.5784 153.835 74.3785 153.404C73.0864 150.569 70.0649 149.65 67.1285 148.609Z" fill="#F7F7F7" stroke="#5E5959" stroke-width="0.7515" stroke-miterlimit="10" stroke-linecap="round" stroke-linejoin="round"/>
<path d="M71.4106 244.098C70.352 243.412 69.0995 243.104 67.7618 243.535C66.911 243.806 66.0146 244.555 66.2402 245.419C66.6023 246.872 69.2993 246.362 69.8177 247.767C70.0196 248.307 69.794 248.971 70.0967 249.465C70.3441 249.874 70.908 250.022 71.3869 249.922C71.8657 249.821 72.2753 249.542 72.677 249.265C73.3893 248.763 74.1927 248.068 74.0463 247.212C73.9988 246.925 73.8445 246.678 73.6822 246.431C73.0945 245.535 72.3228 244.678 71.4106 244.098Z" fill="#F7F7F7" stroke="#5E5959" stroke-width="0.7515" stroke-miterlimit="10" stroke-linecap="round" stroke-linejoin="round"/>
<path d="M106.563 207.453C107.653 206.613 108.789 208.365 109.794 206.412C110.528 204.99 109.996 203.077 108.868 202.017C107.552 200.79 105.536 200.489 103.804 200.992C102.698 201.308 101.624 201.988 101.206 203.061C100.953 203.725 100.983 204.467 101.03 205.184C101.129 206.621 101.368 208.141 102.544 209.106C103.634 210.009 105.296 210.341 105.892 208.697C106.038 208.311 106.115 207.886 106.408 207.594C106.456 207.538 106.509 207.493 106.563 207.453Z" fill="#F7F7F7" stroke="#5E5959" stroke-width="0.7515" stroke-miterlimit="10" stroke-linecap="round" stroke-linejoin="round"/>
<path d="M99.7379 218.093C98.6635 218.271 97.5672 217.979 96.5066 217.684C95.9902 217.546 95.4401 217.384 95.0463 217.004C94.4982 216.472 94.3973 215.622 94.4903 214.865C94.6051 213.978 94.9612 213.09 95.6498 212.511C96.3365 211.94 97.3812 211.754 98.147 212.225C98.2301 211.539 98.3785 210.75 98.9741 210.404C99.6311 210.017 100.458 210.364 101.091 210.766C101.918 211.292 102.698 211.924 103.171 212.774C104.584 215.298 102.227 217.684 99.7379 218.093Z" fill="#F7F7F7" stroke="#5E5959" stroke-width="0.7515" stroke-miterlimit="10" stroke-linecap="round" stroke-linejoin="round"/>
<path d="M115.283 208.504C114.533 208.959 114.03 209.808 113.983 210.688C113.953 211.344 114.161 212.04 113.906 212.641C113.605 213.382 112.746 213.722 112.238 214.333C111.525 215.175 111.581 216.448 112.052 217.437C112.538 218.425 113.365 219.19 114.177 219.923C114.4 220.131 114.648 220.348 114.95 220.402C115.174 220.441 115.406 220.386 115.615 220.301C116.573 219.923 117.192 218.85 117.044 217.838C116.951 217.197 116.589 216.581 116.698 215.938C116.82 215.213 117.501 214.734 117.948 214.147C119.41 212.232 118.839 206.333 115.283 208.504Z" fill="#F7F7F7" stroke="#5E5959" stroke-width="0.7515" stroke-miterlimit="10" stroke-linecap="round" stroke-linejoin="round"/>
<path d="M132.071 207.415C131.422 207.925 130.177 207.545 129.937 208.286C129.706 208.99 130.1 211.421 128.461 209.545C127.897 208.889 127.581 207.662 127.65 206.503C127.727 205.321 128.214 204.218 129.273 203.902C130.579 203.507 132.52 205.122 132.464 206.487C132.443 206.958 132.286 207.237 132.071 207.415Z" fill="#F7F7F7" stroke="#5E5959" stroke-width="0.7515" stroke-miterlimit="10" stroke-linecap="round" stroke-linejoin="round"/>
<path d="M148.442 204.495C147.847 204.28 147.204 204.264 146.578 204.256C145.443 204.248 144.158 204.333 143.416 205.191C143.131 205.531 142.953 205.956 142.767 206.365C142.243 207.508 141.531 208.603 141.4 209.854C141.275 211.097 142.012 212.564 143.262 212.665C144.198 212.742 145.233 212.07 145.991 212.611C146.517 212.981 146.626 213.792 147.198 214.086C147.645 214.317 148.187 214.132 148.658 213.948C150.033 213.39 151.587 212.649 151.982 211.222C152.251 210.247 151.889 209.206 151.379 208.334C150.69 207.16 149.81 204.982 148.442 204.495Z" fill="#F7F7F7" stroke="#5E5959" stroke-width="0.7515" stroke-miterlimit="10" stroke-linecap="round" stroke-linejoin="round"/>
<path d="M152.406 238.572C155.706 240.03 151.719 246.061 148.943 241.914C148.581 241.367 148.349 240.679 148.533 240.054C148.688 239.552 149.091 239.165 149.531 238.888C150.382 238.354 151.494 238.162 152.406 238.572Z" fill="#F7F7F7" stroke="#5E5959" stroke-width="0.7515" stroke-miterlimit="10" stroke-linecap="round" stroke-linejoin="round"/>
<path d="M199.81 233.405C199.217 232.217 199.108 230.827 199.302 229.507C199.387 228.912 199.765 228.163 200.352 228.301C200.908 228.426 201.001 229.228 201.504 229.507C202.291 229.946 203.057 228.773 203.954 228.665C204.533 228.603 205.068 229.005 205.408 229.475C206.188 230.556 206.273 232.063 205.725 233.266C204.395 236.231 201.257 236.309 199.81 233.405Z" fill="#F7F7F7" stroke="#5E5959" stroke-width="0.7515" stroke-miterlimit="10" stroke-linecap="round" stroke-linejoin="round"/>
<path d="M197.23 200.482C196.789 200.821 196.177 200.976 195.868 201.462C195.483 202.081 195.775 203.184 195.281 203.678C193.874 205.083 191.911 203.292 191.788 201.749C191.579 199.161 195.754 195.532 197.515 198.643C197.762 199.084 197.839 199.663 197.584 200.104C197.493 200.258 197.368 200.381 197.23 200.482Z" fill="#F7F7F7" stroke="#5E5959" stroke-width="0.7515" stroke-miterlimit="10" stroke-linecap="round" stroke-linejoin="round"/>
<path d="M120.746 189.423C117.879 188.01 114.757 186.328 113.644 183.323C113.227 182.212 113.142 181.015 113.049 179.827C112.932 178.259 112.839 176.561 113.682 175.225C114.456 173.982 115.932 173.294 117.392 173.171C118.852 173.039 120.315 173.402 121.698 173.881C123.089 174.351 124.557 175.047 125.198 176.367C126.158 178.328 124.898 180.738 125.509 182.837C125.826 183.926 126.621 184.806 127.395 185.632C128.616 186.939 130.927 189.995 128.716 191.554C126.754 192.946 122.525 190.305 120.746 189.423Z" fill="#F7F7F7" stroke="#5E5959" stroke-width="0.7515" stroke-miterlimit="10" stroke-linecap="round" stroke-linejoin="round"/>
<path d="M130.363 184.583C129.975 185.348 130.873 186.134 131.677 186.421C133.052 186.915 134.568 187.03 135.996 186.745C136.685 186.613 137.358 186.389 138.06 186.413C138.756 186.445 139.506 186.799 139.722 187.455C139.954 188.151 139.544 188.969 139.869 189.633C140.116 190.149 140.759 190.39 141.331 190.327C141.903 190.274 142.421 189.987 142.916 189.694C143.27 189.479 143.634 189.246 143.85 188.892C144.337 188.103 143.996 186.907 144.701 186.312C145.419 185.702 146.725 186.196 147.336 185.478C147.869 184.846 147.313 183.818 146.547 183.494C146.214 183.347 145.836 183.278 145.565 183.039C145.342 182.853 145.219 182.582 145.057 182.343C144.052 180.839 141.493 180.76 140.395 182.205C140.11 182.582 139.916 183.039 139.584 183.379C137.403 185.696 132.062 181.286 130.363 184.583Z" fill="#F7F7F7" stroke="#5E5959" stroke-width="0.7515" stroke-miterlimit="10" stroke-linecap="round" stroke-linejoin="round"/>
<path d="M138.254 178.097C137.203 178.243 136.166 177.865 135.147 177.603C133.446 177.17 131.669 177.069 129.93 177.3C129.528 177.356 129.11 177.425 128.732 177.286C128.097 177.061 127.773 176.336 127.796 175.671C127.828 175.007 128.129 174.39 128.43 173.796C128.546 173.556 128.677 173.309 128.901 173.171C129.427 172.847 130.084 173.256 130.695 173.216C131.406 173.171 131.916 172.515 132.187 171.858C132.456 171.202 132.589 170.475 133.006 169.903C133.432 169.34 134.126 168.978 134.845 168.97C135.318 168.97 135.789 169.109 136.259 169.055C136.932 168.97 137.488 168.498 138.068 168.136C138.648 167.773 139.414 167.51 139.993 167.865C140.797 168.352 140.658 169.526 140.488 170.445C140.318 171.37 140.427 172.621 141.339 172.839C141.539 172.884 141.762 172.868 141.948 172.969C144.445 174.335 139.36 177.935 138.254 178.097Z" fill="#F7F7F7" stroke="#5E5959" stroke-width="0.7515" stroke-miterlimit="10" stroke-linecap="round" stroke-linejoin="round"/>
<path d="M144.337 177.679C144.453 177.934 144.6 178.189 144.815 178.359C145.488 178.891 146.541 178.529 147.259 178.984C148.086 179.51 148.078 180.876 148.951 181.324C149.733 181.734 150.653 181.139 151.254 180.498C151.858 179.864 152.491 179.093 153.373 179.077C153.706 179.069 154.046 179.178 154.371 179.114C154.964 179 155.328 178.328 155.267 177.725C155.204 177.124 154.81 176.598 154.379 176.181C153.991 175.817 153.528 175.487 152.994 175.463C152.159 175.432 151.278 176.136 150.568 175.695C150.111 175.416 150.01 174.807 149.748 174.343C148.257 171.741 143.193 174.985 144.337 177.679Z" fill="#F7F7F7" stroke="#5E5959" stroke-width="0.7515" stroke-miterlimit="10" stroke-linecap="round" stroke-linejoin="round"/>
<path d="M163.621 186.999C162.741 183.378 156.589 182.427 156.148 186.853C156.055 187.818 156.124 188.992 156.959 189.486C158.32 190.273 159.927 188.45 161.466 188.767C161.743 188.83 162.007 188.952 162.286 188.976C163.212 189.045 163.839 187.903 163.621 186.999Z" fill="#F7F7F7" stroke="#5E5959" stroke-width="0.7515" stroke-miterlimit="10" stroke-linecap="round" stroke-linejoin="round"/>
<path d="M171.839 182.382C171.443 179.872 168.815 181.17 167.185 180.251C166.621 179.935 166.752 179.085 166.211 178.668C165.701 178.289 164.967 178.328 164.395 178.615C163.382 179.123 162.81 180.39 163.113 181.487C163.413 182.582 164.541 183.386 165.677 183.309C166.227 183.278 166.752 183.062 167.294 182.991C167.842 182.922 168.483 183.046 168.762 183.517C169.102 184.072 168.855 184.922 169.365 185.316C169.797 185.656 170.44 185.377 170.842 185.007C171.552 184.343 171.993 183.347 171.839 182.382Z" fill="#F7F7F7" stroke="#5E5959" stroke-width="0.7515" stroke-miterlimit="10" stroke-linecap="round" stroke-linejoin="round"/>
<path d="M169.69 165.047C171.677 165.843 171.699 168.259 171.198 170.004C170.996 170.708 169.967 171.912 169.134 171.309C168.847 171.101 168.746 170.73 168.6 170.413C168.267 169.672 167.61 169.093 166.837 168.854C166.605 168.777 166.358 168.731 166.15 168.607C165.376 168.166 165.462 166.978 165.964 166.245C166.76 165.078 168.384 164.531 169.69 165.047Z" fill="#F7F7F7" stroke="#5E5959" stroke-width="0.7515" stroke-miterlimit="10" stroke-linecap="round" stroke-linejoin="round"/>
<path d="M189.547 169.063C187.568 169.648 185.411 168.367 183.401 168.877C182.273 169.162 181.238 170.012 180.078 169.85C179.467 169.765 178.935 169.401 178.448 169.031C176.6 167.658 174.823 165.78 174.744 163.479C174.738 163.256 174.752 163.016 174.868 162.823C175.347 162.036 176.669 162.838 177.48 162.392C178.03 162.089 178.123 161.356 178.408 160.793C178.935 159.796 180.341 159.379 181.323 159.935C181.988 160.306 182.482 161.032 183.238 161.109C183.866 161.162 184.422 160.739 184.924 160.36C192.56 154.732 195.892 167.171 189.547 169.063Z" fill="#F7F7F7" stroke="#5E5959" stroke-width="0.7515" stroke-miterlimit="10" stroke-linecap="round" stroke-linejoin="round"/>
<path d="M229.94 164.523C233.079 165.248 236.092 167.164 235.382 170.352C235.127 171.479 234.238 172.39 233.201 172.908C232.159 173.418 230.983 173.572 229.824 173.617C228.821 173.657 227.637 173.524 227.103 172.669C226.887 172.313 226.818 171.888 226.778 171.471C226.664 170.044 226.709 168.792 225.728 167.65C225.281 167.132 223.911 166.669 223.765 165.95C223.417 164.297 226.749 163.795 229.94 164.523Z" fill="#F7F7F7" stroke="#5E5959" stroke-width="0.7515" stroke-miterlimit="10" stroke-linecap="round" stroke-linejoin="round"/>
<path d="M222.768 152.562C223.124 152.145 223.68 151.744 224.182 151.967C224.453 152.092 224.616 152.353 224.738 152.615C225.217 153.705 225.094 155.033 224.43 156.013C224.206 156.353 223.903 156.715 224.004 157.11C224.089 157.435 224.445 157.642 224.786 157.666C225.124 157.697 225.457 157.589 225.789 157.504C226.579 157.318 227.398 157.257 228.209 157.334C228.696 157.379 229.206 157.488 229.584 157.796C229.964 158.107 230.18 158.678 229.956 159.109C229.725 159.558 229.167 159.712 228.672 159.813C226.416 160.283 223.161 161.404 221.754 158.763C220.805 156.994 221.57 153.997 222.768 152.562Z" fill="#F7F7F7" stroke="#5E5959" stroke-width="0.7515" stroke-miterlimit="10" stroke-linecap="round" stroke-linejoin="round"/>
<path d="M260.27 156.399C259.505 155.889 258.778 155.288 258.323 154.486C257.65 153.312 257.682 151.768 258.4 150.623C259.119 149.473 260.486 148.771 261.839 148.856C262.211 148.88 262.589 148.957 262.882 149.18C264.089 150.076 263.06 152.276 264.081 153.373C264.645 153.984 265.597 153.992 266.323 154.385C267.892 155.227 267.946 157.828 266.292 158.585C264.552 159.388 261.64 157.31 260.27 156.399Z" fill="#F7F7F7" stroke="#5E5959" stroke-width="0.7515" stroke-miterlimit="10" stroke-linecap="round" stroke-linejoin="round"/>
<path d="M271.23 166.723C271.903 168.251 271.571 170.43 270.435 171.703C269.924 172.282 268.903 172.468 268.417 171.873C267.954 171.325 268.07 170.082 268.076 169.394C268.084 168.137 268.417 166.761 269.43 166.02C269.639 165.873 269.871 165.751 270.118 165.751C270.635 165.751 271.015 166.245 271.23 166.723Z" fill="#F7F7F7" stroke="#5E5959" stroke-width="0.7515" stroke-miterlimit="10" stroke-linecap="round" stroke-linejoin="round"/>
<path d="M258.501 94.1965C262.196 94.1254 260.919 97.9878 257.943 97.9878C255.98 97.9937 255.525 95.2303 257.225 94.4357C257.619 94.2499 258.06 94.2024 258.501 94.1965Z" fill="#F7F7F7" stroke="#5E5959" stroke-width="0.7515" stroke-miterlimit="10" stroke-linecap="round" stroke-linejoin="round"/>
<path d="M257.959 89.4862C257.829 90.1503 258.098 90.945 258.741 91.1762C259.605 91.4925 260.735 90.6979 261.422 91.3146C261.831 91.6783 261.794 92.3504 262.14 92.7833C262.643 93.4079 263.672 93.2142 264.344 92.7596C264.847 92.4117 265.286 91.9333 265.457 91.3462C265.619 90.7592 265.457 90.0574 264.962 89.7016C264.443 89.332 263.757 89.4091 263.124 89.4012C262.488 89.3933 261.746 89.2075 261.531 88.6125C260.696 86.2741 258.377 87.3316 257.959 89.4862Z" fill="#F7F7F7" stroke="#5E5959" stroke-width="0.7515" stroke-miterlimit="10" stroke-linecap="round" stroke-linejoin="round"/>
<path d="M264.034 128.51C263.943 129.445 263.193 130.178 262.388 130.656C261.592 131.127 260.688 131.451 259.962 132.03C258.222 133.404 257.844 135.845 257.597 138.045C257.472 139.188 257.557 140.694 258.656 141.05C259.568 141.334 260.656 140.577 261.461 141.095C261.986 141.443 262.079 142.153 262.257 142.756C262.736 144.432 264.244 145.758 265.967 146.029C266.717 146.153 267.552 146.061 268.116 145.558C268.672 145.064 268.866 144.291 268.951 143.558C269.052 142.678 269.028 141.775 268.874 140.901C268.757 140.2 268.557 139.49 268.72 138.794C268.866 138.191 269.268 137.689 269.632 137.181C270.204 136.377 270.706 135.473 270.76 134.485C270.813 133.505 270.31 132.431 269.384 132.091C268.866 131.892 268.27 131.945 267.776 131.682C266.98 131.265 264.507 123.475 264.034 128.51Z" fill="#F7F7F7" stroke="#5E5959" stroke-width="0.7515" stroke-miterlimit="10" stroke-linecap="round" stroke-linejoin="round"/>
<path d="M264.204 123.846C264.77 123.923 265.395 123.684 265.89 123.977C266.507 124.346 266.47 125.321 267.018 125.791C267.552 126.246 268.464 125.977 268.797 125.366C269.129 124.749 268.951 123.945 268.51 123.405C268.07 122.864 267.411 122.547 266.749 122.332C266.377 122.215 265.991 122.117 265.712 121.846C265.356 121.49 265.286 120.911 264.916 120.563C263.462 119.197 261.554 123.514 264.204 123.846Z" fill="#F7F7F7" stroke="#5E5959" stroke-width="0.7515" stroke-miterlimit="10" stroke-linecap="round" stroke-linejoin="round"/>
<path d="M265.866 70.7156C264.089 66.5685 257.951 65.7028 256.22 61.5339C255.765 60.4369 255.672 59.2172 255.23 58.1222C253.616 54.0897 248.321 53.2338 245.068 50.3696C241.017 46.8096 240.669 40.7946 239.672 35.505C238.674 30.1937 236.502 24.7499 232.089 21.6228C227.669 18.5036 220.611 18.7724 217.658 23.3049C216.661 24.827 215.773 26.9736 213.956 26.9499C212.433 26.9262 211.328 25.2816 209.805 25.2124C207.579 25.1195 206.574 28.2782 204.425 28.8574C203.677 29.0571 202.879 28.9108 202.129 28.725C198.419 27.792 194.408 25.8153 191.015 27.5667C189.988 28.1004 188.789 28.9583 187.823 28.3158C186.98 27.7604 187.065 26.4399 186.369 25.7066C185.233 24.5324 183.339 25.6987 181.948 26.5724C178.286 28.8653 173.19 28.6024 169.775 25.9537C169.395 25.6611 169.025 25.3132 168.924 24.8566C168.73 24.0383 169.443 23.3208 170.03 22.7179C171.56 21.1504 172.581 18.4324 171.012 16.8965C169.443 15.3527 166.18 16.0248 165.299 14.0086C164.597 12.3956 166.18 10.7728 166.682 9.09061C167.193 7.38472 166.435 5.38435 164.935 4.44147C163.429 3.49266 161.296 3.67845 159.982 4.87434C157.562 7.06056 157.818 11.9015 154.656 12.6961C151.549 13.469 149.756 9.46027 148.086 6.73442C145.914 3.18431 141.794 0.835968 137.629 1.0455C133.477 1.26096 129.512 4.1489 128.283 8.11807C127.828 9.60057 127.727 11.1819 127.171 12.6269C125.833 16.1177 121.975 18.5728 121.821 22.3087C120.445 21.3124 118.443 21.6307 117.052 22.5953C115.653 23.5678 114.725 25.0583 113.836 26.5091C113.227 25.2282 112.57 23.8999 111.424 23.0578C110.281 22.2158 108.496 22.0616 107.538 23.1191C105.937 24.8883 107.708 27.9066 105.65 29.4524C104.129 30.587 100.472 29.7608 99.0039 28.6953C95.0009 25.7758 97.4189 20.1482 93.6316 16.7028C91.2216 14.5107 92.5889 11.5298 89.4902 9.53139C88.0279 8.58852 86.2886 8.12601 84.5117 7.90067C84.3652 8.26437 84.2169 8.6261 84.0704 8.98981C81.9374 14.0699 78.7753 18.7803 77.7088 24.2636C77.2616 26.5486 76.8817 29.3595 74.7189 30.2312C74.0462 30.4941 73.3041 30.5178 72.6472 30.7946C70.8307 31.5517 70.2826 33.8288 70.158 35.7916C70.1263 36.3708 70.0966 36.9796 69.7642 37.4501C69.4931 37.8296 69.0756 38.053 68.7194 38.3613C67.3066 39.575 67.368 42.1071 68.8441 43.2575C69.2616 43.5817 69.7642 43.8051 70.1125 44.2064C70.8683 45.088 70.6289 46.4776 71.2641 47.4422C72.1288 48.7705 74.0699 48.6618 75.5223 49.2884C79.179 50.8559 78.9158 56.3847 81.8364 59.0789C83.461 60.5851 85.9878 61.1089 87.1078 63.0243C88.2673 65.0089 87.3472 67.549 86.158 69.5178C85.6791 70.3064 85.1369 71.1011 84.3494 71.5873C83.5599 72.0736 82.4795 72.1902 81.7375 71.6328C80.3306 70.5753 81.134 68.2823 80.4454 66.6693C80.0121 65.6573 79.0009 64.9931 77.9344 64.7144C76.1337 64.2519 73.9373 64.9615 73.1795 66.6614C72.4295 68.3594 73.8285 70.7532 75.6767 70.5298C76.6581 70.4132 77.78 69.7036 78.5221 70.3598C79.0088 70.7848 78.9613 71.5478 78.8683 72.1981C78.7753 72.8544 78.6843 73.5106 78.5913 74.159C78.5359 74.5444 78.4666 74.9694 78.1659 75.2165C77.7642 75.5565 77.1686 75.4241 76.6423 75.3944C74.903 75.3015 73.2428 76.7919 73.1498 78.5215C73.1181 78.992 73.1953 79.494 72.9875 79.919C72.6314 80.6761 71.6499 80.8145 70.8604 81.107C69.0756 81.7791 67.9319 83.8249 68.2801 85.7028C68.6343 87.5708 70.4449 89.0612 72.3524 89.0454C74.2618 89.0217 76.0407 87.5016 76.3573 85.6257C76.5275 84.6136 76.3177 83.5719 76.5493 82.5757C76.7907 81.5873 77.7642 80.6208 78.7298 80.9687C79.7113 80.4903 80.9104 81.7099 81.0093 82.7912C81.1102 83.8803 80.5542 84.9062 80.1209 85.9104C79.0623 88.3733 78.6922 91.1308 79.0543 93.7855C79.4184 96.3967 80.4612 99.0138 79.8735 101.585C79.1929 104.558 76.4266 106.798 76.0487 109.824C75.9774 110.395 76.0091 111.012 76.3415 111.477C76.5968 111.831 76.9984 112.064 77.4001 112.218C78.528 112.649 79.8201 112.643 80.948 112.194C81.8068 111.854 82.5567 111.267 83.3838 110.836C86.2965 109.322 89.8206 109.909 93.0301 110.658C93.8869 110.85 94.7753 111.075 95.4402 111.647C96.1129 112.218 96.485 113.236 96.0437 114.001C95.5886 114.782 94.4983 114.958 93.6237 114.734C92.7432 114.503 91.9695 113.985 91.1206 113.677C87.7588 112.481 84.2722 114.796 80.8015 115.6C79.5332 115.893 78.0729 116.086 77.3546 117.16C76.4107 118.565 77.509 120.579 79.0385 121.291C80.578 122.001 82.3549 121.846 84.0487 121.862C88.7699 121.916 93.7167 123.73 96.4157 127.599C97.1953 128.725 97.7296 130.34 96.8391 131.374C96.1129 132.208 94.8387 132.2 93.7405 132.107C91.7538 131.937 89.4427 131.467 88.5859 129.676C88.1209 128.704 88.2139 127.553 87.8735 126.525C87.1394 124.341 84.6284 123.274 82.3311 123.021C81.7434 122.949 81.1261 122.928 80.5918 123.167C79.363 123.73 79.1473 125.335 78.6982 126.61C78.0115 128.526 76.4424 130.178 76.4424 132.216C76.4266 134.825 78.9613 136.664 81.3121 137.798C83.6529 138.933 86.3519 140.083 87.3254 142.509C83.174 143.967 78.0729 141.544 76.5809 137.413C75.8627 135.412 75.8864 133.119 74.6635 131.382C74.1847 130.694 73.5277 130.139 73.0568 129.445C72.1129 128.061 71.9744 126.302 71.9428 124.626C71.9052 122.957 71.9289 121.22 71.2324 119.7C70.5359 118.17 68.8678 116.942 67.2433 117.351C66.1471 117.638 65.3417 118.573 64.7402 119.53C63.3175 121.777 62.4825 124.015 62.5438 126.703C62.5992 129.065 62.7832 131.443 63.3333 133.744C64.2376 137.543 66.1075 141.026 67.9636 144.47C68.4424 145.357 68.945 146.276 69.7484 146.887C71.0543 147.875 72.8332 147.844 74.4558 148.091C77.8255 148.625 80.8016 150.508 83.6608 152.353C87.0306 154.523 90.5329 157.079 90.0145 161.558C89.8206 163.179 89.3338 164.808 89.5673 166.423C89.7988 168.035 91.089 169.688 92.7194 169.564C93.4773 169.51 94.2035 169.077 94.9613 169.178C96.1288 169.34 96.7402 171.016 95.9349 171.888C95.3096 172.568 94.2114 172.621 93.5782 173.293C92.9054 174.005 92.9984 175.124 92.7194 176.059C92.3573 177.278 91.36 178.198 90.8179 179.34C90.2698 180.491 90.4558 182.22 91.6766 182.56C93.6158 183.092 95.1078 179.54 96.9401 180.374C98.1234 180.908 97.876 182.645 97.4051 183.857C96.7778 185.47 96.0674 187.114 96.1288 188.844C96.1446 189.253 96.206 189.686 96.4375 190.026C97.0944 190.999 98.6952 190.698 99.5223 189.856C100.349 189.014 100.719 187.834 101.432 186.891C101.756 186.45 102.211 186.033 102.767 186.027C103.426 186.011 103.935 186.567 104.507 186.899C106.347 187.972 108.789 186.521 109.647 184.574C110.506 182.629 110.289 180.414 110.296 178.289C110.296 176.166 110.653 173.827 112.259 172.444C114.424 170.591 118.073 171.139 119.982 169.024C125.331 163.094 130.818 157.703 130.81 149.728C130.81 147.102 129.775 143.295 130.64 140.787C130.802 140.33 131.235 139.937 131.714 139.992C132.448 140.075 132.682 141.01 132.712 141.744C132.789 143.582 132.781 145.434 132.789 147.28C132.812 151.597 132.951 155.92 133.222 160.237C133.275 161.109 133.347 162.02 133.794 162.77C134.831 164.483 137.265 164.592 138.958 165.681C140.055 166.383 140.828 167.518 141.932 168.221C143.039 168.915 144.802 168.939 145.373 167.773C145.682 167.148 145.573 166.33 146.052 165.828C146.703 165.148 147.831 165.557 148.605 166.083C149.376 166.598 150.304 167.233 151.161 166.861C152.778 166.168 151.757 163.133 153.31 162.313C153.682 162.121 154.115 162.113 154.525 162.06C156.951 161.712 158.845 159.18 158.498 156.755C158.328 155.62 157.748 154.523 157.903 153.388C158.158 151.481 160.291 150.415 161.087 148.654C162.323 145.928 160.028 142.347 161.743 139.899C163.499 137.381 165.786 136.424 168.554 135.096C172.055 133.42 175.092 130.787 177.241 127.567C177.783 126.757 178.895 125.829 179.528 126.565C179.698 126.764 179.762 127.043 179.946 127.243C180.225 127.537 180.688 127.545 181.097 127.521C183.804 127.397 186.778 127.144 188.666 125.205C190.698 123.111 190.744 119.737 192.483 117.383C192.715 117.067 193.017 116.751 193.411 116.703C193.967 116.642 194.424 117.144 194.616 117.67C194.81 118.186 194.842 118.765 195.081 119.259C195.754 120.68 197.669 120.858 199.238 120.834C200.19 120.819 201.302 120.72 201.805 119.907C202.068 119.468 202.084 118.911 202.355 118.472C202.941 117.506 204.51 117.606 205.299 118.425C206.095 119.237 206.281 120.449 206.326 121.584C206.403 123.491 206.188 125.412 205.685 127.251C205.422 128.215 205.06 129.182 204.371 129.907C203.691 130.633 202.608 131.058 201.666 130.718C199.108 129.814 200.121 125.003 197.554 124.139C196.27 123.699 194.802 124.804 194.594 126.148C194.448 127.112 194.81 128.109 194.624 129.065C194.323 130.587 192.73 131.576 192.344 133.08C192.151 133.853 192.299 134.663 192.143 135.452C191.996 136.223 191.355 137.033 190.574 136.911C189.988 136.81 189.616 136.239 189.145 135.869C188.233 135.149 186.818 135.227 185.89 135.938C184.964 136.64 184.507 137.867 184.584 139.034C184.653 140.054 185.071 141.172 184.507 142.03C183.967 142.841 182.837 142.942 181.924 143.303C180.318 143.938 179.289 145.497 178.369 146.964C177.783 147.905 177.164 149.01 177.504 150.067C177.953 151.435 179.784 151.999 180.171 153.38C180.294 153.797 180.278 154.276 180.557 154.608C180.836 154.94 181.315 155.001 181.748 155.033C183.124 155.134 184.515 155.134 185.898 155.041C186.895 154.98 188.595 155.403 189.461 155.11C189.988 154.932 190.427 154.568 190.93 154.323C193.079 153.28 195.552 154.701 197.515 156.059C197.98 156.377 198.475 156.739 198.597 157.28C198.807 158.136 198.033 159.048 198.382 159.858C198.744 160.7 199.98 160.662 200.714 161.218C202.129 162.275 201.565 165.278 203.313 165.533C204.379 165.689 205.129 164.483 205.345 163.426C205.57 162.368 205.64 161.141 206.488 160.477C207.555 159.65 209.071 160.23 210.416 160.23C211.977 160.23 213.515 159.303 214.241 157.921C214.475 157.488 214.637 157.01 214.961 156.646C215.456 156.114 216.22 155.944 216.877 155.636C218.632 154.81 219.677 152.716 219.281 150.825C219.158 150.23 218.879 149.627 218.339 149.35C217.257 148.795 215.618 149.775 214.837 148.84C214.382 148.3 214.581 147.45 214.273 146.81C213.924 146.09 212.983 145.83 212.201 146.005C211.421 146.191 210.764 146.701 210.137 147.195C209.874 147.411 209.581 147.636 209.241 147.666C208.677 147.735 208.174 147.265 207.935 146.747C207.27 145.264 208.283 143.396 209.797 142.787C211.305 142.169 213.076 142.594 214.451 143.465C214.922 143.76 215.416 144.13 215.972 144.1C216.437 144.076 216.855 143.776 217.318 143.752C218.185 143.697 218.778 144.547 219.328 145.219C219.869 145.883 220.898 146.462 221.531 145.875C221.917 145.511 221.924 144.863 222.312 144.509C222.86 144.015 223.717 144.377 224.437 144.57C226.199 145.057 228.241 144.191 229.121 142.594C230.002 140.987 229.632 138.802 228.27 137.583C227.212 136.632 225.635 136.185 225.017 134.91C224.815 134.493 224.738 134.031 224.56 133.598C224.182 132.671 223.363 132.001 222.589 131.358C219.661 128.927 216.893 126.302 214.312 123.491C213.238 122.317 212.124 120.781 212.65 119.283C213.105 117.97 214.744 117.091 214.621 115.707C214.504 114.373 212.743 113.345 213.214 112.086C213.392 111.607 213.871 111.291 214.087 110.828C214.597 109.769 213.624 108.642 212.812 107.792C212.001 106.944 211.305 105.491 212.193 104.72C212.781 104.218 213.693 104.412 214.366 104.805C215.031 105.191 215.618 105.746 216.368 105.948C217.11 106.148 218.108 105.77 218.153 104.997C219.026 103.987 220.666 103.538 222.002 103.578C223.347 103.615 224.701 103.87 226.007 103.554C227.313 103.246 228.565 102.125 228.44 100.797C228.395 100.318 228.185 99.84 228.302 99.3775C228.581 98.3041 230.334 98.4821 230.93 99.423C231.525 100.358 231.401 101.562 231.517 102.667C231.68 104.295 232.406 105.816 233.124 107.284C233.488 108.018 233.858 108.751 234.385 109.376C235.212 110.348 236.371 110.967 237.361 111.777C239.185 113.291 240.414 115.537 240.544 117.901C240.685 120.263 239.672 122.696 237.816 124.163C237.068 124.756 236.163 125.229 235.722 126.077C235.382 126.741 235.39 127.514 235.406 128.263C235.451 130.741 235.916 133.813 238.265 134.586C239.393 134.958 240.677 134.655 241.759 135.134C243.56 135.93 244.48 138.709 246.427 138.409C248.073 138.154 248.43 135.93 248.158 134.294C247.826 132.339 247.185 130.439 246.265 128.696C245.855 127.931 245.4 127.174 245.268 126.324C245.137 125.476 245.438 124.487 246.211 124.116C246.659 123.9 247.177 123.924 247.664 123.839C248.9 123.621 249.959 122.633 250.262 121.414C250.478 120.526 250.307 119.575 250.539 118.688C250.762 117.8 251.691 116.95 252.526 117.322C253.685 117.832 253.105 119.583 253.477 120.797C253.893 122.147 255.509 122.665 256.893 122.981C257.411 123.106 257.959 123.22 258.47 123.074C260.169 122.596 260.116 119.862 261.685 119.051C262.071 118.858 262.512 118.804 262.882 118.587C264.042 117.917 263.879 116.209 263.462 114.944C263.038 113.677 262.544 112.149 263.393 111.121C263.81 110.619 264.459 110.38 265.001 110.002C265.959 109.314 266.531 108.172 266.701 106.998C267.049 104.503 265.542 101.918 263.278 100.813C261.012 99.7096 258.153 100.063 256.119 101.546C254.667 102.598 253.592 104.157 251.999 104.96C249.682 106.134 246.52 105.236 245.167 103.013C244.812 102.428 244.549 101.74 243.977 101.362C243.613 101.107 243.15 101.014 242.794 100.751C241.371 99.6858 242.749 97.3771 242.276 95.6712C241.922 94.4041 240.515 93.3624 240.877 92.0954C241.209 90.9766 242.778 90.7216 243.853 91.2079C244.927 91.6862 245.717 92.6291 246.728 93.23C249.419 94.845 253.438 93.2775 254.334 90.2729C254.574 89.4466 254.613 88.5512 255.031 87.7941C255.935 86.1496 258.153 85.857 260.031 85.8491C261.283 85.8412 262.597 85.4775 263.879 85.347C263.424 80.8916 267.815 75.256 265.866 70.7156Z" fill="#F7F7F7" stroke="#5E5959" stroke-width="0.7515" stroke-miterlimit="10" stroke-linecap="round" stroke-linejoin="round"/>
</svg>
