<svg width="272" height="250" viewBox="0 0 272 250" fill="none" xmlns="http://www.w3.org/2000/svg">
<path d="M32.6314 20.3698C33.5673 21.4965 32.9955 22.8703 31.6341 23.3645C30.2193 23.8824 29.0538 22.9414 28.3652 21.7831C28.0645 21.2731 27.9635 20.609 28.2406 20.0911C28.5275 19.5653 29.1389 19.2885 29.7246 19.2194C30.807 19.079 31.9428 19.5277 32.6314 20.3698Z" fill="#FFC5C7" stroke="#5E5959" stroke-width="0.7515" stroke-miterlimit="10" stroke-linecap="round" stroke-linejoin="round"/>
<path d="M42.6637 64.8215C42.9189 66.3435 42.5014 67.3615 41.4982 68.8282C41.3043 69.1148 41.0965 69.4074 40.7859 69.5695C40.4 69.7632 39.9508 69.7019 39.5274 69.6406C38.8388 69.5319 38.1284 69.4232 37.5091 69.099C36.8838 68.7748 36.3575 68.1957 36.2882 67.4999C36.2565 67.2152 36.3041 66.9068 36.1636 66.6598C35.9558 66.2961 35.4453 66.2269 35.0278 66.304C34.6103 66.389 34.2086 66.5748 33.7911 66.5432C32.9323 66.474 32.3763 65.5093 32.4455 64.6515C32.5227 63.7956 33.0411 63.0523 33.5595 62.3664C34.6795 60.876 35.9637 61.1152 37.2855 60.1802C38.5222 59.3006 38.9001 57.4544 39.9904 56.3356C41.1658 55.1239 42.9506 54.3668 44.5593 54.8689C44.7433 54.9301 44.9293 55.0073 45.0599 55.1535C45.2696 55.4085 45.238 55.788 45.1608 56.1122C44.8205 57.5334 43.9004 58.7372 43.1208 59.9806C41.9929 61.7714 42.0701 62.4356 42.5331 64.2186C42.5865 64.4281 42.634 64.6277 42.6637 64.8215Z" fill="#FFC5C7" stroke="#5E5959" stroke-width="0.7515" stroke-miterlimit="10" stroke-linecap="round" stroke-linejoin="round"/>
<path d="M49.2725 71.4399C48.8094 71.1929 48.3464 70.9537 47.8359 70.8766C46.9158 70.7283 45.964 71.4538 45.0914 71.1296C44.3949 70.8766 44.0783 69.9713 44.3177 69.2617C44.5591 68.552 45.2378 68.0579 45.9581 67.8483C46.6764 67.6408 47.4421 67.6783 48.1842 67.7416C49.5277 67.8562 50.9504 68.1033 51.9556 69.0067C53.0993 70.0425 53.3071 72.1259 51.2749 72.1338C50.5329 72.1338 49.9076 71.7799 49.2725 71.4399Z" fill="#FFC5C7" stroke="#5E5959" stroke-width="0.7515" stroke-miterlimit="10" stroke-linecap="round" stroke-linejoin="round"/>
<path d="M43.6608 77.0669C42.7189 76.9681 41.597 76.6044 41.405 75.6694C41.2725 75.0764 41.6207 74.4498 42.1233 74.094C42.6259 73.7481 43.2433 73.6156 43.8547 73.5544C46.344 73.2994 52.9371 75.8868 50.0303 79.4389C49.2191 80.4332 47.8122 80.3344 46.9316 79.516C45.5327 78.2094 45.9957 77.3298 43.6608 77.0669Z" fill="#FFC5C7" stroke="#5E5959" stroke-width="0.7515" stroke-miterlimit="10" stroke-linecap="round" stroke-linejoin="round"/>
<path d="M62.5991 76.875C64.7243 77.4917 64.3068 80.1167 62.2667 80.4646C58.5091 81.0972 59.8784 76.0863 62.5991 76.875Z" fill="#FFC5C7" stroke="#5E5959" stroke-width="0.7515" stroke-miterlimit="10" stroke-linecap="round" stroke-linejoin="round"/>
<path d="M6.08081 141.017C4.92128 141.341 3.66282 141.364 2.81988 141.139C2.37862 141.025 1.91559 140.886 1.59108 140.56C1.04891 140.02 1.11025 139.056 1.59899 138.469C2.09367 137.882 2.91287 137.642 3.67666 137.696C4.97669 137.789 8.91831 134.545 8.84906 138.237C8.8174 139.704 7.53518 140.599 6.08081 141.017Z" fill="#FFC5C7" stroke="#5E5959" stroke-width="0.7515" stroke-miterlimit="10" stroke-linecap="round" stroke-linejoin="round"/>
<path d="M23.4797 114.887C22.2054 115.683 20.5274 115.389 19.1285 115.929C18.8119 116.053 18.4953 116.231 18.3251 116.524C18.1846 116.755 18.1549 117.033 18.147 117.304C18.1074 118.245 18.2242 119.196 18.0995 120.137C17.9689 121.072 17.5277 122.036 16.6867 122.461C15.8279 122.894 14.7377 122.647 13.9956 122.036C13.2457 121.436 12.7985 120.532 12.5037 119.621C12.1416 118.455 12.0011 117.188 12.3573 116.029C12.7134 114.863 13.6335 113.829 14.8228 113.551C16.0595 113.266 17.4347 113.806 18.6021 113.296C19.6607 112.825 20.1792 111.659 20.844 110.71C21.501 109.767 22.3815 108.98 23.3946 108.425C23.7429 108.231 24.1445 108.061 24.5304 108.154C26.8039 108.694 24.7243 114.116 23.4797 114.887Z" fill="#FFC5C7" stroke="#5E5959" stroke-width="0.7515" stroke-miterlimit="10" stroke-linecap="round" stroke-linejoin="round"/>
<path d="M20.5275 124.685C20.2564 124.94 19.9556 125.118 19.3759 125.296C18.6259 125.519 17.8384 125.227 17.1102 125.673C16.3306 126.16 16.1288 127.188 16.0674 128.099C15.9824 129.287 16.1763 130.761 17.2883 131.202C17.7058 131.372 18.1768 131.341 18.6339 131.311C19.8013 131.234 20.9608 131.157 22.1283 131.08C22.6289 131.04 23.1473 131.003 23.5886 130.754C24.2831 130.376 24.6235 129.581 24.8946 128.84C25.3971 127.458 26.5409 124.547 25.4585 123.173C24.299 121.712 22.344 122.863 21.3229 123.875C20.9767 124.215 20.759 124.478 20.5275 124.685Z" fill="#FFC5C7" stroke="#5E5959" stroke-width="0.7515" stroke-miterlimit="10" stroke-linecap="round" stroke-linejoin="round"/>
<path d="M31.2322 146.359C30.8306 146.412 30.4209 146.42 30.0489 146.274C29.4692 146.043 29.0992 145.479 28.8202 144.922C27.6764 142.676 27.2134 138.306 29.4395 136.6C29.6255 136.46 29.8254 136.329 30.0489 136.305C30.7217 136.22 31.1788 137.023 31.163 137.695C31.1392 138.768 30.6366 139.727 31.4182 140.668C32.0277 141.417 33.0962 141.194 33.7215 141.935C35.3757 143.864 33.1872 146.096 31.2322 146.359Z" fill="#FFC5C7" stroke="#5E5959" stroke-width="0.7515" stroke-miterlimit="10" stroke-linecap="round" stroke-linejoin="round"/>
<path d="M36.9212 142.398C37.1152 143.78 36.9984 145.201 36.5809 146.53C36.4424 146.97 36.2327 147.441 35.8171 147.627C35.3442 147.834 34.7882 147.603 34.2856 147.688C33.3734 147.842 32.9401 148.931 33.0034 149.85C33.0647 150.645 33.5831 151.564 34.3865 151.525C35.453 151.471 35.6924 149.957 36.5275 149.293C37.2616 148.7 38.3598 148.87 39.2086 148.437C39.7805 148.15 40.1901 147.611 40.5008 147.047C41.2962 145.595 41.5515 143.857 41.2111 142.236C41.033 141.394 40.5779 140.475 39.735 140.283C39.1473 140.143 38.4745 140.398 37.9423 140.113C36.6976 139.449 36.9984 135.047 35.0197 137.249C32.8253 139.688 36.6818 140.677 36.9212 142.398Z" fill="#FFC5C7" stroke="#5E5959" stroke-width="0.7515" stroke-miterlimit="10" stroke-linecap="round" stroke-linejoin="round"/>
<path d="M45.408 132.793C45.0914 133.295 44.4107 133.388 43.9398 133.742C43.2749 134.228 43.0968 135.139 43.1285 135.966C43.1582 136.946 43.6469 138.12 44.6284 138.174C45.2378 138.213 45.7641 137.78 46.2746 137.44C46.7772 137.1 47.4718 136.839 47.9744 137.177C48.3385 137.419 48.477 137.897 48.8332 138.144C49.3358 138.484 50.054 138.221 50.4478 137.757C51.1206 136.97 51.1126 135.835 51.0731 134.807C51.0592 134.483 51.0434 134.143 50.9108 133.851C50.5566 133.07 48.5304 131.048 47.6261 130.909C46.1658 130.692 46.0036 131.85 45.408 132.793Z" fill="#FFC5C7" stroke="#5E5959" stroke-width="0.7515" stroke-miterlimit="10" stroke-linecap="round" stroke-linejoin="round"/>
<path d="M36.8679 96.9882C36.7512 97.4685 36.6206 97.9548 36.3416 98.356C35.6392 99.376 34.2164 99.5598 32.9956 99.4215C32.2456 99.3285 31.4106 99.0815 31.094 98.4015C30.7992 97.7848 31.0544 97.0514 30.9535 96.3793C30.8625 95.7231 30.4371 95.1735 30.1205 94.5964C29.8019 94.0093 29.5783 93.2898 29.8811 92.7027C30.1739 92.1315 30.8704 91.8844 31.5036 91.7855C32.1447 91.6926 32.8254 91.6689 33.3814 91.3368C34.0859 90.9118 34.4163 90.0935 34.812 89.3681C35.1979 88.6505 35.8173 87.9093 36.6364 87.9014C37.4398 87.8934 38.0888 88.6347 38.259 89.4135C38.7616 91.7085 37.424 94.8039 36.8679 96.9882Z" fill="#FFC5C7" stroke="#5E5959" stroke-width="0.7515" stroke-miterlimit="10" stroke-linecap="round" stroke-linejoin="round"/>
<path d="M47.5195 96.4641C49.3656 97.3437 47.2325 100.016 46.0967 100.402C44.1338 101.082 41.512 99.0575 42.1472 96.9425C42.4954 95.8158 43.8469 95.0587 44.953 95.4837C45.4695 95.6754 45.8949 96.0925 46.4371 96.2407C46.7913 96.3317 47.187 96.302 47.5195 96.4641Z" fill="#FFC5C7" stroke="#5E5959" stroke-width="0.7515" stroke-miterlimit="10" stroke-linecap="round" stroke-linejoin="round"/>
<path d="M40.3464 101.761C39.7113 101.953 38.993 101.846 38.4449 101.483C38.1738 101.305 37.9344 101.058 37.6257 100.973C37.1844 100.842 36.6977 101.066 36.389 101.398C36.0783 101.738 35.9002 102.171 35.732 102.594C35.3363 103.582 35.0355 104.91 35.8943 105.529C36.5354 105.999 39.2561 105.729 40.0357 105.683C43.3145 105.489 42.9584 100.957 40.3464 101.761Z" fill="#FFC5C7" stroke="#5E5959" stroke-width="0.7515" stroke-miterlimit="10" stroke-linecap="round" stroke-linejoin="round"/>
<path d="M42.7802 112.964C42.424 113.088 42.1232 113.343 41.7829 113.497C41.4346 113.652 40.9795 113.683 40.7243 113.397C40.5778 113.235 40.5303 113.003 40.4927 112.78C40.4314 112.393 40.3681 111.97 40.5541 111.622C40.9558 110.841 42.0995 111.019 42.9503 110.787C43.8309 110.548 44.4581 109.799 45.0913 109.143C49.1794 104.98 50.8336 113.351 47.0938 114.061C45.586 114.347 44.4186 112.4 42.7802 112.964Z" fill="#FFC5C7" stroke="#5E5959" stroke-width="0.7515" stroke-miterlimit="10" stroke-linecap="round" stroke-linejoin="round"/>
<path d="M38.3599 120.662C38.6527 121.388 39.2641 122.015 40.0279 122.184C41.6208 122.53 43.3839 120.925 44.7749 121.767C45.8494 122.416 45.972 124.175 47.1632 124.562C50.3707 125.596 50.3787 120.508 49.5891 118.731C48.6552 116.6 47.6817 117.405 45.7484 116.988C44.1101 116.632 42.7645 115.442 41.0114 115.567C38.629 115.737 37.4853 118.492 38.3599 120.662Z" fill="#FFC5C7" stroke="#5E5959" stroke-width="0.7515" stroke-miterlimit="10" stroke-linecap="round" stroke-linejoin="round"/>
<path d="M60.0703 88.5728C60.6045 89.0195 60.8677 89.822 60.5729 90.4566C60.1633 91.3678 58.9266 91.5299 57.9293 91.3975C56.7084 91.2354 55.4183 90.7412 54.799 89.6679C54.4368 89.0433 54.1044 86.2166 55.4954 86.4479C56.3997 86.604 56.3305 87.7683 57.0567 88.1083C58.0144 88.557 59.0591 87.7307 60.0703 88.5728Z" fill="#FFC5C7" stroke="#5E5959" stroke-width="0.7515" stroke-miterlimit="10" stroke-linecap="round" stroke-linejoin="round"/>
<path d="M65.6208 84.6808C65.3497 83.6925 64.77 82.8425 63.8815 82.7417C63.2938 82.6725 62.6844 83.052 62.4826 83.6075C62.2827 84.1629 62.5063 84.8429 63.001 85.175C64.1684 85.9399 64.3683 89.9922 65.5812 87.2742C65.8681 86.6417 65.8761 85.6 65.6208 84.6808Z" fill="#FFC5C7" stroke="#5E5959" stroke-width="0.7515" stroke-miterlimit="10" stroke-linecap="round" stroke-linejoin="round"/>
<path d="M68.0784 91.2434C67.4214 91.4293 66.8041 91.87 66.5864 92.5105C66.4162 93.0284 66.525 93.5917 66.4934 94.1393C66.432 95.351 65.6445 96.4401 64.6393 97.1359C63.6341 97.8297 62.4449 98.1776 61.2537 98.4484C60.3178 98.6639 59.3363 98.8497 58.5725 99.421C57.7989 99.9922 57.32 101.097 57.7751 101.937C58.1075 102.548 58.8337 102.856 59.5302 102.872C60.2248 102.888 60.9055 102.665 61.5624 102.439C63.1315 101.908 64.6927 101.374 66.2619 100.85C68.6581 100.032 71.3413 98.9584 72.2614 96.6022C73.3339 93.8309 71.1929 90.3796 68.0784 91.2434Z" fill="#FFC5C7" stroke="#5E5959" stroke-width="0.7515" stroke-miterlimit="10" stroke-linecap="round" stroke-linejoin="round"/>
<path d="M75.2353 104.16C75.4688 102.88 75.5835 101.713 75.6845 101.389C75.9476 100.547 76.0861 99.5745 75.6073 98.8412C73.496 95.6133 71.3095 102.818 71.2165 103.945C71.1314 105.002 71.1552 106.161 71.7884 107.019C73.8759 109.83 74.7802 106.772 75.2353 104.16Z" fill="#FFC5C7" stroke="#5E5959" stroke-width="0.7515" stroke-miterlimit="10" stroke-linecap="round" stroke-linejoin="round"/>
<path d="M67.7379 113.482C68.0406 111.228 71.8358 111.991 71.448 114.084C71.1017 115.952 67.4688 115.567 67.7379 113.482Z" fill="#FFC5C7" stroke="#5E5959" stroke-width="0.7515" stroke-miterlimit="10" stroke-linecap="round" stroke-linejoin="round"/>
<path d="M66.6555 68.8517C65.0646 69.5238 63.2323 69.3854 61.5544 68.9446C60.6422 70.1109 61.5168 72.4275 60.1178 72.9217C59.0968 73.2755 58.24 72.0263 58.054 70.9589C57.868 69.8934 57.8146 68.6046 56.8866 68.0492C56.2059 67.64 55.3412 67.8258 54.5517 67.7626C53.3545 67.6697 52.2801 66.9996 51.267 66.3493C50.2934 65.7246 49.2427 65.0071 48.9103 63.8863C48.4235 62.2654 49.8146 60.5358 51.453 60.1187C53.0993 59.7017 54.8386 60.265 56.3523 61.0221C57.0171 61.3463 57.7295 61.7258 58.4478 61.5558C59.5143 61.3087 59.9556 60.0258 60.009 58.9307C60.0624 57.8337 59.9477 56.6358 60.5888 55.7483C61.1764 54.9458 62.2192 54.6374 63.1928 54.3903C64.2534 54.1195 65.4268 53.8566 66.3944 54.3745C66.8732 54.6295 67.267 55.0683 67.8012 55.1849C69.0439 55.4637 70.1124 53.8566 71.3629 54.074C72.3444 54.242 72.7936 55.4241 72.756 56.4204C72.7164 57.4087 72.3919 58.4129 72.6234 59.3775C72.847 60.3737 74.2083 62.467 72.7401 63.2696C71.8358 63.7637 71.2937 62.5738 70.4507 62.6746C68.7668 62.8841 69.5168 64.1966 69.3545 65.4162C69.1369 66.96 68.102 68.2429 66.6555 68.8517Z" fill="#FFC5C7" stroke="#5E5959" stroke-width="0.7515" stroke-miterlimit="10" stroke-linecap="round" stroke-linejoin="round"/>
<path d="M26.0539 183.97C25.9074 184.11 25.7669 184.272 25.6898 184.464C25.4582 185.067 25.9925 185.723 26.5861 185.978C27.3836 186.318 28.2958 186.233 29.1605 186.302C30.0272 186.371 30.9848 186.688 31.341 187.484C31.7506 188.433 31.1016 189.498 31.1174 190.534C31.1392 191.56 31.9287 192.525 32.9319 192.758C33.4741 192.873 34.038 192.803 34.5802 192.703C35.8545 192.479 37.0991 192.123 38.3041 191.653C39.2084 191.297 40.1899 190.757 40.4155 189.809C40.6074 188.988 40.1285 188.117 39.4261 187.654C38.7296 187.182 37.857 187.051 37.0061 187.051C33.759 187.028 33.6977 185.606 31.5191 183.855C29.9797 182.62 27.5142 182.564 26.0539 183.97Z" fill="#FFC5C7" stroke="#5E5959" stroke-width="0.7515" stroke-miterlimit="10" stroke-linecap="round" stroke-linejoin="round"/>
<path d="M67.1285 148.02C66.3785 145.658 63.5193 144.205 61.1685 145.001C60.7748 145.124 60.381 145.325 60.1475 145.663C59.3066 146.899 61.1072 148.368 61.0914 149.864C61.0755 150.838 60.2563 151.633 59.3758 152.034C58.4874 152.436 57.498 152.576 56.5858 152.922C55.3175 153.408 54.2113 154.327 53.501 155.493C53.03 156.266 52.7194 157.154 52.1337 157.85C51.4372 158.676 50.4161 159.146 49.4663 159.656C46.3815 161.293 43.6469 163.57 41.4663 166.296C40.5166 167.486 39.6499 168.799 39.3412 170.287C38.6842 173.416 40.9875 176.859 44.1337 177.446C45.3704 177.678 46.8149 177.585 47.6895 178.504C47.9823 178.812 48.1762 179.222 48.4453 179.554C49.7988 181.244 52.7055 180.659 54.0807 178.982C54.4666 178.512 54.8149 177.941 55.3946 177.747C56.3464 177.423 57.6365 178.188 58.2776 177.423C59.9081 177.893 61.0597 177.043 62.6922 176.557C63.1018 176.434 63.5727 176.349 63.9507 176.565C64.6551 176.966 64.5225 178.125 65.1656 178.627C65.6741 179.028 66.4082 178.836 67.0197 178.627C67.7458 178.372 68.5492 178.032 68.7906 177.314C68.937 176.867 68.8203 176.381 68.8044 175.909C68.7589 174.968 69.129 174.009 69.7879 173.337C70.6981 172.412 72.57 172.999 72.8549 171.732C72.9321 171.384 72.847 171.022 72.9103 170.674C73.126 169.477 74.7644 169.253 75.6152 168.381C76.3573 167.624 76.4186 166.427 76.2564 165.377C76.102 164.327 75.7617 163.278 75.8705 162.218C75.9853 161.107 76.5809 160.111 77.1072 159.131C77.6395 158.15 78.1421 157.069 78.0412 155.956C77.9422 154.845 77.0221 153.734 75.9002 153.825C75.6924 153.849 75.4748 153.902 75.267 153.865C74.7961 153.772 74.5784 153.246 74.3785 152.815C73.0864 149.981 70.0649 149.061 67.1285 148.02Z" fill="#FFC5C7" stroke="#5E5959" stroke-width="0.7515" stroke-miterlimit="10" stroke-linecap="round" stroke-linejoin="round"/>
<path d="M71.4105 243.51C70.3519 242.824 69.0994 242.515 67.7618 242.946C66.9109 243.217 66.0146 243.966 66.2401 244.83C66.6022 246.283 69.2993 245.773 69.8177 247.178C70.0195 247.718 69.7939 248.382 70.0967 248.876C70.344 249.285 70.908 249.434 71.3868 249.333C71.8657 249.232 72.2752 248.953 72.6769 248.677C73.3893 248.174 74.1926 247.479 74.0462 246.623C73.9987 246.336 73.8444 246.089 73.6821 245.842C73.0945 244.947 72.3227 244.089 71.4105 243.51Z" fill="#FFC5C7" stroke="#5E5959" stroke-width="0.7515" stroke-miterlimit="10" stroke-linecap="round" stroke-linejoin="round"/>
<path d="M106.563 206.864C107.653 206.024 108.789 207.776 109.794 205.823C110.528 204.401 109.996 202.488 108.868 201.429C107.552 200.201 105.536 199.901 103.804 200.403C102.698 200.719 101.624 201.399 101.206 202.472C100.953 203.136 100.983 203.878 101.03 204.595C101.129 206.032 101.368 207.552 102.544 208.517C103.634 209.42 105.296 209.752 105.892 208.108C106.038 207.722 106.115 207.297 106.408 207.005C106.456 206.949 106.509 206.904 106.563 206.864Z" fill="#FFC5C7" stroke="#5E5959" stroke-width="0.7515" stroke-miterlimit="10" stroke-linecap="round" stroke-linejoin="round"/>
<path d="M99.7379 217.504C98.6635 217.682 97.5672 217.39 96.5066 217.095C95.9902 216.957 95.4401 216.795 95.0463 216.415C94.4982 215.884 94.3973 215.034 94.4903 214.277C94.6051 213.389 94.9612 212.501 95.6498 211.922C96.3365 211.351 97.3812 211.165 98.147 211.636C98.2301 210.95 98.3785 210.161 98.9741 209.815C99.6311 209.428 100.458 209.776 101.091 210.177C101.918 210.703 102.698 211.335 103.171 212.185C104.584 214.709 102.227 217.095 99.7379 217.504Z" fill="#FFC5C7" stroke="#5E5959" stroke-width="0.7515" stroke-miterlimit="10" stroke-linecap="round" stroke-linejoin="round"/>
<path d="M115.283 207.915C114.533 208.37 114.03 209.22 113.983 210.099C113.953 210.756 114.161 211.451 113.906 212.052C113.605 212.793 112.746 213.133 112.238 213.744C111.525 214.586 111.581 215.859 112.052 216.848C112.538 217.836 113.365 218.601 114.177 219.334C114.4 219.542 114.648 219.759 114.95 219.813C115.174 219.852 115.406 219.797 115.615 219.712C116.573 219.334 117.192 218.261 117.044 217.249C116.951 216.608 116.589 215.992 116.698 215.349C116.82 214.624 117.501 214.146 117.948 213.558C119.41 211.643 118.839 205.745 115.283 207.915Z" fill="#FFC5C7" stroke="#5E5959" stroke-width="0.7515" stroke-miterlimit="10" stroke-linecap="round" stroke-linejoin="round"/>
<path d="M132.071 206.826C131.422 207.336 130.177 206.956 129.937 207.697C129.706 208.401 130.1 210.832 128.461 208.957C127.897 208.3 127.581 207.073 127.65 205.914C127.727 204.732 128.214 203.629 129.273 203.313C130.579 202.918 132.52 204.533 132.464 205.899C132.443 206.369 132.286 206.648 132.071 206.826Z" fill="#FFC5C7" stroke="#5E5959" stroke-width="0.7515" stroke-miterlimit="10" stroke-linecap="round" stroke-linejoin="round"/>
<path d="M148.442 203.906C147.847 203.691 147.204 203.675 146.578 203.667C145.442 203.659 144.158 203.744 143.416 204.602C143.131 204.942 142.953 205.367 142.767 205.776C142.243 206.919 141.531 208.014 141.4 209.265C141.275 210.508 142.011 211.975 143.262 212.076C144.198 212.153 145.233 211.481 145.991 212.023C146.517 212.392 146.626 213.203 147.198 213.497C147.645 213.728 148.187 213.543 148.658 213.359C150.033 212.801 151.586 212.06 151.982 210.633C152.251 209.658 151.889 208.617 151.379 207.745C150.69 206.571 149.81 204.393 148.442 203.906Z" fill="#FFC5C7" stroke="#5E5959" stroke-width="0.7515" stroke-miterlimit="10" stroke-linecap="round" stroke-linejoin="round"/>
<path d="M152.406 237.983C155.706 239.442 151.719 245.472 148.943 241.325C148.581 240.778 148.349 240.09 148.533 239.465C148.688 238.963 149.091 238.576 149.531 238.299C150.382 237.765 151.494 237.574 152.406 237.983Z" fill="#FFC5C7" stroke="#5E5959" stroke-width="0.7515" stroke-miterlimit="10" stroke-linecap="round" stroke-linejoin="round"/>
<path d="M199.81 232.816C199.216 231.628 199.108 230.238 199.302 228.918C199.387 228.323 199.765 227.574 200.352 227.712C200.908 227.837 201.001 228.639 201.504 228.918C202.291 229.357 203.057 228.185 203.954 228.076C204.533 228.015 205.068 228.416 205.408 228.886C206.188 229.967 206.273 231.474 205.724 232.678C204.395 235.643 201.256 235.72 199.81 232.816Z" fill="#FFC5C7" stroke="#5E5959" stroke-width="0.7515" stroke-miterlimit="10" stroke-linecap="round" stroke-linejoin="round"/>
<path d="M197.23 199.893C196.789 200.233 196.177 200.387 195.869 200.873C195.483 201.492 195.776 202.595 195.281 203.089C193.874 204.494 191.911 202.703 191.788 201.16C191.579 198.572 195.754 194.943 197.515 198.054C197.762 198.495 197.839 199.074 197.584 199.515C197.493 199.669 197.368 199.792 197.23 199.893Z" fill="#FFC5C7" stroke="#5E5959" stroke-width="0.7515" stroke-miterlimit="10" stroke-linecap="round" stroke-linejoin="round"/>
<path d="M120.746 188.835C117.879 187.421 114.756 185.739 113.644 182.734C113.227 181.624 113.142 180.426 113.049 179.238C112.932 177.67 112.839 175.972 113.682 174.636C114.456 173.393 115.932 172.705 117.392 172.582C118.852 172.45 120.315 172.813 121.698 173.292C123.089 173.762 124.557 174.458 125.198 175.779C126.158 177.739 124.897 180.149 125.509 182.248C125.825 183.337 126.621 184.217 127.394 185.043C128.615 186.35 130.926 189.406 128.716 190.965C126.753 192.357 122.525 189.716 120.746 188.835Z" fill="#FFC5C7" stroke="#5E5959" stroke-width="0.7515" stroke-miterlimit="10" stroke-linecap="round" stroke-linejoin="round"/>
<path d="M130.363 183.994C129.975 184.759 130.873 185.546 131.677 185.832C133.052 186.326 134.567 186.441 135.996 186.156C136.685 186.024 137.357 185.801 138.06 185.824C138.756 185.856 139.506 186.21 139.722 186.866C139.954 187.562 139.544 188.38 139.868 189.044C140.116 189.56 140.759 189.801 141.331 189.738C141.903 189.685 142.421 189.398 142.916 189.106C143.27 188.89 143.634 188.657 143.85 188.303C144.336 187.514 143.996 186.318 144.701 185.724C145.419 185.113 146.725 185.607 147.336 184.889C147.868 184.257 147.312 183.229 146.547 182.905C146.214 182.758 145.836 182.689 145.565 182.45C145.342 182.264 145.219 181.994 145.057 181.754C144.052 180.25 141.493 180.171 140.395 181.616C140.11 181.994 139.916 182.45 139.584 182.79C137.403 185.107 132.062 180.697 130.363 183.994Z" fill="#FFC5C7" stroke="#5E5959" stroke-width="0.7515" stroke-miterlimit="10" stroke-linecap="round" stroke-linejoin="round"/>
<path d="M138.254 177.508C137.203 177.654 136.166 177.277 135.147 177.014C133.446 176.581 131.669 176.48 129.929 176.711C129.528 176.767 129.11 176.836 128.732 176.697C128.097 176.472 127.773 175.747 127.796 175.083C127.828 174.418 128.129 173.802 128.43 173.207C128.546 172.967 128.677 172.72 128.901 172.582C129.427 172.258 130.084 172.667 130.695 172.627C131.406 172.582 131.916 171.926 132.187 171.269C132.456 170.613 132.589 169.886 133.006 169.315C133.432 168.751 134.126 168.389 134.845 168.382C135.318 168.382 135.788 168.52 136.259 168.467C136.932 168.382 137.488 167.909 138.068 167.547C138.648 167.184 139.413 166.921 139.993 167.277C140.797 167.763 140.658 168.937 140.488 169.856C140.318 170.781 140.427 172.032 141.339 172.25C141.539 172.295 141.762 172.28 141.948 172.38C144.445 173.746 139.36 177.346 138.254 177.508Z" fill="#FFC5C7" stroke="#5E5959" stroke-width="0.7515" stroke-miterlimit="10" stroke-linecap="round" stroke-linejoin="round"/>
<path d="M144.337 177.09C144.453 177.345 144.6 177.6 144.815 177.77C145.488 178.302 146.541 177.94 147.259 178.395C148.086 178.921 148.078 180.287 148.951 180.735C149.733 181.145 150.653 180.55 151.254 179.909C151.858 179.275 152.491 178.504 153.373 178.488C153.706 178.48 154.046 178.589 154.371 178.526C154.964 178.411 155.328 177.739 155.267 177.136C155.204 176.535 154.81 176.009 154.379 175.592C153.991 175.228 153.528 174.898 152.994 174.875C152.159 174.843 151.278 175.547 150.568 175.106C150.11 174.827 150.01 174.218 149.748 173.754C148.256 171.153 143.193 174.396 144.337 177.09Z" fill="#FFC5C7" stroke="#5E5959" stroke-width="0.7515" stroke-miterlimit="10" stroke-linecap="round" stroke-linejoin="round"/>
<path d="M163.621 186.411C162.741 182.789 156.589 181.839 156.148 186.264C156.055 187.229 156.124 188.403 156.959 188.897C158.32 189.684 159.927 187.862 161.466 188.178C161.743 188.241 162.007 188.364 162.286 188.387C163.212 188.456 163.839 187.314 163.621 186.411Z" fill="#FFC5C7" stroke="#5E5959" stroke-width="0.7515" stroke-miterlimit="10" stroke-linecap="round" stroke-linejoin="round"/>
<path d="M171.839 181.793C171.443 179.283 168.815 180.582 167.185 179.662C166.621 179.346 166.752 178.496 166.211 178.079C165.701 177.7 164.967 177.739 164.395 178.026C163.382 178.534 162.81 179.801 163.113 180.898C163.414 181.993 164.541 182.797 165.677 182.72C166.227 182.689 166.752 182.473 167.294 182.402C167.842 182.333 168.483 182.458 168.762 182.928C169.102 183.483 168.855 184.333 169.366 184.727C169.797 185.067 170.44 184.788 170.842 184.418C171.552 183.754 171.993 182.758 171.839 181.793Z" fill="#FFC5C7" stroke="#5E5959" stroke-width="0.7515" stroke-miterlimit="10" stroke-linecap="round" stroke-linejoin="round"/>
<path d="M169.69 164.458C171.677 165.254 171.698 167.67 171.198 169.415C170.996 170.119 169.967 171.323 169.134 170.72C168.847 170.512 168.746 170.141 168.6 169.825C168.267 169.083 167.61 168.504 166.837 168.265C166.605 168.188 166.358 168.142 166.15 168.018C165.376 167.577 165.461 166.389 165.964 165.656C166.759 164.489 168.384 163.942 169.69 164.458Z" fill="#FFC5C7" stroke="#5E5959" stroke-width="0.7515" stroke-miterlimit="10" stroke-linecap="round" stroke-linejoin="round"/>
<path d="M189.546 168.474C187.568 169.059 185.411 167.778 183.401 168.288C182.273 168.573 181.238 169.423 180.078 169.261C179.467 169.176 178.935 168.812 178.448 168.443C176.6 167.069 174.823 165.191 174.744 162.89C174.738 162.667 174.751 162.428 174.868 162.234C175.347 161.447 176.669 162.25 177.48 161.803C178.03 161.5 178.123 160.767 178.408 160.204C178.935 159.207 180.341 158.79 181.323 159.346C181.988 159.717 182.482 160.443 183.238 160.52C183.866 160.573 184.422 160.15 184.924 159.771C192.56 154.143 195.892 166.582 189.546 168.474Z" fill="#FFC5C7" stroke="#5E5959" stroke-width="0.7515" stroke-miterlimit="10" stroke-linecap="round" stroke-linejoin="round"/>
<path d="M229.94 163.934C233.079 164.659 236.092 166.575 235.382 169.763C235.127 170.89 234.238 171.801 233.201 172.319C232.159 172.829 230.983 172.983 229.824 173.029C228.821 173.068 227.637 172.936 227.103 172.08C226.887 171.724 226.818 171.299 226.778 170.882C226.664 169.455 226.709 168.203 225.728 167.061C225.281 166.543 223.911 166.08 223.765 165.361C223.417 163.708 226.749 163.206 229.94 163.934Z" fill="#FFC5C7" stroke="#5E5959" stroke-width="0.7515" stroke-miterlimit="10" stroke-linecap="round" stroke-linejoin="round"/>
<path d="M222.767 151.973C223.123 151.556 223.679 151.155 224.182 151.378C224.453 151.503 224.615 151.764 224.738 152.027C225.217 153.116 225.094 154.444 224.429 155.424C224.206 155.764 223.903 156.126 224.004 156.522C224.089 156.846 224.445 157.053 224.786 157.077C225.124 157.109 225.456 157 225.789 156.915C226.578 156.729 227.397 156.668 228.209 156.745C228.696 156.79 229.206 156.899 229.584 157.207C229.964 157.518 230.18 158.089 229.956 158.52C229.724 158.969 229.166 159.123 228.672 159.224C226.416 159.694 223.161 160.815 221.754 158.174C220.804 156.405 221.57 153.408 222.767 151.973Z" fill="#FFC5C7" stroke="#5E5959" stroke-width="0.7515" stroke-miterlimit="10" stroke-linecap="round" stroke-linejoin="round"/>
<path d="M260.27 155.81C259.505 155.3 258.778 154.699 258.323 153.897C257.65 152.723 257.682 151.179 258.4 150.035C259.119 148.884 260.486 148.182 261.839 148.267C262.211 148.291 262.589 148.368 262.882 148.592C264.089 149.487 263.06 151.687 264.081 152.784C264.645 153.395 265.597 153.403 266.323 153.796C267.892 154.638 267.946 157.239 266.292 157.997C264.552 158.799 261.64 156.722 260.27 155.81Z" fill="#FFC5C7" stroke="#5E5959" stroke-width="0.7515" stroke-miterlimit="10" stroke-linecap="round" stroke-linejoin="round"/>
<path d="M271.23 166.134C271.903 167.662 271.571 169.841 270.435 171.114C269.924 171.693 268.903 171.879 268.417 171.284C267.954 170.736 268.07 169.493 268.076 168.805C268.084 167.548 268.417 166.172 269.43 165.431C269.639 165.284 269.871 165.162 270.118 165.162C270.635 165.162 271.015 165.656 271.23 166.134Z" fill="#FFC5C7" stroke="#5E5959" stroke-width="0.7515" stroke-miterlimit="10" stroke-linecap="round" stroke-linejoin="round"/>
<path d="M258.501 93.6076C262.196 93.5365 260.919 97.3989 257.943 97.3989C255.98 97.4048 255.525 94.6415 257.225 93.8468C257.619 93.661 258.06 93.6136 258.501 93.6076Z" fill="#FFC5C7" stroke="#5E5959" stroke-width="0.7515" stroke-miterlimit="10" stroke-linecap="round" stroke-linejoin="round"/>
<path d="M257.959 88.8973C257.829 89.5615 258.098 90.3561 258.741 90.5874C259.605 90.9036 260.735 90.109 261.422 90.7258C261.831 91.0895 261.794 91.7615 262.14 92.1944C262.643 92.819 263.672 92.6253 264.344 92.1707C264.847 91.8228 265.286 91.3444 265.457 90.7574C265.619 90.1703 265.457 89.4686 264.962 89.1128C264.443 88.7431 263.757 88.8202 263.124 88.8123C262.488 88.8044 261.746 88.6186 261.531 88.0236C260.696 85.6852 258.377 86.7427 257.959 88.8973Z" fill="#FFC5C7" stroke="#5E5959" stroke-width="0.7515" stroke-miterlimit="10" stroke-linecap="round" stroke-linejoin="round"/>
<path d="M264.034 127.921C263.943 128.856 263.193 129.589 262.388 130.067C261.592 130.538 260.688 130.862 259.962 131.441C258.222 132.815 257.844 135.256 257.597 137.456C257.472 138.599 257.557 140.105 258.656 140.461C259.568 140.745 260.656 139.988 261.461 140.506C261.986 140.854 262.079 141.564 262.257 142.167C262.736 143.843 264.244 145.169 265.967 145.44C266.717 145.565 267.552 145.472 268.116 144.97C268.672 144.475 268.866 143.703 268.951 142.969C269.052 142.09 269.028 141.186 268.874 140.313C268.757 139.611 268.557 138.901 268.72 138.205C268.866 137.603 269.268 137.1 269.632 136.592C270.204 135.788 270.706 134.885 270.76 133.896C270.813 132.916 270.31 131.842 269.384 131.503C268.866 131.303 268.27 131.356 267.776 131.093C266.98 130.676 264.507 122.886 264.034 127.921Z" fill="#FFC5C7" stroke="#5E5959" stroke-width="0.7515" stroke-miterlimit="10" stroke-linecap="round" stroke-linejoin="round"/>
<path d="M264.204 123.257C264.77 123.334 265.395 123.095 265.89 123.388C266.507 123.757 266.47 124.732 267.018 125.202C267.552 125.657 268.464 125.388 268.797 124.777C269.129 124.161 268.951 123.356 268.51 122.816C268.07 122.275 267.411 121.959 266.749 121.743C266.377 121.626 265.991 121.528 265.712 121.257C265.356 120.901 265.286 120.322 264.916 119.974C263.462 118.608 261.554 122.925 264.204 123.257Z" fill="#FFC5C7" stroke="#5E5959" stroke-width="0.7515" stroke-miterlimit="10" stroke-linecap="round" stroke-linejoin="round"/>
<path d="M265.866 70.1267C264.089 65.9797 257.951 65.1139 256.22 60.9451C255.765 59.848 255.672 58.6284 255.23 57.5333C253.616 53.5009 248.321 52.645 245.068 49.7807C241.017 46.2207 240.669 40.2057 239.672 34.9161C238.674 29.6048 236.502 24.161 232.089 21.0339C227.669 17.9147 220.61 18.1835 217.658 22.7161C216.661 24.2381 215.772 26.3848 213.956 26.3611C212.432 26.3373 211.328 24.6927 209.805 24.6236C207.579 24.5307 206.573 27.6894 204.424 28.2685C203.677 28.4682 202.879 28.3219 202.129 28.1361C198.419 27.2031 194.408 25.2265 191.015 26.9778C189.988 27.5115 188.789 28.3694 187.823 27.727C186.98 27.1715 187.065 25.8511 186.369 25.1177C185.233 23.9436 183.339 25.1098 181.948 25.9835C178.285 28.2764 173.19 28.0136 169.775 25.3648C169.395 25.0723 169.025 24.7244 168.924 24.2678C168.73 23.4494 169.443 22.7319 170.03 22.129C171.56 20.5615 172.581 17.8435 171.012 16.3077C169.443 14.7639 166.18 15.4359 165.299 13.4197C164.597 11.8068 166.18 10.1839 166.682 8.50174C167.193 6.79585 166.435 4.79549 164.935 3.8526C163.429 2.90379 161.296 3.08958 159.982 4.28548C157.562 6.47169 157.818 11.3126 154.656 12.1072C151.549 12.8801 149.756 8.8714 148.086 6.14555C145.913 2.59544 141.794 0.247101 137.629 0.456635C133.477 0.672089 129.512 3.56003 128.283 7.52921C127.828 9.0117 127.727 10.5931 127.171 12.038C125.833 15.5288 121.975 17.9839 121.82 21.7198C120.445 20.7236 118.443 21.0418 117.052 22.0064C115.653 22.9789 114.725 24.4694 113.836 25.9203C113.227 24.6394 112.57 23.3111 111.424 22.469C110.281 21.6269 108.496 21.4727 107.538 22.5303C105.937 24.2994 107.708 27.3177 105.65 28.8635C104.129 29.9981 100.472 29.1719 99.0038 28.1065C95.0008 25.1869 97.4188 19.5593 93.6315 16.114C91.2214 13.9218 92.5887 10.9409 89.49 8.94252C88.0278 7.99965 86.2884 7.53714 84.5115 7.3118C84.3651 7.67551 84.2167 8.03723 84.0703 8.40094C81.9372 13.481 78.7752 18.1914 77.7087 23.6747C77.2615 25.9598 76.8816 28.7706 74.7188 29.6423C74.046 29.9052 73.304 29.929 72.6471 30.2057C70.8306 30.9628 70.2825 33.2399 70.1579 35.2027C70.1262 35.7819 70.0965 36.3908 69.7641 36.8612C69.493 37.2407 69.0755 37.4641 68.7193 37.7724C67.3065 38.9861 67.3678 41.5182 68.844 42.6687C69.2615 42.9928 69.7641 43.2162 70.1123 43.6175C70.8682 44.4991 70.6288 45.8887 71.264 46.8533C72.1287 48.1816 74.0698 48.0729 75.5222 48.6995C79.1789 50.267 78.9157 55.7958 81.8363 58.49C83.4608 59.9962 85.9877 60.5201 87.1076 62.4355C88.2672 64.4201 87.3471 66.9601 86.1578 68.9289C85.679 69.7176 85.1368 70.5122 84.3493 70.9985C83.5598 71.4847 82.4794 71.6014 81.7374 71.0439C80.3305 69.9864 81.1339 67.6934 80.4453 66.0805C80.0119 65.0684 79.0008 64.4043 77.9342 64.1256C76.1336 63.663 73.9372 64.3726 73.1794 66.0726C72.4294 67.7705 73.8284 70.1643 75.6765 69.9409C76.658 69.8243 77.7799 69.1147 78.5219 69.7709C79.0087 70.1959 78.9612 70.9589 78.8682 71.6092C78.7752 72.2655 78.6842 72.9218 78.5912 73.5701C78.5358 73.9556 78.4665 74.3806 78.1658 74.6276C77.7641 74.9676 77.1685 74.8352 76.6421 74.8055C74.9028 74.7126 73.2427 76.2031 73.1497 77.9326C73.118 78.4031 73.1952 78.9052 72.9874 79.3302C72.6312 80.0872 71.6498 80.2256 70.8603 80.5182C69.0755 81.1902 67.9318 83.2361 68.28 85.1139C68.6342 86.9819 70.4448 88.4723 72.3522 88.4565C74.2617 88.4328 76.0406 86.9127 76.3572 85.0368C76.5274 84.0248 76.3176 82.9831 76.5491 81.9868C76.7905 80.9985 77.7641 80.0319 78.7297 80.3798C79.7112 79.9014 80.9102 81.121 81.0092 82.2023C81.1101 83.2914 80.5541 84.3173 80.1208 85.3215C79.0621 87.7844 78.6921 90.5419 79.0542 93.1966C79.4183 95.8078 80.4611 98.4249 79.8734 100.997C79.1927 103.969 76.4265 106.209 76.0485 109.235C75.9773 109.807 76.009 110.423 76.3414 110.888C76.5966 111.242 76.9983 111.475 77.4 111.629C78.5279 112.06 79.82 112.054 80.9479 111.605C81.8066 111.265 82.5566 110.678 83.3837 110.247C86.2964 108.733 89.8205 109.32 93.03 110.07C93.8868 110.261 94.7752 110.487 95.4401 111.058C96.1128 111.629 96.4848 112.647 96.0436 113.412C95.5885 114.193 94.4982 114.369 93.6236 114.145C92.743 113.914 91.9694 113.396 91.1205 113.088C87.7586 111.892 84.2721 114.207 80.8014 115.011C79.5331 115.304 78.0728 115.497 77.3545 116.571C76.4106 117.976 77.5088 119.99 79.0384 120.702C80.5779 121.412 82.3547 121.258 84.0485 121.273C88.7698 121.327 93.7166 123.141 96.4156 127.01C97.1952 128.136 97.7294 129.751 96.839 130.785C96.1128 131.619 94.8385 131.611 93.7403 131.519C91.7537 131.349 89.4425 130.878 88.5858 129.087C88.1208 128.115 88.2138 126.964 87.8734 125.936C87.1393 123.752 84.6283 122.685 82.331 122.432C81.7433 122.361 81.1259 122.339 80.5917 122.578C79.3629 123.141 79.1472 124.746 78.698 126.021C78.0114 127.937 76.4423 129.589 76.4423 131.627C76.4265 134.236 78.9612 136.075 81.3119 137.209C83.6528 138.344 86.3518 139.494 87.3253 141.92C83.1739 143.379 78.0728 140.955 76.5808 136.824C75.8625 134.824 75.8863 132.531 74.6634 130.793C74.1845 130.105 73.5276 129.55 73.0567 128.856C72.1128 127.472 71.9743 125.713 71.9426 124.037C71.9051 122.368 71.9288 120.631 71.2323 119.111C70.5358 117.581 68.8677 116.353 67.2432 116.763C66.147 117.049 65.3416 117.984 64.7401 118.941C63.3174 121.188 62.4823 123.426 62.5437 126.114C62.5991 128.476 62.7831 130.854 63.3332 133.155C64.2375 136.954 66.1074 140.437 67.9635 143.881C68.4423 144.768 68.9449 145.687 69.7483 146.298C71.0542 147.286 72.8331 147.255 74.4556 147.502C77.8254 148.036 80.8014 149.919 83.6607 151.764C87.0305 153.934 90.5328 156.49 90.0144 160.969C89.8205 162.59 89.3337 164.219 89.5672 165.834C89.7987 167.447 91.0888 169.099 92.7193 168.975C93.4772 168.921 94.2034 168.488 94.9612 168.589C96.1287 168.751 96.7401 170.427 95.9347 171.299C95.3095 171.979 94.2113 172.033 93.5781 172.705C92.9053 173.416 92.9983 174.535 92.7193 175.47C92.3572 176.69 91.3599 177.609 90.8177 178.751C90.2696 179.902 90.4557 181.631 91.6765 181.971C93.6157 182.503 95.1076 178.951 96.9399 179.785C98.1232 180.319 97.8759 182.056 97.405 183.268C96.7777 184.881 96.0673 186.526 96.1287 188.255C96.1445 188.664 96.2058 189.097 96.4374 189.437C97.0943 190.41 98.6951 190.109 99.5222 189.267C100.349 188.425 100.719 187.245 101.432 186.302C101.756 185.861 102.211 185.444 102.767 185.438C103.426 185.423 103.935 185.978 104.507 186.31C106.347 187.383 108.789 185.933 109.647 183.986C110.506 182.04 110.288 179.825 110.296 177.7C110.296 175.577 110.653 173.238 112.259 171.855C114.424 170.003 118.073 170.55 119.982 168.435C125.331 162.505 130.818 157.115 130.81 149.139C130.81 146.514 129.775 142.707 130.64 140.198C130.802 139.741 131.235 139.348 131.714 139.403C132.448 139.486 132.682 140.421 132.711 141.155C132.789 142.993 132.781 144.845 132.789 146.692C132.812 151.009 132.951 155.332 133.222 159.649C133.275 160.52 133.347 161.432 133.794 162.181C134.831 163.895 137.264 164.003 138.958 165.092C140.054 165.794 140.828 166.929 141.932 167.632C143.038 168.326 144.801 168.35 145.373 167.184C145.682 166.559 145.573 165.741 146.052 165.239C146.703 164.559 147.831 164.968 148.605 165.494C149.376 166.01 150.304 166.644 151.161 166.273C152.778 165.579 151.757 162.545 153.31 161.724C153.682 161.532 154.115 161.524 154.525 161.471C156.951 161.123 158.844 158.591 158.498 156.166C158.328 155.031 157.748 153.934 157.903 152.799C158.158 150.892 160.291 149.827 161.086 148.065C162.323 145.339 160.028 141.758 161.743 139.311C163.498 136.792 165.786 135.836 168.554 134.507C172.054 132.831 175.092 130.198 177.241 126.978C177.783 126.168 178.895 125.241 179.528 125.976C179.698 126.176 179.762 126.454 179.946 126.654C180.225 126.948 180.688 126.956 181.097 126.933C183.804 126.808 186.778 126.555 188.666 124.616C190.698 122.523 190.744 119.148 192.483 116.794C192.714 116.478 193.017 116.162 193.411 116.114C193.967 116.053 194.424 116.555 194.616 117.081C194.81 117.597 194.841 118.176 195.081 118.67C195.754 120.091 197.669 120.269 199.238 120.245C200.19 120.23 201.302 120.131 201.805 119.318C202.068 118.88 202.084 118.322 202.355 117.883C202.94 116.917 204.51 117.018 205.299 117.836C206.095 118.648 206.281 119.86 206.326 120.995C206.403 122.902 206.188 124.823 205.685 126.662C205.422 127.626 205.06 128.593 204.371 129.318C203.69 130.044 202.608 130.469 201.666 130.129C199.108 129.226 200.121 124.414 197.554 123.55C196.27 123.11 194.802 124.215 194.594 125.559C194.448 126.523 194.81 127.52 194.624 128.476C194.323 129.998 192.73 130.987 192.344 132.491C192.15 133.264 192.299 134.074 192.143 134.863C191.996 135.634 191.355 136.444 190.573 136.322C189.988 136.221 189.616 135.65 189.145 135.28C188.233 134.561 186.818 134.638 185.89 135.349C184.964 136.051 184.507 137.279 184.584 138.445C184.653 139.465 185.071 140.584 184.507 141.441C183.966 142.252 182.837 142.353 181.924 142.714C180.318 143.349 179.289 144.909 178.369 146.375C177.783 147.316 177.164 148.421 177.504 149.479C177.953 150.846 179.783 151.41 180.171 152.792C180.294 153.209 180.278 153.687 180.557 154.019C180.836 154.351 181.315 154.412 181.748 154.444C183.123 154.545 184.515 154.545 185.898 154.452C186.895 154.391 188.595 154.814 189.461 154.521C189.988 154.343 190.427 153.98 190.93 153.734C193.078 152.691 195.552 154.112 197.515 155.47C197.98 155.788 198.474 156.15 198.597 156.692C198.807 157.547 198.033 158.459 198.381 159.269C198.744 160.111 199.98 160.074 200.714 160.629C202.129 161.687 201.565 164.689 203.312 164.944C204.379 165.1 205.129 163.895 205.345 162.837C205.57 161.78 205.639 160.552 206.488 159.888C207.555 159.062 209.071 159.641 210.416 159.641C211.977 159.641 213.515 158.714 214.241 157.332C214.474 156.899 214.637 156.421 214.961 156.057C215.456 155.525 216.22 155.355 216.877 155.047C218.632 154.221 219.677 152.127 219.281 150.236C219.158 149.641 218.879 149.038 218.339 148.761C217.257 148.206 215.618 149.186 214.837 148.251C214.381 147.711 214.581 146.861 214.273 146.221C213.924 145.502 212.982 145.241 212.201 145.417C211.421 145.602 210.764 146.112 210.137 146.607C209.874 146.822 209.581 147.047 209.241 147.077C208.677 147.146 208.174 146.676 207.935 146.158C207.27 144.675 208.283 142.807 209.797 142.198C211.305 141.58 213.075 142.005 214.451 142.877C214.922 143.171 215.416 143.541 215.972 143.511C216.437 143.487 216.855 143.187 217.318 143.163C218.185 143.108 218.778 143.958 219.328 144.63C219.868 145.294 220.897 145.873 221.531 145.286C221.916 144.922 221.924 144.274 222.312 143.92C222.86 143.426 223.717 143.788 224.437 143.981C226.198 144.468 228.24 143.602 229.121 142.005C230.002 140.398 229.632 138.214 228.27 136.994C227.212 136.043 225.634 135.596 225.017 134.321C224.815 133.904 224.738 133.442 224.56 133.009C224.182 132.082 223.363 131.412 222.589 130.769C219.661 128.338 216.892 125.713 214.312 122.902C213.238 121.728 212.124 120.192 212.65 118.694C213.105 117.381 214.744 116.502 214.621 115.118C214.504 113.784 212.743 112.756 213.214 111.497C213.392 111.018 213.871 110.702 214.087 110.24C214.597 109.18 213.624 108.053 212.812 107.203C212.001 106.355 211.305 104.902 212.193 104.132C212.781 103.63 213.693 103.823 214.366 104.217C215.03 104.602 215.618 105.157 216.368 105.359C217.11 105.559 218.107 105.181 218.153 104.408C219.026 103.398 220.666 102.95 222.002 102.989C223.347 103.027 224.701 103.282 226.006 102.965C227.312 102.657 228.565 101.536 228.44 100.208C228.395 99.7295 228.185 99.2511 228.302 98.7886C228.581 97.7153 230.334 97.8932 230.93 98.8341C231.525 99.7691 231.4 100.973 231.517 102.078C231.679 103.707 232.406 105.227 233.124 106.695C233.488 107.429 233.858 108.162 234.384 108.787C235.212 109.759 236.371 110.378 237.36 111.188C239.185 112.702 240.414 114.948 240.544 117.312C240.685 119.674 239.672 122.108 237.816 123.574C237.068 124.167 236.163 124.64 235.722 125.488C235.382 126.152 235.39 126.925 235.405 127.674C235.451 130.153 235.916 133.224 238.265 133.997C239.393 134.369 240.677 134.066 241.759 134.545C243.56 135.341 244.48 138.121 246.427 137.82C248.073 137.565 248.429 135.341 248.158 133.705C247.826 131.75 247.185 129.85 246.265 128.107C245.855 127.342 245.4 126.585 245.267 125.735C245.137 124.887 245.438 123.898 246.211 123.527C246.658 123.311 247.177 123.335 247.664 123.25C248.9 123.033 249.959 122.044 250.262 120.825C250.477 119.937 250.307 118.986 250.539 118.099C250.762 117.211 251.69 116.361 252.525 116.733C253.685 117.243 253.105 118.994 253.477 120.208C253.893 121.558 255.509 122.076 256.892 122.392C257.411 122.517 257.959 122.631 258.469 122.485C260.169 122.007 260.116 119.273 261.685 118.463C262.071 118.269 262.512 118.215 262.882 117.998C264.042 117.328 263.879 115.62 263.462 114.355C263.038 113.088 262.544 111.56 263.393 110.532C263.81 110.03 264.459 109.791 265.001 109.413C265.959 108.725 266.531 107.583 266.701 106.409C267.049 103.914 265.541 101.329 263.278 100.224C261.012 99.1207 258.153 99.4745 256.119 100.957C254.666 102.009 253.592 103.568 251.999 104.371C249.682 105.545 246.52 104.648 245.167 102.424C244.812 101.839 244.549 101.151 243.977 100.773C243.613 100.518 243.15 100.425 242.794 100.162C241.371 99.097 242.748 96.7882 242.276 95.0823C241.921 93.8153 240.515 92.7736 240.877 91.5065C241.209 90.3877 242.778 90.1327 243.853 90.619C244.927 91.0973 245.717 92.0402 246.728 92.6412C249.419 94.2561 253.438 92.6886 254.334 89.684C254.573 88.8578 254.613 87.9623 255.03 87.2053C255.935 85.5607 258.153 85.2681 260.031 85.2602C261.283 85.2523 262.597 84.8886 263.879 84.7581C263.424 80.3027 267.815 74.6672 265.866 70.1267Z" fill="#FFC5C7" stroke="#5E5959" stroke-width="0.7515" stroke-miterlimit="10" stroke-linecap="round" stroke-linejoin="round"/>
</svg>
