<svg width="201" height="141" viewBox="0 0 201 141" fill="none" xmlns="http://www.w3.org/2000/svg">
<path d="M162.249 135.9C163.363 133.823 163.161 131.298 162.643 128.998C162.318 127.529 161.94 125.799 162.946 124.688C163.51 124.062 164.368 123.823 165.132 123.491C167.536 122.433 169.23 118.873 167.119 117.321C166.114 116.58 164.531 116.572 163.943 115.469C163.502 114.651 163.866 113.655 164.119 112.767C165.273 108.835 164.127 104.327 161.244 101.415C160.417 100.583 159.459 99.8632 158.871 98.8531C157.611 96.6907 158.424 93.9728 159.251 91.6166C160.997 86.6907 162.744 81.7648 164.483 76.8389C164.946 75.5343 165.419 74.2139 166.122 73.016C166.802 71.8656 167.706 70.808 168.007 69.5113C168.603 66.8942 166.786 63.4489 168.935 61.8201C169.986 61.0254 171.478 61.2251 172.723 60.7941C175.706 59.7742 176.425 55.6667 179.13 54.0517C180.568 53.1958 182.393 53.1484 183.776 52.2075C185.422 51.0807 186.148 48.857 187.943 47.9754C190.26 46.8408 193.832 48.177 195.116 45.9453C196.097 44.2395 194.605 41.992 195.284 40.1457C195.787 38.7957 197.257 38.1157 198.26 37.074C200.217 35.042 200.14 31.6836 198.856 29.1752C197.565 26.6648 195.316 24.8047 193.129 23.0277C192.124 22.2015 190.988 21.3376 189.688 21.3989C186.991 21.5215 185.276 25.4985 182.664 24.8186C180.784 24.3323 180.174 21.7152 178.342 21.0905C175.991 20.3018 172.491 22.9131 171.417 20.6893C171.007 19.8393 171.393 18.7264 170.868 17.9476C169.956 16.5956 167.892 17.746 166.701 18.8589C161.315 23.8856 154.225 27.066 146.884 27.7539C142.23 28.1868 137.076 27.4456 133.837 24.0773C131.634 21.8002 130.489 18.5031 127.815 16.8051C126.052 15.6922 123.672 15.2989 122.605 13.5159C121.291 11.3 122.651 7.91797 120.743 6.18837C119.182 5.88594 117.852 7.21426 116.576 8.17296C113.206 10.7209 108.701 11.0372 104.472 11.2526C99.3631 11.5155 93.0332 11.0826 90.906 6.42752C90.2273 4.9371 89.9879 3.02173 88.5336 2.235C87.2276 1.53131 85.6347 2.15788 84.1744 2.41881C78.7943 3.38541 73.1133 -0.807129 68.0517 1.26048C63.8311 2.98415 62.3787 8.04842 60.1447 12.0097C58.2036 15.4451 55.3364 18.3489 51.935 20.3572C51.9825 20.379 52.0359 20.3868 52.0814 20.4106C52.4771 20.6972 52.6929 21.306 52.4 21.6994C52.1903 21.9702 51.8262 22.0552 51.4878 22.1085C49.1292 22.4327 46.2006 21.8536 44.8017 23.7769C44.2753 24.5023 44.121 25.4531 43.6263 26.2023C42.4509 27.9694 39.932 28.0307 37.8069 28.0248C35.0703 28.0248 32.2644 28.2481 29.7356 29.3135C28.8393 29.6911 27.9746 30.1773 27.0089 30.3315C25.6555 30.5569 24.2882 30.1003 22.9189 29.9698C21.3735 29.8235 19.842 30.1003 18.3658 30.5332C17.8573 30.6794 15.0891 30.8889 14.9802 31.0036C13.1954 32.9348 19.3473 35.3444 20.4079 35.3286C22.169 35.3128 24.4643 34.8265 25.2617 36.4019C25.5704 37.0107 25.4932 37.7381 25.4081 38.4082C25.238 39.6911 25.0441 40.9957 25.2776 42.2707C25.5091 43.5358 26.259 44.7949 27.464 45.2654C30.7567 46.57 33.98 41.4583 37.3419 42.5869C38.8022 43.0811 39.3681 43.2432 40.8601 43.6287C42.3579 44.0141 43.9508 44.4015 45.419 43.9074C47.7223 43.1345 49.0599 40.4008 51.4561 39.9916C52.4851 39.8137 53.8207 40.4699 53.6664 41.5057C53.5041 42.6028 52.0043 42.7787 51.1 43.429C49.3468 44.6704 49.7168 47.9457 47.6926 48.687C47.1663 48.8787 46.5944 48.8412 46.0305 48.7937C44.4217 48.6712 42.815 48.5387 41.2063 48.4162C39.9775 48.3154 38.6023 48.2699 37.6822 49.0961C36.5919 50.0687 36.7166 51.907 37.5516 53.1108C38.3866 54.3067 39.7381 55.0341 41.0361 55.7121C43.0861 56.7855 45.1341 57.8588 47.19 58.9321C48.025 59.3729 47.9538 59.7979 48.0329 60.7388C48.1101 61.6817 47.3602 62.7392 46.4163 62.6384C45.605 62.5455 45.1024 61.7351 44.5148 61.1717C43.2543 59.96 41.3468 59.7821 39.5996 59.705C37.5279 59.6042 35.4482 59.5508 33.3686 59.5429C31.2988 59.535 28.9402 59.7129 27.658 61.3338C26.2432 63.1405 26.8922 65.7655 26.3975 68.0051C25.9958 69.8652 24.7037 71.5117 23.004 72.3676C21.326 73.2097 19.286 73.3105 17.8019 74.453C17.1212 74.9768 16.6127 75.6805 16.0784 76.3526C13.326 79.796 9.71684 82.5515 5.6743 84.2969C5.14202 84.5222 4.58598 84.7456 4.1744 85.1548C3.34729 85.9652 3.30971 87.3311 3.78857 88.3906C4.2595 89.4481 5.14202 90.2585 6.01464 91.0156C6.85757 91.7569 7.71634 92.4744 8.58104 93.1841C9.08364 93.5853 9.60998 93.9965 10.2353 94.1427C11.0228 94.3285 11.8361 94.0577 12.6078 93.8186C17.8573 92.1878 23.4828 91.7865 28.9164 92.6444C30.0304 92.8223 31.4749 93.6011 31.0574 94.6527C30.725 95.4711 29.5971 95.4632 28.7166 95.5086C27.0703 95.6015 25.4853 96.4278 24.4643 97.7166C23.8153 98.5508 23.3602 99.5865 22.4638 100.142C21.4349 100.775 20.1289 100.604 18.9239 100.575C14.7408 100.466 10.6528 102.358 7.61541 105.23C3.7648 108.843 2.37376 113.261 0.51178 117.9C2.28868 118.126 4.02799 118.588 5.49027 119.531C8.58105 121.53 7.22167 124.511 9.63176 126.703C13.419 130.148 11.001 135.776 15.004 138.695C16.4722 139.761 20.1289 140.587 21.6505 139.452C23.7084 137.906 21.9375 134.888 23.5383 133.119C24.4881 132.069 26.2808 132.216 27.4245 133.058C28.5702 133.9 29.2271 135.228 29.8366 136.509C30.725 135.058 31.653 133.568 33.052 132.603C34.443 131.63 36.4455 131.312 37.8207 132.309C37.9691 128.573 41.8336 126.118 43.1712 122.627C43.7272 121.182 43.8202 119.6 44.2832 118.118C45.512 114.149 49.4774 111.261 53.6367 111.045C57.794 110.844 61.9137 113.184 64.0864 116.734C65.7564 119.46 67.5491 123.469 70.6557 122.696C73.8178 121.901 73.5625 117.06 75.9825 114.874C77.3043 113.678 79.4294 113.492 80.9352 114.441C82.4351 115.384 83.193 117.385 82.6825 119.09C82.172 120.773 80.5969 122.395 81.2993 124.008C82.1799 126.025 85.4428 125.353 87.0119 126.896C88.581 128.432 87.56 131.15 86.0305 132.718C85.4428 133.321 84.7304 134.038 84.9164 134.856C85.0253 135.313 85.3953 135.661 85.7673 135.953C89.1905 138.602 94.2778 138.865 97.9483 136.572C99.3394 135.698 101.233 134.532 102.363 135.714C103.065 136.44 102.988 137.752 103.831 138.316C104.789 138.958 105.988 138.1 107.007 137.566C110.408 135.815 114.419 137.784 118.129 138.725C118.879 138.911 119.677 139.057 120.425 138.857C122.574 138.278 123.579 135.119 125.805 135.212C127.321 135.281 128.433 136.934 129.956 136.95C131.773 136.966 132.661 134.827 133.658 133.305C136.603 128.772 143.669 128.503 148.089 131.623C151.135 133.777 153.09 137.043 154.35 140.595C157.581 139.652 160.727 138.733 162.249 135.9Z" fill="#F7F7F7" stroke="#5E5959" stroke-width="0.7515" stroke-miterlimit="10" stroke-linecap="round" stroke-linejoin="round"/>
</svg>
