<svg width="162" height="32" viewBox="0 0 162 32" fill="none" xmlns="http://www.w3.org/2000/svg">
<path d="M110.112 8.11803V13.7569H113.092V14.7516H108.951V8.11803H110.112Z" fill="#B73D24"/>
<path d="M116.508 11.945H118.039L117.595 10.5932C117.441 10.151 117.36 9.8929 117.27 9.57064C117.169 9.93893 117.116 10.1231 116.952 10.5932L116.508 11.945ZM120.269 14.7519H119.009L118.374 12.93H116.173L115.529 14.7519H114.343L116.771 8.11837H117.814L120.269 14.7519Z" fill="#B73D24"/>
<path d="M120.812 8.11803H122.018L123.213 13.0398L124.537 8.11803H125.651L126.966 13.0301L128.207 8.11803H129.321L127.518 14.7516H126.412L125.089 9.64563L123.711 14.7516H122.588L120.812 8.11803Z" fill="#B73D24"/>
<path d="M131.197 14.7514V8.11786H135.401V9.11115H132.356V11.0056H135.211V12.0003H132.356V14.7514H131.197Z" fill="#B73D24"/>
<path d="M137.366 8.11735H138.527V14.7509H137.366V8.11735Z" fill="#B73D24"/>
<path d="M142.06 9.10172V11.1078H143.129C144.027 11.1078 144.334 10.7577 144.334 10.2527V9.97503C144.334 9.46026 144.027 9.10172 143.229 9.10172H142.06ZM143.393 12.0927H142.06V14.7517H140.9V8.1182H143.373C144.732 8.1182 145.485 8.8813 145.485 9.93876V10.2792C145.485 10.9697 145.14 11.5682 144.47 11.8723C144.905 12.8377 145.312 13.785 145.748 14.7517H144.489L143.393 12.0927Z" fill="#B73D24"/>
<path d="M149.2 10.1506C149.109 9.92046 149.019 9.62749 148.865 9.14759V14.7516H147.787V8.11803H149.436L151.04 12.2405L152.58 8.11803H154.248V14.7516H153.15V9.14759C153.014 9.70004 152.925 9.91209 152.843 10.1506L151.474 13.6467H150.549L149.2 10.1506Z" fill="#B73D24"/>
<path d="M112.382 22.0339V21.9321C112.382 21.3992 111.974 21.169 111.231 21.003C110.142 20.763 108.92 20.5719 108.92 19.0345V18.9146C108.92 18.1138 109.491 17.0466 111.258 17.0466C111.974 17.0466 112.636 17.1665 113.296 17.599L112.753 18.51C112.228 18.1598 111.801 18.0957 111.275 18.0957C110.452 18.0957 110.07 18.5379 110.07 18.8964V19.0066C110.07 19.6511 110.714 19.7432 111.485 19.9176C113.025 20.2664 113.542 20.9109 113.542 21.8219V21.9418C113.542 23.4234 112.41 23.8838 111.14 23.8838C110.197 23.8838 109.31 23.5434 108.803 23.1193L109.363 22.1804C109.763 22.5208 110.414 22.8249 111.195 22.8249C112.018 22.8249 112.382 22.4845 112.382 22.0339Z" fill="#B73D24"/>
<path d="M120.011 17.1484V18.1417H118.098V23.7819H116.94V18.1417H115.018V17.1484H120.011Z" fill="#B73D24"/>
<path d="M122.884 20.9753H124.414L123.97 19.6235C123.816 19.1813 123.735 18.9246 123.645 18.6023C123.544 18.9706 123.489 19.1548 123.327 19.6235L122.884 20.9753ZM126.643 23.7822H125.384L124.749 21.9602H122.548L121.904 23.7822H120.718L123.146 17.1487H124.187L126.643 23.7822Z" fill="#B73D24"/>
<path d="M128.447 17.1484H129.779L132.009 21.169C132.143 21.4173 132.325 21.7856 132.425 22.2181V17.1484H133.513V23.7819H132.18L129.942 19.7516C129.779 19.4572 129.616 19.1071 129.534 18.7304V23.7819H128.447V17.1484Z" fill="#B73D24"/>
<path d="M137.036 22.7887H138.005C139.175 22.7887 139.827 22.2906 139.827 20.8928V20.0376C139.827 18.6383 139.211 18.1417 138.005 18.1417H137.036V22.7887ZM138.159 17.1484C140.099 17.1484 140.996 18.1598 140.996 19.9915V20.9388C140.996 22.7691 140.207 23.7819 138.178 23.7819H135.885V17.1484H138.159Z" fill="#B73D24"/>
<path d="M144.439 20.9753H145.97L145.526 19.6235C145.373 19.1813 145.291 18.9246 145.2 18.6023C145.1 18.9706 145.046 19.1548 144.883 19.6235L144.439 20.9753ZM148.2 23.7822H146.94L146.305 21.9602H144.104L143.461 23.7822H142.273L144.701 17.1487H145.744L148.2 23.7822Z" fill="#B73D24"/>
<path d="M151.162 18.1328V20.1375H152.231C153.129 20.1375 153.436 19.7888 153.436 19.2837V19.0061C153.436 18.4913 153.129 18.1328 152.331 18.1328H151.162ZM152.494 21.1224H151.162V23.7814H150.002V17.1479H152.475C153.834 17.1479 154.587 17.9124 154.587 18.9699V19.3102C154.587 20.0008 154.242 20.5993 153.572 20.902C154.007 21.8688 154.415 22.816 154.851 23.7814H153.591L152.494 21.1224Z" fill="#B73D24"/>
<path d="M158.04 22.7887H159.009C160.178 22.7887 160.831 22.2906 160.831 20.8928V20.0376C160.831 18.6383 160.214 18.1417 159.009 18.1417H158.04V22.7887ZM159.163 17.1484C161.103 17.1484 162 18.1598 162 19.9915V20.9388C162 22.7691 161.211 23.7819 159.18 23.7819H156.889V17.1484H159.163Z" fill="#B73D24"/>
<path d="M55.9937 11.3926H54.3435V20.7911H55.9937C58.3241 20.7911 59.3203 19.6597 59.3203 17.0049V15.1774C59.3203 12.4891 58.3557 11.3926 55.9937 11.3926Z" fill="#B73D24"/>
<path d="M5.29731 19.4428V19.2266C5.29731 18.3198 4.75593 17.8678 3.23211 17.4967L2.96691 17.4339C1.92263 17.1884 0.846752 16.9345 0.000335462 16.3416V19.7372C0.881103 20.4584 2.0518 20.87 3.21974 20.87C4.5402 20.87 5.29731 20.3496 5.29731 19.4428Z" fill="#B73D24"/>
<path d="M73.3909 23.4399L71.4232 17.2625L70.5493 14.372C70.3886 13.8753 70.269 13.4833 70.1605 13.1178C70.0615 13.4735 69.9475 13.846 69.7771 14.3761L68.9046 17.2597L68.2437 19.3677L66.9177 23.4399H64.0308L68.9884 8.74427H71.4109L76.4248 23.4399H73.3909ZM62.1401 17.1035C62.1401 21.4268 60.2948 23.4399 56.332 23.4399H51.5599V8.74427H56.2977C60.1739 8.74427 62.1401 10.8759 62.1401 15.0807V17.1035ZM30.9615 23.4399L28.9952 17.2625L28.12 14.372C27.9578 13.8669 27.8383 13.4805 27.7325 13.1164C27.6322 13.4721 27.5209 13.8376 27.3478 14.3761L26.4752 17.2597L25.8143 19.3677L24.4884 23.4399H21.6028L26.5591 8.74427H28.9815L33.9954 23.4399H30.9615ZM20.8334 11.3921H17.0712V23.4399H14.2682V11.3921H10.4881V8.74427H20.8334V11.3921ZM102.088 0H47.4076V23.4399H44.3695L39.8901 14.6914C39.7733 14.4612 39.6703 14.2422 39.5782 14.0274V23.4399H36.918V8.74427H39.9588L44.4176 17.4746C44.5083 17.6573 44.6265 17.8987 44.7474 18.1819V0H0V9.54643C0.839546 8.87819 1.98963 8.52803 3.34444 8.52803C5.02903 8.52803 6.31239 8.90749 7.50782 9.75429L7.69744 9.8924L6.37423 12.3003L6.13926 12.1315C5.17193 11.4326 4.39422 11.2958 3.38017 11.2958C2.00886 11.2958 1.26825 12.0408 1.26825 12.7425V12.9769C1.26825 14.0455 2.1655 14.2604 3.52444 14.5868L3.85147 14.6663C6.78919 15.389 8.09866 16.724 8.09866 18.9896V19.2449C8.09866 22.0895 6.32888 23.6561 3.1136 23.6561C2.0707 23.6561 0.972829 23.4217 0 22.9949V32H79.3474V8.74427H84.4754C87.1589 8.74427 88.8916 10.3751 88.8916 12.8974V13.6256C88.8916 15.1699 88.1908 16.4478 86.9665 17.1467C87.365 18.1107 87.7525 19.0664 88.14 20.022L88.2018 20.1726C88.592 21.1366 88.985 22.102 89.389 23.0744L89.5401 23.4399H86.4911L84.3338 17.7592H82.1491V32H102.088V21.8314C101.129 22.9139 99.6792 23.4399 97.6745 23.4399H92.9024V8.74427H97.6374C99.6105 8.74427 101.106 9.31764 102.088 10.4504V0Z" fill="#B73D24"/>
<path d="M86.1076 13.5667V12.9766C86.1076 11.8968 85.481 11.3737 84.1908 11.3737H82.1489V15.1306H83.9943C85.4357 15.1306 86.1076 14.6339 86.1076 13.5667Z" fill="#B73D24"/>
<path d="M95.6868 11.3926V20.7911H97.3343C99.6661 20.7911 100.661 19.6597 100.661 17.0049V15.1774C100.661 12.4891 99.6977 11.3926 97.3343 11.3926H95.6868Z" fill="#B73D24"/>
</svg>
