<svg width="53" height="44" viewBox="0 0 53 44" fill="none" xmlns="http://www.w3.org/2000/svg">
<path d="M5.82309 17.134C5.03555 17.049 4.2302 16.9166 3.45849 17.0708C0.405314 17.6658 -0.198177 22.0204 1.24827 24.7699C2.70066 27.5116 5.35215 29.4962 6.73528 32.2675C7.4773 33.7737 7.83346 35.4559 8.68233 36.9008C10.3999 39.8105 13.7835 41.2238 16.9376 42.4435C19.1558 43.3013 21.9082 44.0821 23.7088 42.5285C25.2166 41.2238 25.5332 38.6067 27.4427 38.0275C30.0091 37.2329 31.5465 40.8621 33.8735 42.2122C35.1102 42.9376 36.6477 42.9851 38.0625 42.7301C41.2384 42.1667 43.9987 40.2592 46.6423 38.3913C47.6396 37.6876 48.6448 36.9779 49.4719 36.0746C51.5119 33.8587 52.246 30.53 51.3338 27.6579C50.4137 24.7937 47.8869 22.5067 44.9426 21.8741C43.3952 21.5499 41.4165 21.3799 40.9297 19.8895C40.7219 19.2491 40.8842 18.5612 41.0227 17.897C41.5945 15.3115 41.1553 12.5541 40.6368 9.99031C40.3123 8.35361 40.6823 4.53268 40.0571 3.22017C38.3257 -0.432739 31.6237 0.741417 28.903 2.68647C24.8367 5.59021 23.6851 11.1486 19.2963 13.914C15.323 16.4086 10.5067 17.644 5.82309 17.134Z" fill="#F7F7F7" stroke="#5E5959" stroke-width="0.7515" stroke-miterlimit="10" stroke-linecap="round" stroke-linejoin="round"/>
</svg>
