<svg width="53" height="45" viewBox="0 0 53 45" fill="none" xmlns="http://www.w3.org/2000/svg">
<path d="M5.82309 17.5452C5.03555 17.4602 4.2302 17.3277 3.45849 17.4819C0.405314 18.0769 -0.198177 22.4315 1.24827 25.1811C2.70066 27.9227 5.35215 29.9073 6.73528 32.6786C7.4773 34.1849 7.83346 35.867 8.68233 37.312C10.3999 40.2216 13.7835 41.635 16.9376 42.8546C19.1558 43.7125 21.9082 44.4933 23.7088 42.9396C25.2166 41.635 25.5332 39.0178 27.4427 38.4387C30.0091 37.6441 31.5465 41.2732 33.8735 42.6233C35.1102 43.3487 36.6477 43.3962 38.0625 43.1412C41.2384 42.5778 43.9987 40.6703 46.6423 38.8024C47.6396 38.0987 48.6448 37.3891 49.4719 36.4857C51.5119 34.2699 52.246 30.9411 51.3338 28.069C50.4137 25.2048 47.8869 22.9178 44.9426 22.2852C43.3952 21.9611 41.4165 21.7911 40.9297 20.3006C40.7219 19.6602 40.8842 18.9723 41.0227 18.3082C41.5945 15.7227 41.1553 12.9652 40.6368 10.4014C40.3123 8.76475 40.6823 4.94382 40.0571 3.6313C38.3257 -0.0216064 31.6237 1.15255 28.903 3.0976C24.8367 6.00135 23.6851 11.5598 19.2963 14.3252C15.323 16.8197 10.5067 18.0551 5.82309 17.5452Z" fill="#FFC5C7" stroke="#5E5959" stroke-width="0.7515" stroke-miterlimit="10" stroke-linecap="round" stroke-linejoin="round"/>
</svg>
