<svg width="145" height="50" viewBox="0 0 145 50" fill="none" xmlns="http://www.w3.org/2000/svg">
<path d="M4.74799 10.2891C6.34265 10.6491 6.34265 10.6491 6.80561 11.1121C6.82241 11.935 6.82312 12.7584 6.80561 13.5813C7.21302 13.5558 7.62043 13.5303 8.04019 13.5041C9.83867 13.5114 11.4138 13.9187 12.9785 14.8158C13.7758 15.8704 13.7758 15.8704 14.2131 16.8735C14.4168 17.2809 14.4168 17.2809 14.6246 17.6965C15.1129 22.7561 13.6494 26.1813 10.6315 30.1692C6.46784 35.0481 6.46784 35.0481 3.59058 35.6236C2.27884 35.3921 2.27884 35.3921 1.70787 34.7813C0.290006 32.5882 -0.0856135 30.9352 0.0154541 28.3447C0.0227482 28.0027 0.0300424 27.6607 0.0375575 27.3083C0.141345 24.2798 0.671941 21.4448 1.45579 18.5196C1.58725 17.9685 1.71741 17.4171 1.84642 16.8654C2.96755 12.2554 2.96755 12.2554 4.74799 10.2891Z" fill="#080808"/>
<path d="M128.617 3.70518C129.134 4.90107 129.44 5.67887 129.44 6.99738C128.993 7.01861 128.993 7.01861 128.538 7.04028C122.428 7.35257 116.705 7.82223 110.921 9.87805C110.608 9.98899 110.296 10.0999 109.973 10.2142C108.081 10.8936 106.205 11.6064 104.337 12.3472C104.402 12.6803 104.467 13.0135 104.535 13.3567C105.327 18.7689 105.115 23.5777 101.894 28.1395C100.648 29.6856 99.5306 31.0677 97.5211 31.5088C96.0772 31.1756 95.6912 30.4214 94.8719 29.2197C94.6427 28.9396 94.4135 28.6595 94.1774 28.3709C92.819 26.3656 93.1352 23.8548 93.1229 21.5293C93.1144 21.136 93.1059 20.7426 93.0972 20.3374C93.0738 16.0505 94.1702 13.1277 96.9295 9.87805C97.2011 9.53006 97.4727 9.18206 97.7525 8.82352C98.5756 8.23195 98.5756 8.23195 99.913 8.33483C100.287 8.43669 100.66 8.53854 101.045 8.64348C100.703 10.5325 99.7161 12.1525 98.8288 13.8301C97.3677 16.6626 96.8101 19.266 96.6723 22.4038C96.6484 22.8554 96.6484 22.8554 96.6241 23.3161C96.5857 24.0493 96.5514 24.7826 96.518 25.516C99.3556 22.8616 100.32 20.0079 100.607 16.1811C100.651 15.1288 100.651 15.1288 100.53 13.6847C100.644 12.2132 101.021 11.4956 102.034 10.4249C104.362 8.48587 107.497 7.6541 110.33 6.74018C110.703 6.6171 111.076 6.49403 111.461 6.36723C112.514 6.02213 113.569 5.68547 114.625 5.35128C115.104 5.19638 115.583 5.04148 116.077 4.88188C117.917 4.42651 119.736 4.23688 121.621 4.06526C121.976 4.02972 122.332 3.99418 122.698 3.95756C124.681 3.76771 126.625 3.66729 128.617 3.70518Z" fill="#090909"/>
<path d="M142.609 0C144.204 0.771609 144.204 0.771609 144.667 1.23457C144.969 4.7924 144.447 8.38718 144.031 11.9175C143.922 12.8524 143.818 13.7877 143.714 14.7233C143.268 18.6451 142.627 22.4803 141.786 26.3376C141.514 26.3376 141.243 26.3376 140.963 26.3376C139.279 23.3427 139.051 20.651 139.008 17.2583C138.996 16.7843 138.984 16.3104 138.971 15.822C138.942 14.6632 138.92 13.5048 138.905 12.3457C138.492 12.689 138.079 13.0322 137.653 13.3858C134.198 16.2362 130.723 18.9458 126.971 21.3993C126.608 21.6407 126.244 21.882 125.87 22.1307C121.987 24.6006 118.315 25.2843 113.751 25.3859C113.318 25.4 112.885 25.4141 112.439 25.4285C111.384 25.4621 110.33 25.4907 109.275 25.5145C109.429 24.7215 109.429 24.7215 109.687 23.8684C110.518 23.3878 110.518 23.3878 111.667 22.9682C112.114 22.7948 112.561 22.6213 113.021 22.4426C113.274 22.3445 113.527 22.2464 113.788 22.1454C121.042 19.2462 128.032 15.6713 134.655 11.5339C136.025 10.6996 136.025 10.6996 137.188 10.1354C138.265 9.57799 138.951 9.16534 139.728 8.2305C140.211 6.63271 140.467 5.18022 140.662 3.52207C140.992 1.9171 141.496 1.17643 142.609 0Z" fill="#0A0A0A"/>
<path d="M82.9376 7.4082C83.915 7.51108 83.915 7.51108 84.9952 7.81973C85.7872 9.02673 85.922 9.99885 85.9248 11.424C85.9274 11.8119 85.93 12.1998 85.9327 12.5995C85.931 13.0178 85.9293 13.4362 85.9276 13.8672C85.9288 14.5224 85.9288 14.5224 85.93 15.1909C85.9306 16.1187 85.929 17.0465 85.9256 17.9742C85.9213 19.3686 85.9255 20.7628 85.9308 22.1572C85.9337 26.2319 85.8874 30.2796 85.4518 34.3341C85.4199 34.6361 85.388 34.9381 85.3552 35.2492C85.178 36.6819 84.9884 37.4597 84.1722 38.6841C83.7648 38.6841 83.3574 38.6841 82.9376 38.6841C82.0119 33.1464 81.5298 27.8376 81.703 22.2231C81.2994 22.4369 80.8957 22.6507 80.4797 22.8709C75.0059 25.7217 69.9274 28.0534 63.596 27.5729C63.5445 26.5956 63.5445 26.5956 63.596 25.5153C64.4787 24.6326 65.3099 24.2799 66.4573 23.8194C67.351 23.4513 67.351 23.4513 68.3622 22.8774C70.2102 22.0178 72.1001 21.517 74.0641 20.9885C76.5628 20.3133 78.939 19.6066 81.2915 18.5194C81.3069 18.0621 81.3223 17.6048 81.3381 17.1337C81.4791 13.7344 81.6848 10.6152 82.9376 7.4082Z" fill="#070707"/>
<path d="M60.7153 3.70508C60.5024 5.48333 59.9573 6.30434 58.7606 7.61456C53.923 13.324 50.3623 20.2132 47.0707 26.9032C46.9223 27.2038 46.774 27.5044 46.6211 27.8141C46.3369 28.3926 46.0554 28.9724 45.777 29.5537C45.1312 30.877 44.541 31.9471 43.4313 32.9233C43.2276 33.3308 43.2276 33.3308 43.0198 33.7464C42.7482 33.7464 42.4765 33.7464 42.1967 33.7464C41.0096 32.504 40.2108 31.6332 40.0485 29.8953C40.3036 26.5358 41.4945 23.9487 43.0455 20.9891C43.3841 20.3112 43.3841 20.3112 43.7295 19.6195C45.2904 16.5665 47.0957 13.8222 49.1926 11.1125C49.4351 10.798 49.6776 10.4836 49.9274 10.1596C52.292 7.16443 56.7308 3.70508 60.7153 3.70508Z" fill="#070707"/>
<path d="M133.967 30.865C134.103 31.544 134.238 32.223 134.378 32.9226C134.743 32.8971 135.108 32.8717 135.484 32.8454C136.989 32.9306 137.69 33.2996 138.905 34.1572C138.697 39.2371 136.808 42.1807 133.144 45.6799C131.818 46.72 130.45 47.6574 129.028 48.5606C128.621 48.8322 128.214 49.1038 127.794 49.3836C126.688 49.435 126.688 49.435 125.736 49.3836C124.236 47.2919 123.885 46.0048 124.281 43.4583C124.354 43.105 124.427 42.7517 124.502 42.3877C124.57 42.0514 124.639 41.715 124.709 41.3685C125.753 37.2315 128.24 33.5983 131.498 30.865C132.523 30.3524 132.901 30.5453 133.967 30.865Z" fill="#070707"/>
<path d="M33.1433 0.822266C34.1832 8.78936 33.608 16.9142 32.989 24.8965C32.95 25.4068 32.95 25.4068 32.9103 25.9274C32.0248 37.3319 32.0248 37.3319 30.6742 38.6825C30.4029 38.1969 30.1386 37.7074 29.8768 37.2165C29.6548 36.8083 29.6548 36.8083 29.4283 36.3918C28.3283 33.6395 28.5504 30.5554 28.5474 27.6421C28.5454 26.9362 28.5454 26.9362 28.5433 26.216C28.5412 25.2198 28.5402 24.2236 28.5403 23.2275C28.5394 21.7293 28.5319 20.2313 28.5241 18.7332C28.5125 14.4051 28.5328 10.0817 28.9043 5.76699C28.9259 5.45178 28.9476 5.13657 28.9699 4.8118C29.1281 3.30023 29.3516 2.56274 30.399 1.43915C31.4972 0.822266 31.4972 0.822266 33.1433 0.822266Z" fill="#050505"/>
<path d="M54.5425 14.8164C54.8141 14.8164 55.0857 14.8164 55.3656 14.8164C58.6863 19.5416 58.752 25.5422 59.1916 31.1121C59.4364 34.2102 59.804 37.2624 60.3039 40.3309C60.8471 40.0593 61.3903 39.7877 61.95 39.5079C61.6884 41.1003 61.2178 42.4591 60.5611 43.9318C60.3881 44.3286 60.2152 44.7254 60.037 45.1342C59.4808 46.0923 59.4808 46.0923 58.2462 46.5038C56.4073 40.2728 55.8461 34.0806 55.6806 27.5994C55.6731 27.3203 55.6657 27.0413 55.6579 26.7538C55.6218 25.3673 55.5942 23.9819 55.5783 22.595C55.5629 21.8368 55.5629 21.8368 55.5472 21.0632C55.5417 20.6122 55.5361 20.1613 55.5304 19.6966C55.3465 18.3842 54.9509 17.8817 54.131 16.874C54.2596 15.7423 54.2596 15.7423 54.5425 14.8164Z" fill="#080808"/>
<path d="M5.9826 15.6387C6.44593 16.0326 6.90881 16.4271 7.3715 16.8218C7.62931 17.0414 7.88713 17.261 8.15275 17.4873C8.68153 17.9491 9.18991 18.4345 9.68633 18.9309C9.79858 22.4669 8.25865 24.5556 5.9826 27.1614C5.05674 28.063 4.12766 28.8398 3.10193 29.6305C3.37435 26.881 3.79276 24.1906 4.31078 21.4772C4.38054 21.0955 4.4503 20.7138 4.52217 20.3206C4.59193 19.9527 4.66169 19.5848 4.73356 19.2058C4.79559 18.8759 4.85763 18.546 4.92154 18.2062C5.16496 17.2638 5.51636 16.4902 5.9826 15.6387Z" fill="#F0F0F0"/>
<path d="M131.498 37.0371C131.905 37.0371 132.313 37.0371 132.732 37.0371C132.922 39.402 132.566 40.5375 131.086 42.3869C130.212 43.3643 130.212 43.3643 129.44 44.033C129.169 44.033 128.897 44.033 128.617 44.033C128.779 41.4904 129.647 38.888 131.498 37.0371Z" fill="#E4E4E4"/>
</svg>
