<svg width="64" height="67" viewBox="0 0 64 67" fill="none" xmlns="http://www.w3.org/2000/svg">
<path d="M62.4279 18.2011C62.1113 17.9066 61.7333 17.6912 61.4088 17.4045C60.3344 16.4557 60.0396 14.8645 60.2711 13.4512C60.4116 12.5716 60.7202 11.7374 61.0764 10.919C59.1274 10.2786 57.1407 9.75277 55.1244 9.39895C52.4412 8.92652 49.6433 8.71901 47.0314 9.49782C45.1674 10.0552 43.4756 11.097 41.582 11.5516C39.6963 12.0082 37.4009 11.7077 36.3106 10.1007C35.4835 8.89689 35.5607 7.30565 35.0819 5.92395C33.7066 1.95478 28.5897 1.05936 24.3908 0.873543C21.393 0.735176 18.3003 0.642281 15.4865 1.68399C12.6668 2.73558 10.1697 5.19853 10.0074 8.1932C9.9065 10.1778 10.6406 12.6249 9.06358 13.8307C8.36905 14.3624 7.44894 14.4256 6.59017 14.5956C4.81327 14.9416 3.21244 15.9082 1.95397 17.2049C3.35293 18.0924 4.36407 19.6362 4.58964 21.2887C4.91415 23.6212 3.86348 26.0229 2.13803 27.6358C1.60575 28.13 0.978463 28.6083 0.794441 29.312C0.523355 30.3162 1.24954 31.3046 2.03906 31.9905C6.24385 35.6434 12.8984 35.6354 16.7312 39.6817C18.231 41.265 19.2283 43.4196 21.1536 44.4455C22.606 45.2184 24.3532 45.2105 25.8749 45.843C28.7044 47.0093 30.1805 50.423 29.5869 53.4098C31.7497 53.7577 34.0687 53.7656 35.7388 55.1236C37.7472 56.7622 37.9965 59.6956 37.9965 62.289C37.9965 63.4335 38.0104 64.6373 38.1647 65.7877C39.7972 66.0032 41.5285 65.2778 42.4407 63.904C43.1887 62.7535 43.4915 61.1781 44.7202 60.5752C45.486 60.1977 46.4121 60.3203 47.2016 59.9961C48.276 59.5493 48.8716 58.3515 48.9627 57.1931C49.0636 56.0348 48.7628 54.8923 48.5392 53.7498C48.0049 51.016 47.9198 48.1913 48.2839 45.426C48.3611 44.8626 48.462 44.2755 48.8162 43.8288C49.1803 43.3563 49.7601 43.1172 50.231 42.7554C52.0871 41.3263 51.9248 38.5313 51.5924 36.2146C51.537 35.8371 51.4914 35.4338 51.6616 35.0958C52.0712 34.2992 53.4009 34.5542 53.8402 35.335C54.2894 36.1138 54.1271 37.0804 53.9728 37.96C53.8263 38.8475 53.7096 39.8359 54.2201 40.5693C55.0769 41.7968 57.1645 41.3955 58.0529 40.1838C58.9414 38.978 58.9809 37.3651 58.9809 35.8667C58.9889 32.6013 60.0237 30.5 60.4966 27.2662C60.6886 25.9299 60.651 24.4711 61.4464 23.382C61.8481 22.8404 62.42 22.447 62.8078 21.8995C63.5953 20.7945 63.4252 19.1203 62.4279 18.2011Z" fill="#F7F7F7" stroke="#5E5959" stroke-width="0.7515" stroke-miterlimit="10" stroke-linecap="round" stroke-linejoin="round"/>
</svg>
