<svg width="64" height="67" viewBox="0 0 64 67" fill="none" xmlns="http://www.w3.org/2000/svg">
<path d="M62.4279 18.6122C62.1113 18.3177 61.7333 18.1023 61.4088 17.8157C60.3344 16.8669 60.0396 15.2756 60.2711 13.8623C60.4116 12.9827 60.7202 12.1485 61.0764 11.3302C59.1274 10.6897 57.1407 10.1639 55.1244 9.81008C52.4412 9.33765 49.6433 9.13014 47.0314 9.90895C45.1674 10.4664 43.4756 11.5081 41.582 11.9627C39.6963 12.4193 37.4009 12.1189 36.3106 10.5118C35.4835 9.30803 35.5607 7.71679 35.0819 6.33508C33.7066 2.36591 28.5897 1.47049 24.3908 1.28468C21.393 1.14631 18.3003 1.05341 15.4865 2.09512C12.6668 3.14672 10.1697 5.60966 10.0074 8.60433C9.9065 10.5889 10.6406 13.036 9.06358 14.2418C8.36905 14.7735 7.44894 14.8368 6.59017 15.0068C4.81327 15.3527 3.21244 16.3193 1.95397 17.616C3.35293 18.5035 4.36407 20.0473 4.58964 21.6998C4.91415 24.0323 3.86348 26.434 2.13803 28.047C1.60575 28.5411 0.978463 29.0195 0.794441 29.7232C0.523355 30.7273 1.24954 31.7157 2.03906 32.4016C6.24385 36.0545 12.8984 36.0466 16.7312 40.0928C18.231 41.6762 19.2283 43.8308 21.1536 44.8567C22.606 45.6295 24.3532 45.6216 25.8749 46.2542C28.7044 47.4204 30.1805 50.8341 29.5869 53.8209C31.7497 54.1688 34.0687 54.1767 35.7388 55.5347C37.7472 57.1734 37.9965 60.1068 37.9965 62.7002C37.9965 63.8447 38.0104 65.0484 38.1647 66.1989C39.7972 66.4143 41.5285 65.6889 42.4407 64.3151C43.1887 63.1647 43.4915 61.5893 44.7202 60.9864C45.486 60.6088 46.4121 60.7314 47.2016 60.4072C48.276 59.9605 48.8716 58.7626 48.9627 57.6043C49.0636 56.4459 48.7628 55.3034 48.5392 54.1609C48.0049 51.4271 47.9198 48.6025 48.2839 45.8371C48.3611 45.2737 48.462 44.6866 48.8162 44.2399C49.1803 43.7675 49.7601 43.5283 50.231 43.1666C52.0871 41.7374 51.9248 38.9424 51.5924 36.6258C51.537 36.2482 51.4914 35.8449 51.6616 35.5069C52.0712 34.7103 53.4009 34.9653 53.8402 35.7461C54.2894 36.5249 54.1271 37.4915 53.9728 38.3712C53.8263 39.2587 53.7096 40.247 54.2201 40.9804C55.0769 42.2079 57.1645 41.8066 58.0529 40.5949C58.9414 39.3891 58.9809 37.7762 58.9809 36.2779C58.9889 33.0124 60.0237 30.9112 60.4966 27.6773C60.6886 26.3411 60.651 24.8823 61.4464 23.7931C61.8481 23.2515 62.42 22.8582 62.8078 22.3106C63.5953 21.2057 63.4252 19.5314 62.4279 18.6122Z" fill="#FFC5C7" stroke="#5E5959" stroke-width="0.7515" stroke-miterlimit="10" stroke-linecap="round" stroke-linejoin="round"/>
</svg>
